<?xml version="1.0" encoding="UTF-8"?>
<!DOCTYPE svg PUBLIC "-//W3C//DTD SVG 1.1//EN" "http://www.w3.org/Graphics/SVG/1.1/DTD/svg11.dtd">
<!-- Creator: CorelDRAW 2020 (64 Bit) -->
<svg xmlns="http://www.w3.org/2000/svg" xml:space="preserve" width="200px" height="200px" version="1.1" style="shape-rendering:geometricPrecision; text-rendering:geometricPrecision; image-rendering:optimizeQuality; fill-rule:evenodd; clip-rule:evenodd"
viewBox="0 0 22.8 22.8"
 xmlns:xlink="http://www.w3.org/1999/xlink"
 xmlns:xodm="http://www.corel.com/coreldraw/odm/2003">
 <defs>
  <style type="text/css">
   <![CDATA[
    .fil0 {fill:none}
    .fil1 {fill:url(#id0)}
   ]]>
  </style>
  <linearGradient id="id0" gradientUnits="userSpaceOnUse" x1="4.7" y1="11.4" x2="18.11" y2="11.4">
   <stop offset="0" style="stop-opacity:1; stop-color:#FF5C77"/>
   <stop offset="1" style="stop-opacity:1; stop-color:#0097A7"/>
  </linearGradient>
 </defs>
 <g id="Camada_x0020_1">
  <metadata id="CorelCorpID_0Corel-Layer"/>
  <rect class="fil0" width="22.8" height="22.8"/>
  <path class="fil1" d="M13.46 12.93c0.25,-0.2 1.04,-0.85 1.24,-0.96 0.09,-0.11 0.39,-0.34 0.54,-0.46 0.02,-0.02 0.04,-0.03 0.07,-0.06 0.03,-0.02 0.07,-0.05 0.11,-0.08 0.18,-0.13 0.38,-0.29 0.4,-0.4 0,-0.07 -0.01,-0.12 -0.03,-0.16 -0.03,-0.05 -0.07,-0.08 -0.12,-0.09 -0.14,-0.04 -0.21,0.01 -0.29,0.07l-0.02 0.02 0 0 -2.8 2.07c-0.01,0.01 -0.03,0.03 -0.06,0.05 -0.09,0.07 -0.21,0.17 -0.33,0.21 -0.15,0.06 -0.3,0.04 -0.37,-0.16 -0.09,-0.22 0.05,-0.31 0.17,-0.39 0.02,-0.02 0.04,-0.03 0.05,-0.04l3.09 -2.28 0 0c0.04,-0.04 0.1,-0.08 0.16,-0.12 0.05,-0.03 0.1,-0.07 0.16,-0.11 0.04,-0.03 0.09,-0.07 0.16,-0.11 0.24,-0.17 0.62,-0.44 0.65,-0.56 0,-0.02 0,-0.05 0,-0.08 0,-0.11 0,-0.13 -0.07,-0.2 -0.18,-0.16 -0.35,-0.02 -0.54,0.12 -0.05,0.04 -0.1,0.08 -0.16,0.12l0 0c-0.08,0.05 -0.16,0.11 -0.23,0.17 -0.08,0.06 -0.15,0.12 -0.24,0.18 -0.07,0.05 -0.14,0.1 -0.21,0.14 -0.08,0.07 -0.17,0.13 -0.27,0.2l-3.03 2.22 -0.01 0c-0.08,0.04 -0.16,0.04 -0.22,0.02 -0.05,-0.01 -0.1,-0.04 -0.13,-0.08 -0.04,-0.04 -0.06,-0.09 -0.07,-0.15 -0.01,-0.06 0.01,-0.13 0.05,-0.2 0.02,-0.04 0.92,-0.72 1.67,-1.27 0.44,-0.32 0.83,-0.6 0.97,-0.68 0.07,-0.09 0.21,-0.19 0.31,-0.26l0.05 -0.03 0 0 0.86 -0.63 0.02 -0.02c0.05,-0.03 0.05,-0.04 0.08,-0.11 0.04,-0.1 0.03,-0.19 -0.01,-0.26 -0.02,-0.03 -0.04,-0.07 -0.07,-0.09 -0.03,-0.03 -0.06,-0.05 -0.1,-0.06 -0.07,-0.03 -0.15,-0.03 -0.23,0.01l-2.16 1.42c-0.02,0.02 -0.06,0.04 -0.11,0.08 -0.3,0.21 -1.08,0.75 -1.32,0.84 -0.07,0.1 -0.23,0.21 -0.41,0.32 -0.35,0.21 -0.8,0.42 -0.93,0.48 -0.07,0.03 -0.14,0.06 -0.2,0.09 -0.17,0.07 -0.33,0.14 -0.47,0.25 -0.1,0.07 -0.17,0.15 -0.23,0.22 -0.18,0.21 -0.3,0.33 -0.58,0.09l-0.03 -0.03 0 -0.04c0,-0.29 0.16,-0.42 0.32,-0.55 0.11,-0.09 0.21,-0.18 0.26,-0.33 0.09,-0.34 0.16,-0.64 0.2,-0.95 0.05,-0.31 0.07,-0.64 0.07,-1.04l0 0c-0.01,-0.27 -0.16,-0.56 -0.32,-0.71 -0.05,-0.05 -0.09,-0.08 -0.13,-0.09 -0.03,-0.01 -0.06,-0.01 -0.08,0 -0.03,0.02 -0.06,0.09 -0.08,0.2 -0.01,0.06 -0.01,0.11 -0.02,0.16 -0.02,0.14 -0.05,0.29 -0.05,0.41l0 0.02 0 0.01c-0.07,0.17 -0.08,0.29 -0.09,0.41 -0.02,0.28 -0.04,0.59 -0.66,1.57 -0.14,0.22 -0.16,0.29 -0.18,0.36 -0.01,0.05 -0.02,0.1 -0.07,0.2l-0.01 0.01 -0.01 0.02c0,0.13 -0.06,0.38 -0.11,0.56 -0.01,0.04 -0.02,0.08 -0.02,0.11l-0.37 2.01 0 0c-0.01,0.08 -0.02,0.13 -0.03,0.18 -0.08,0.51 -0.1,0.62 -0.55,0.93l0 0 -0.87 0.59c0.1,0.16 0.44,0.58 0.64,0.82 0.05,0.07 0.1,0.13 0.12,0.15l0 0 0.81 1.04 0 0c0.05,0.07 0.09,0.11 0.13,0.16 0.12,0.16 0.24,0.31 0.36,0.47l1.44 -1.19c0.08,-0.07 0.21,-0.18 0.35,-0.3 0.26,-0.22 0.56,-0.47 0.67,-0.53 0.08,-0.05 0.15,-0.07 0.22,-0.1 0.03,-0.02 0.07,-0.03 0.1,-0.05 0.38,-0.17 0.75,-0.4 1.1,-0.66 0.35,-0.27 0.68,-0.57 0.99,-0.86l1.19 -1.09 0.01 0c0.08,-0.06 0.11,-0.1 0.16,-0.15 0.02,-0.01 0.03,-0.03 0.07,-0.06 0.25,-0.22 0.49,-0.44 0.73,-0.65 0.05,-0.04 0.09,-0.08 0.13,-0.11 0.03,-0.04 0.06,-0.07 0.11,-0.11l0.05 -0.04c0.23,-0.19 0.39,-0.33 0.35,-0.65 -0.14,0.1 -0.42,0.33 -0.56,0.45 -0.04,0.03 -0.06,0.06 -0.07,0.06l0 0 -1.87 1.5 0 0c-0.13,0.1 -0.23,0.11 -0.32,0.07 -0.08,-0.03 -0.13,-0.11 -0.19,-0.22l-0.01 -0.02 0 -0.04c0.04,-0.17 0.13,-0.23 0.24,-0.31 0.02,-0.02 0.04,-0.03 0.06,-0.05l0 0 0.98 -0.78 0.05 -0.05zm-7.59 -1.67c0.01,0.11 0.01,0.22 0.01,0.29l0.4 2.65 0 0.01c0,0.26 -0.11,0.45 -0.24,0.67 -0.04,0.08 -0.09,0.16 -0.13,0.25 -0.02,0.04 -0.05,0.08 -0.07,0.12 0.18,-0.12 0.34,-0.23 0.38,-0.36 0.04,-0.12 0.1,-0.54 0.18,-1.03 0.13,-0.82 0.29,-1.83 0.42,-2.07 0.01,-0.18 0.07,-0.33 0.13,-0.48l0 0 0.01 -0.03c0.04,-0.09 0.07,-0.15 0.11,-0.21 -0.04,0.03 -0.09,0.04 -0.14,0.03l-0.02 0 -0.01 -0.01c-0.11,-0.05 -0.18,-0.1 -0.21,-0.17 -0.04,-0.08 -0.04,-0.17 0.03,-0.31l0.2 -0.39 0 -0.01c0.09,-0.14 0.07,-0.34 0.03,-0.56 -0.01,-0.13 -0.03,-0.27 -0.04,-0.42 -0.02,-0.07 -0.05,-0.24 -0.08,-0.41 -0.02,-0.12 -0.04,-0.23 -0.06,-0.28l-0.01 -0.06c-0.05,-0.2 -0.1,-0.38 -0.17,-0.55 -0.06,-0.12 -0.16,-0.25 -0.28,-0.36 -0.1,-0.09 -0.21,-0.16 -0.32,-0.18 -0.08,-0.02 -0.13,0.01 -0.17,0.05 0,0.13 0.03,0.26 0.06,0.38 0.03,0.13 0.06,0.26 0.07,0.4 0.02,0.14 0.07,0.34 0.09,0.55 0.03,0.22 0.05,0.45 0.03,0.62 -0.02,0.12 -0.07,0.41 -0.12,0.65 -0.03,0.16 -0.07,0.3 -0.1,0.37 -0.01,0.05 -0.01,0.1 -0.02,0.14 -0.01,0.12 -0.02,0.22 0,0.4 0.02,0.08 0.03,0.2 0.04,0.31zm-0.62 -0.75l0 -0.14 0.01 -0.02c0.02,-0.04 0.08,-0.24 0.12,-0.45 0.05,-0.22 0.1,-0.44 0.1,-0.52 0.02,-0.3 -0.02,-0.5 -0.05,-0.71 -0.02,-0.12 -0.04,-0.24 -0.05,-0.39 -0.02,-0.05 -0.04,-0.16 -0.06,-0.27 -0.03,-0.16 -0.06,-0.32 -0.07,-0.35 -0.01,-0.15 0,-0.27 0.02,-0.38 0.03,-0.11 0.08,-0.2 0.16,-0.28 0.08,-0.08 0.17,-0.13 0.26,-0.17 0.17,-0.05 0.35,-0.05 0.54,0.02 0.18,0.06 0.36,0.18 0.52,0.34 0.19,0.2 0.37,0.46 0.48,0.78 0.05,0.15 0.12,0.42 0.18,0.69 0.04,0.21 0.07,0.41 0.07,0.55l0.05 0.35c0.13,-0.1 0.27,-0.22 0.27,-0.37l0 -0.02 0 -0.01c0.04,-0.12 0.05,-0.26 0.07,-0.39 0.02,-0.23 0.04,-0.45 0.17,-0.61 0.1,-0.14 0.25,-0.22 0.41,-0.25 0.14,-0.02 0.29,0 0.44,0.06 0.02,-0.02 0.04,-0.05 0.06,-0.07 0.03,-0.04 0.07,-0.08 0.11,-0.11l1.87 -2.45 0.02 -0.02c0.12,-0.16 0.24,-0.33 0.41,-0.44 0.09,-0.06 0.19,-0.1 0.29,-0.12 0.19,-0.05 0.37,-0.03 0.53,0.04 0.16,0.06 0.3,0.17 0.38,0.29 0.01,0.02 0.02,0.04 0.03,0.07 0.02,-0.02 0.04,-0.03 0.06,-0.05 0.06,-0.04 0.11,-0.08 0.19,-0.11 0.22,-0.08 0.45,-0.08 0.64,-0.01 0.2,0.07 0.36,0.22 0.45,0.41 0.23,0.49 0.03,0.76 -0.18,1.05 -0.02,0.03 -0.04,0.06 -0.06,0.08 -0.02,0.03 -0.04,0.05 -0.05,0.08 -0.03,0.03 -0.05,0.06 -0.07,0.1 0.07,0.02 0.15,0.05 0.21,0.1 0.12,0.08 0.2,0.19 0.26,0.31 0.06,0.13 0.1,0.3 0.09,0.45 -0.01,0.13 -0.05,0.25 -0.14,0.33 -0.04,0.11 -0.13,0.25 -0.22,0.39l-0.03 0.03c0.29,-0.2 0.67,-0.44 0.82,-0.48 0.07,-0.01 0.13,-0.02 0.19,-0.02 0.23,0 0.43,0.07 0.59,0.19 0.16,0.12 0.27,0.29 0.31,0.48l0 0.01c0.12,-0.04 0.24,-0.06 0.36,-0.06 0.16,0 0.31,0.05 0.45,0.14 0.11,0.08 0.21,0.18 0.28,0.3 0.06,0.13 0.1,0.28 0.1,0.47l0 0c-0.01,0.12 -0.05,0.24 -0.1,0.33 -0.07,0.13 -0.17,0.23 -0.26,0.3 -0.03,0.03 -0.09,0.07 -0.16,0.12 -0.09,0.06 -0.18,0.13 -0.25,0.18 0.05,0.04 0.09,0.07 0.13,0.11 0.06,0.07 0.11,0.15 0.15,0.26 0.11,0.33 0.03,0.59 -0.14,0.81 -0.15,0.18 -0.37,0.34 -0.57,0.47l0.02 0.06c0.07,0.1 0.09,0.24 0.09,0.39 0,0.17 -0.04,0.35 -0.1,0.49 -0.08,0.16 -0.26,0.36 -0.46,0.55 -0.19,0.18 -0.4,0.34 -0.54,0.46l-1.04 0.94c-0.07,0.07 -0.12,0.1 -0.17,0.15 -0.03,0.02 -0.06,0.05 -0.1,0.08 -0.03,0.03 -0.06,0.06 -0.09,0.09 -0.05,0.04 -0.09,0.08 -0.16,0.14l-0.76 0.71c-0.23,0.2 -0.54,0.45 -0.86,0.68 -0.32,0.23 -0.65,0.44 -0.92,0.54l-0.03 0.01c-0.11,0.05 -0.2,0.08 -0.3,0.14 -0.08,0.04 -0.59,0.47 -1.02,0.84 -0.26,0.22 -0.49,0.41 -0.59,0.5 -0.28,0.21 -0.49,0.39 -0.64,0.53 -0.23,0.19 -0.35,0.3 -0.46,0.33 -0.17,0.06 -0.25,-0.03 -0.43,-0.25 -0.02,-0.03 -0.05,-0.07 -0.09,-0.12 -0.04,-0.04 -0.07,-0.08 -0.1,-0.12 -0.02,-0.04 -0.04,-0.07 -0.07,-0.1l-0.49 -0.62c-0.05,-0.07 -0.1,-0.14 -0.16,-0.21 -0.06,-0.08 -0.11,-0.14 -0.16,-0.21 -0.06,-0.07 -0.12,-0.16 -0.19,-0.24 -0.05,-0.06 -0.1,-0.13 -0.14,-0.18 -0.21,-0.26 -0.34,-0.43 -0.45,-0.57 -0.31,-0.38 -0.46,-0.57 -0.51,-0.7 -0.06,-0.14 -0.01,-0.21 0.08,-0.34 0.05,-0.06 0.11,-0.14 0.17,-0.26l0.4 -0.74 0.02 -0.03c0.04,-0.08 0.06,-0.13 0.11,-0.21l0.02 -0.04c0,0 0,0.01 0,0l0 0c0.08,-0.13 0.17,-0.27 0.16,-0.47 -0.01,-0.18 -0.07,-0.53 -0.14,-0.92 -0.1,-0.57 -0.22,-1.24 -0.22,-1.66 -0.07,-0.19 -0.07,-0.74 -0.07,-1.06zm5.16 -2.3l0 0 0.3 -0.41 0.96 -1.39c0.05,-0.06 0.08,-0.1 0.11,-0.15l0 0c0.04,-0.06 0.08,-0.12 0.13,-0.19l0.23 -0.35c0.02,-0.06 0.02,-0.13 -0.01,-0.2 -0.01,-0.04 -0.04,-0.08 -0.07,-0.11 -0.03,-0.03 -0.07,-0.06 -0.11,-0.07 -0.07,-0.03 -0.15,-0.03 -0.23,0 -0.13,0.05 -0.84,1.02 -1,1.23l-0.02 0.03c-0.1,0.13 -0.18,0.24 -0.27,0.35 -0.08,0.1 -0.17,0.21 -0.25,0.31l0 0.01 -0.5 0.64c-0.06,0.08 -0.12,0.15 -0.18,0.23 -0.05,0.07 -0.11,0.15 -0.17,0.22 0.07,0.07 0.13,0.18 0.18,0.29 0.07,0.19 0.12,0.41 0.15,0.59l0 0.01 0 0.04c0.12,-0.21 0.31,-0.47 0.45,-0.66 0.07,-0.09 0.12,-0.16 0.15,-0.2l0.02 -0.02c0.04,-0.07 0.07,-0.12 0.13,-0.2zm-0.47 1.59c-0.09,0.04 -0.19,0.03 -0.29,-0.07 -0.02,0.45 -0.08,0.71 -0.13,0.95 -0.03,0.13 -0.05,0.24 -0.07,0.38 0.21,-0.07 0.41,-0.19 0.6,-0.3 0.08,-0.05 0.16,-0.1 0.24,-0.13l0 -0.01c0.05,-0.02 0.21,-0.12 0.35,-0.22 0.02,-0.01 0.04,-0.02 0.06,-0.04l-0.02 0c-0.01,0 -0.02,-0.01 -0.05,-0.01l-0.05 -0.01 -0.01 -0.06c-0.01,-0.02 -0.01,-0.04 -0.02,-0.06 -0.03,-0.15 -0.05,-0.2 0.07,-0.36l1.3 -1.84c0.1,-0.13 0.19,-0.26 0.27,-0.38 0.07,-0.09 0.13,-0.19 0.19,-0.26l0.46 -0.65c0.02,-0.03 0.05,-0.07 0.08,-0.11 0.19,-0.24 0.54,-0.7 0.51,-0.87 0,-0.05 -0.03,-0.1 -0.06,-0.14 -0.04,-0.04 -0.08,-0.07 -0.14,-0.08 -0.19,-0.04 -0.29,0.1 -0.41,0.29 -0.04,0.05 -0.07,0.1 -0.11,0.15 -0.04,0.06 -0.08,0.11 -0.12,0.16 -0.03,0.06 -0.07,0.11 -0.11,0.17 -0.04,0.05 -0.08,0.1 -0.12,0.16 -0.03,0.05 -0.07,0.1 -0.11,0.16l-0.91 1.28 -1.14 1.63 0 0c-0.08,0.11 -0.16,0.22 -0.26,0.27zm7.76 -3.25c0.32,0 0.41,0.04 0.41,0.35 0,0.22 -0.22,0.26 -0.45,0.26 -0.04,0 -0.09,0 -0.14,0 -0.04,0 -0.08,-0.01 -0.12,-0.01l-1.5 0c-0.03,0 -0.06,0.01 -0.1,0.01 -0.06,0 -0.12,0.01 -0.17,0 -0.17,0 -0.3,-0.06 -0.29,-0.29 0.01,-0.31 0.37,-0.3 0.79,-0.28 0.19,0.01 0.39,0.02 0.57,0 0.12,-0.02 0.23,-0.02 0.35,-0.03 0.12,0 0.25,0 0.39,0 0.05,0 0.1,0 0.15,0l0.11 -0.01zm-2.87 -0.73c-0.13,0 -0.35,0 -0.35,-0.28l0 -0.02 1.01 -2.06 0 0c0.07,-0.14 0.16,-0.21 0.25,-0.23 0.05,-0.01 0.1,0 0.14,0.01 0.04,0.02 0.08,0.05 0.11,0.08 0.07,0.08 0.1,0.18 0.07,0.29 -0.02,0.07 -0.07,0.16 -0.11,0.24 -0.02,0.03 -0.03,0.06 -0.05,0.08 -0.07,0.16 -0.06,0.14 -0.21,0.43l0 0 -0.42 0.83c-0.01,0.02 -0.02,0.06 -0.04,0.1 -0.09,0.2 -0.24,0.53 -0.4,0.53l0 0zm-2.28 2.31l-1.31 1.87c0.29,-0.19 0.69,-0.46 0.94,-0.63 0.1,-0.07 0.18,-0.12 0.21,-0.14l0 0c0.16,-0.1 0.16,-0.11 0.23,-0.23l0.04 -0.06 0 0 0.72 -1.13c0.02,-0.02 0.03,-0.04 0.04,-0.06 0.08,-0.11 0.17,-0.25 0.08,-0.4 0,-0.01 -0.01,-0.02 -0.02,-0.03 -0.04,-0.04 -0.09,-0.06 -0.14,-0.07 -0.05,-0.01 -0.1,0 -0.15,0.03 -0.01,0.01 -0.03,0.02 -0.04,0.04 -0.07,0.06 -0.18,0.22 -0.29,0.38 -0.1,0.16 -0.22,0.33 -0.31,0.43zm2.46 -1.9c-0.01,-0.02 -0.01,-0.05 -0.01,-0.08 0,-0.16 0.12,-0.23 0.23,-0.29 0.02,-0.01 0.04,-0.02 0.06,-0.03l1.48 -0.89c0.05,-0.03 0.1,-0.06 0.15,-0.09 0.05,-0.03 0.1,-0.05 0.15,-0.09 0.28,-0.19 0.29,-0.19 0.52,-0.13l0.08 0.02 0.05 0.26 0 0.01c0,0.18 -0.85,0.66 -1.19,0.85 -0.07,0.04 -0.11,0.06 -0.12,0.07 -0.32,0.15 -0.71,0.41 -1.02,0.6l-0.01 0c-0.03,0.01 -0.05,0.01 -0.07,0.01 -0.06,0 -0.12,-0.02 -0.18,-0.05 -0.05,-0.04 -0.1,-0.09 -0.12,-0.17z"/>
 </g>
</svg>
