<?xml version="1.0" encoding="UTF-8"?>
<!DOCTYPE svg PUBLIC "-//W3C//DTD SVG 1.1//EN" "http://www.w3.org/Graphics/SVG/1.1/DTD/svg11.dtd">
<!-- Creator: CorelDRAW 2020 (64 Bit) -->
<svg xmlns="http://www.w3.org/2000/svg" xml:space="preserve" width="200px" height="200px" version="1.1" style="shape-rendering:geometricPrecision; text-rendering:geometricPrecision; image-rendering:optimizeQuality; fill-rule:evenodd; clip-rule:evenodd"
viewBox="0 0 22.8 22.8"
 xmlns:xlink="http://www.w3.org/1999/xlink"
 xmlns:xodm="http://www.corel.com/coreldraw/odm/2003">
 <defs>
  <style type="text/css">
   <![CDATA[
    .fil0 {fill:none}
    .fil1 {fill:url(#id0)}
   ]]>
  </style>
  <linearGradient id="id0" gradientUnits="userSpaceOnUse" x1="4.7" y1="11.4" x2="18.11" y2="11.4">
   <stop offset="0" style="stop-opacity:1; stop-color:#FF5C77"/>
   <stop offset="1" style="stop-opacity:1; stop-color:#0097A7"/>
  </linearGradient>
 </defs>
 <g id="Camada_x0020_1">
  <metadata id="CorelCorpID_0Corel-Layer"/>
  <rect class="fil0" width="22.8" height="22.8"/>
  <path class="fil1" d="M15.4 18.11l-10.14 0 0 -0.03 -0.16 -0.06 -0.14 -0.11 -0.01 0c-0.03,-0.02 -0.07,-0.08 -0.1,-0.13 -0.04,-0.05 -0.07,-0.1 -0.08,-0.14l0 0c0,-0.01 0,-0.01 0,0 -0.01,-0.03 -0.02,-0.05 -0.02,-0.06 -0.01,-0.01 -0.02,-0.03 -0.03,-0.09l0 -0.02c0,-0.03 0,-0.04 -0.01,-0.07 -0.01,-0.02 -0.01,-0.45 -0.01,-0.99 -0.01,-0.89 0,-2.08 0,-2.2 0,-0.06 0.03,-0.13 0.05,-0.19 0.01,-0.03 0.02,-0.05 0.03,-0.08l0 0 0.27 -0.64c0,-0.02 0.01,-0.02 0.01,-0.03l0 0c0,0 0,0 0.01,-0.01 0.01,-0.04 0.02,-0.06 0.03,-0.07 0,-0.01 0.01,-0.02 0.01,-0.02 0,-0.01 0,-0.01 0,-0.01 0,-0.01 0.01,-0.02 0.01,-0.04 0.01,-0.03 0.02,-0.05 0.03,-0.07 0.04,-0.1 0.07,-0.2 0.12,-0.29l0.02 -0.02c0,-0.02 0.01,-0.03 0.02,-0.05 0.08,-0.21 0.16,-0.41 0.25,-0.62l0 0 0.11 -0.28 0.01 0c0.01,-0.03 0.02,-0.07 0.03,-0.1 0.01,-0.03 0.02,-0.06 0.04,-0.09 0.03,-0.07 0.03,-0.08 0.03,-0.19l0 0 0 0 0 0 0 -2.07 0 0c0,-0.06 0,-0.11 0,-0.16 -0.01,-0.28 -0.02,-0.51 0.18,-0.74 0.05,-0.05 0.1,-0.1 0.16,-0.15 0.05,-0.03 0.12,-0.07 0.18,-0.09 0.12,-0.04 0.28,-0.04 0.42,-0.03 0.03,0 0.06,0 0.09,0 0.05,0 0.09,0 0.13,0.02 0.05,0.01 0.09,0.04 0.12,0.09 0.02,0.04 0.03,0.08 0.04,0.12 0,0.05 -0.01,0.1 -0.03,0.14 -0.02,0.05 -0.06,0.08 -0.1,0.11 -0.04,0.02 -0.08,0.03 -0.12,0.04 -0.06,0 -0.12,0 -0.19,0 -0.06,0 -0.13,-0.01 -0.19,0l0 0c-0.02,0.01 -0.05,0.03 -0.07,0.05 -0.04,0.03 -0.06,0.07 -0.08,0.1 -0.03,0.07 -0.02,0.23 -0.02,0.36 0,0.05 0,0.09 0,0.11l0 0 0 0.11c0,0.42 0,1.86 0,1.91 0.01,0.03 0.01,-0.02 0.02,-0.02 0.01,0 0.02,0 0.04,0l0 0 7.66 0c0.03,0 0.09,0 0.14,0 0.11,0 0.23,0.01 0.31,0 0.01,-0.29 0.01,-1.61 0,-2.08 0,-0.13 0,-0.11 0,-0.17 0,-0.08 0,-0.14 -0.01,-0.19 -0.01,-0.05 -0.04,-0.09 -0.09,-0.13 -0.05,-0.05 -0.15,-0.05 -0.23,-0.05 -0.02,0 -0.03,0 -0.04,0l-3.48 0c-0.02,0 -0.03,0.01 -0.04,0.01 -0.08,0 -0.17,0 -0.25,-0.05l0 0 0 -0.01c-0.04,-0.03 -0.07,-0.06 -0.09,-0.11 -0.02,-0.04 -0.03,-0.08 -0.02,-0.15 0,-0.05 0.03,-0.1 0.06,-0.14 0.03,-0.03 0.07,-0.05 0.12,-0.07l0 0 0 0c0.08,-0.02 0.49,-0.01 0.89,-0.01 0.36,0.01 0.73,0.02 0.8,0.02 0,-0.07 0,-0.29 0,-0.52 0,-0.23 0,-0.45 0,-0.53 -0.1,-0.01 -0.44,-0.01 -0.69,0 -0.13,0 -0.24,0 -0.28,0 -0.05,0 -0.12,-0.02 -0.18,-0.04 -0.06,-0.02 -0.11,-0.05 -0.15,-0.08 -0.18,-0.18 -0.18,-0.25 -0.18,-0.52l0 0 0 -1.06c0,-0.03 0,-0.05 -0.01,-0.08 0,-0.12 0,-0.25 0.06,-0.36 0.01,-0.02 0.02,-0.03 0.03,-0.04 0,0 0,0 0,0 0.02,-0.02 0.03,-0.04 0.03,-0.05 0.05,-0.07 0.06,-0.09 0.2,-0.16l0 0c0.02,-0.02 0.04,-0.02 0.06,-0.02 0.01,-0.01 0.02,-0.01 0.03,-0.01l0.01 -0.02 3.57 0 0.01 0.01c0.02,0.01 0.02,0.01 0.03,0.02 0,0.01 0,0 0.02,0 0.05,0.02 0.11,0.05 0.16,0.1 0.05,0.04 0.1,0.1 0.12,0.14 0.03,0.06 0.03,0.07 0.04,0.09 0,0.01 0,0.03 0.01,0.05 0.03,0.09 0.02,0.42 0.02,0.61 0,0.03 0,0.05 0,0.09l0 0.7 0 0 0 0.01c0,0.12 0,0.23 -0.06,0.32l0 0.01c-0.03,0.05 -0.1,0.17 -0.18,0.2 -0.02,0.02 -0.05,0.04 -0.08,0.05 -0.02,0.01 -0.04,0.02 -0.07,0.02 -0.01,0.03 -0.02,0.03 -0.08,0.03 -0.1,0.01 -0.6,0.01 -0.89,0.01l-0.11 0 0 0.99 0.59 0c0.02,0 0.04,0 0.05,0 0.07,0 0.13,-0.01 0.17,0.03 0.14,0 0.26,0.08 0.34,0.13 0.02,0.02 0.04,0.03 0.04,0.03l0.04 0.01 0.01 0.05c0.02,0.02 0.04,0.04 0.07,0.07 0.03,0.05 0.07,0.11 0.08,0.15 0.04,0.08 0.04,0.1 0.05,0.14 0,0.02 0,0.04 0.01,0.07l0 0c0.01,0.88 0.02,1.76 0.02,2.63 0,0.07 0.01,0.09 0.02,0.13 0.01,0.01 0.02,0.03 0.03,0.05 0.01,0.03 0.02,0.06 0.03,0.08l0 0c0.01,0.04 0.02,0.07 0.04,0.1l0 0 0.05 0.14c0.01,-0.01 0.02,-0.01 0.04,-0.02 0.15,-0.04 0.31,-0.07 0.47,-0.09 0.14,-0.02 0.28,-0.02 0.4,0 0.03,0.01 0.05,0.01 0.07,0.01l0 0c0.02,0 0.03,0 0.05,0 0.03,0.01 0.05,0.01 0.06,0.02 0.01,0 0.02,0.01 0.05,0.01 0.1,0 0.2,0.03 0.29,0.06 0.09,0.03 0.17,0.08 0.25,0.11 0.01,0.01 0.02,0.01 0.02,0.01l0.01 0c0.02,0.02 0.06,0.03 0.08,0.05 0.03,0.03 0.06,0.07 0.08,0.13 0.01,0.04 0.02,0.09 0,0.14 0,0.02 -0.01,0.03 -0.01,0.05 -0.04,0.06 -0.09,0.1 -0.15,0.12 -0.06,0.02 -0.12,0.02 -0.17,0.01 -0.01,0 -0.02,-0.01 -0.03,-0.01l-0.39 -0.15c-0.02,0 -0.04,-0.01 -0.05,-0.01 -0.01,-0.01 -0.02,-0.01 -0.05,-0.01 -0.04,0 -0.07,-0.01 -0.1,-0.01 -0.05,-0.01 -0.09,-0.01 -0.15,-0.01 -0.06,0 -0.14,0 -0.22,0.01 -0.05,0 -0.1,0.01 -0.14,0.02 -0.02,0.01 -0.05,0.01 -0.09,0.02 -0.07,0.02 -0.16,0.04 -0.22,0.06l-0.32 0.17 -0.23 0.17 -0.29 0.36c-0.02,0.02 -0.05,0.08 -0.08,0.14 -0.05,0.1 -0.1,0.21 -0.1,0.23l-0.04 0.17c0,0.02 0,0.03 -0.01,0.04 0,0 0,0 0,0.01 0,0.02 0,0.04 -0.01,0.07 0,0.02 0,0.04 0,0.06 -0.01,0.09 -0.01,0.18 -0.01,0.27 0.01,0.09 0.02,0.18 0.04,0.27 0.01,0.06 0.04,0.13 0.06,0.19 0.02,0.04 0.03,0.09 0.04,0.12 0.01,0.05 0.06,0.13 0.12,0.22 0.08,0.12 0.18,0.24 0.24,0.29l0.01 0.01c0.01,0.01 0.02,0.02 0.03,0.03 0.06,0.05 0.15,0.14 0.19,0.17l0.29 0.15c0.02,0.01 0.03,0.01 0.05,0.02 0.03,0.01 0.06,0.02 0.08,0.03 0.01,0.01 0.04,0.02 0.06,0.02 0.02,0.01 0.04,0.02 0.06,0.02 0.07,0.03 0.15,0.04 0.23,0.05l0.06 0c0.12,0.01 0.21,0.02 0.33,0 0.02,0 0.04,-0.01 0.05,-0.01 0.1,-0.01 0.28,-0.05 0.31,-0.07 0.03,-0.02 0.07,-0.03 0.12,-0.05 0.04,-0.02 0.09,-0.04 0.13,-0.06l0.05 -0.03c0.13,-0.07 0.2,-0.11 0.32,-0.24l0.14 -0.14c0.07,-0.07 0.15,-0.2 0.22,-0.34 0.06,-0.13 0.11,-0.26 0.13,-0.35 0,-0.03 0.01,-0.05 0.01,-0.06 0.01,-0.01 0.01,-0.03 0.01,-0.05 0.01,-0.04 0.01,-0.06 0.02,-0.09 0,-0.03 0.01,-0.06 0.01,-0.14 0,-0.15 -0.01,-0.25 -0.02,-0.35 -0.02,-0.1 -0.05,-0.2 -0.1,-0.34l-0.06 -0.13 0 0c-0.02,-0.07 -0.08,-0.15 -0.14,-0.23 -0.05,-0.06 -0.09,-0.11 -0.1,-0.15 -0.02,-0.08 -0.01,-0.15 0.01,-0.21 0.02,-0.03 0.05,-0.06 0.07,-0.08 0.03,-0.02 0.06,-0.04 0.1,-0.05 0.06,-0.02 0.14,-0.01 0.19,0.02 0.05,0.02 0.08,0.06 0.11,0.1 0.01,0.01 0.01,0.03 0.02,0.04 0.04,0.03 0.06,0.07 0.08,0.11 0.01,0.02 0.02,0.04 0.04,0.06 0.03,0.04 0.05,0.08 0.06,0.12 0.01,0.01 0.02,0.03 0.02,0.04 0.01,0 0,0 0,0l0 0c0.03,0.02 0.03,0.02 0.04,0.06 0.02,0.04 0.04,0.08 0.06,0.14 0.03,0.09 0.06,0.2 0.07,0.24 0,0.03 0.01,0.05 0.01,0.07 0.02,0.04 0.03,0.08 0.04,0.18 0,0.03 0,0.05 0.01,0.07 0,0.03 0.01,0.07 0.01,0.12 0.01,0.35 -0.02,0.43 -0.04,0.49 0,0.01 -0.01,0.03 -0.01,0.05 0,0.05 -0.01,0.07 -0.02,0.1l0 0c0,0.01 0,0.02 -0.01,0.04l0 0.01c0,0.02 -0.01,0.02 -0.01,0.03l0 0c0,0.01 -0.01,0.02 -0.01,0.02 -0.01,0.05 -0.03,0.15 -0.07,0.22l0 0 -0.01 0.02c-0.04,0.09 -0.12,0.26 -0.17,0.32 -0.02,0.02 -0.03,0.05 -0.05,0.07 -0.02,0.04 -0.04,0.07 -0.07,0.11 -0.05,0.05 -0.1,0.12 -0.17,0.19 -0.06,0.06 -0.12,0.13 -0.18,0.17 -0.07,0.05 -0.13,0.09 -0.18,0.13 -0.06,0.04 -0.12,0.07 -0.2,0.11 -0.01,0.01 -0.02,0.01 -0.03,0.02l-0.02 0.02c-0.1,0.06 -0.16,0.07 -0.21,0.09 -0.03,0 -0.07,0.01 -0.11,0.03 -0.01,0.01 -0.02,0.02 -0.04,0.02l-0.01 0.01c-0.03,0 -0.18,0.03 -0.3,0.05 -0.1,0.01 -0.2,0.02 -0.24,0.02 -0.14,0 -0.27,-0.01 -0.4,-0.03 -0.13,-0.02 -0.25,-0.05 -0.38,-0.09 0,0.08 0,0.16 0,0.24 0.01,0.17 0.02,0.35 -0.05,0.5 -0.16,0.32 -0.44,0.31 -0.74,0.3 -0.06,0 -0.11,-0.01 -0.17,-0.01l-7.85 0c-0.04,0 -0.06,0.01 -0.08,0.01 -0.18,0 -0.35,0 -0.5,-0.14l0 -0.01 -0.14 -0.21 -0.01 -0.01c-0.03,-0.09 -0.03,-0.17 -0.03,-0.26 0,-0.01 0,-0.02 0,-0.06l0.01 0 0 -1.16c0,-0.09 0.02,-0.15 0.05,-0.21l0 0 0 -0.01c0.04,-0.09 0.08,-0.12 0.13,-0.15 0,-0.01 0.01,-0.02 0.03,-0.03 0.05,-0.05 0.12,-0.08 0.19,-0.1 0.06,-0.01 0.13,-0.02 0.2,-0.02l5.06 0 0 0c0.22,0 0.54,0 0.86,0.01 0.56,0 1.12,0 1.67,-0.01l-0.01 -0.05c-0.03,-0.08 -0.06,-0.17 -0.08,-0.21 -0.01,-0.02 -0.01,-0.04 -0.01,-0.06 0,-0.01 -0.01,-0.03 -0.01,-0.05l-8.47 0c0,0.09 0,0.2 0,0.3 0,0.06 0,0.12 0,0.16l0 2.12c0,0.03 0,0.06 0,0.1 0,0.1 -0.01,0.22 0.04,0.3 0.07,0.14 0.19,0.14 0.32,0.13 0.03,0 0.02,0 0.04,0l9.56 0 0.07 0c0.09,0.01 0.11,0.01 0.22,-0.06 0.02,-0.02 0.04,-0.05 0.06,-0.08 0.02,-0.04 0.02,-0.1 0.02,-0.14 0,-0.02 0,-0.05 0,-0.08 0,-0.15 -0.01,-0.39 0.04,-0.47 0.02,-0.03 0.05,-0.05 0.08,-0.07 0.05,-0.03 0.1,-0.05 0.15,-0.05 0.05,0 0.1,0.02 0.15,0.05 0.03,0.02 0.05,0.05 0.07,0.08 0.03,0.05 0.05,0.19 0.05,0.35 0,0.2 -0.02,0.43 -0.04,0.47 -0.01,0.02 -0.02,0.04 -0.03,0.06 -0.02,0.04 -0.04,0.07 -0.07,0.12 -0.03,0.05 -0.08,0.11 -0.14,0.16 -0.06,0.05 -0.12,0.09 -0.17,0.11l-0.04 0.02c-0.05,0.02 -0.08,0.03 -0.15,0.04l-0.01 0.02 -0.04 0zm2.47 -5.04l0 0 0 0c0,0 0,0 0,0l0 0zm-3.76 2.32c-0.01,-0.01 -0.02,-0.02 -0.04,-0.02l-7.9 0c-0.02,0 -0.03,0 -0.04,0l0 1.28 0 0c0,0.02 -0.01,0.03 0,0.03 0,0 0.01,0 0.03,0l8.46 0c0.01,0 0,0 0.01,0 0.01,0 0,0 0.01,0 0,-0.01 0,-0.01 0.01,-0.01 0,-0.01 0,-0.02 0,-0.03l0 -0.71 0 0 0 -0.01c0,-0.01 0,-0.01 -0.03,-0.03 -0.06,-0.04 -0.16,-0.12 -0.26,-0.21 -0.08,-0.07 -0.15,-0.14 -0.18,-0.18 -0.02,-0.04 -0.05,-0.07 -0.07,-0.11zm-3.56 0.9l-0.32 0c-0.11,0 -0.19,-0.05 -0.24,-0.12 -0.03,-0.03 -0.04,-0.07 -0.05,-0.12 0,-0.04 0,-0.08 0.02,-0.12 0.02,-0.07 0.08,-0.14 0.18,-0.16 0.03,-0.01 0.14,-0.01 0.25,-0.01 0.12,0 0.23,0 0.27,0.01 0,0 0.01,0 0.01,0 0.01,0 0.02,0.01 0.03,0.01l0 0c0.01,0.01 0.02,0.01 0.02,0.02 0,0 0.01,0.01 0.02,0.02l0 0c0.04,0.03 0.07,0.08 0.09,0.14 0.01,0.05 0,0.1 -0.01,0.15 -0.02,0.05 -0.05,0.09 -0.09,0.13 -0.05,0.03 -0.11,0.05 -0.18,0.05zm-0.78 -2.74l-0.37 0c-0.06,0 -0.11,-0.01 -0.15,-0.04 -0.04,-0.02 -0.07,-0.06 -0.1,-0.11 -0.01,-0.03 -0.03,-0.1 -0.02,-0.15 0.01,-0.05 0.02,-0.1 0.06,-0.14 0.06,-0.05 0.07,-0.05 0.1,-0.06 0.01,0 0.01,0 0.02,-0.01 0.01,0 0.02,0 0.02,0 0.02,-0.01 0.03,-0.02 0.08,-0.02l0 0 0.33 0c0.05,0 0.09,0.01 0.12,0.02 0.03,0.01 0.06,0.02 0.09,0.05l0 0c0.01,0 0.01,0.01 0.02,0.02l0 0c0.04,0.04 0.07,0.1 0.07,0.16 0,0.07 -0.01,0.13 -0.06,0.19 -0.01,0 -0.01,0.01 -0.02,0.01l0 0c-0.03,0.03 -0.05,0.05 -0.08,0.06 -0.03,0.01 -0.06,0.02 -0.11,0.02zm3.21 0l-0.36 0c-0.05,0 -0.08,-0.01 -0.11,-0.02 -0.04,-0.01 -0.06,-0.03 -0.09,-0.05 -0.03,-0.04 -0.06,-0.08 -0.07,-0.14 -0.01,-0.04 -0.01,-0.09 0.01,-0.14 0.01,-0.05 0.05,-0.09 0.1,-0.13 0.04,-0.03 0.1,-0.05 0.18,-0.05 0.03,0 0.04,0 0.06,0 0.11,0 0.33,0 0.38,0.02 0.04,0.01 0.06,0.02 0.09,0.04 0.02,0.03 0.04,0.05 0.06,0.1 0.05,0.11 0.05,0.11 0.02,0.18 -0.01,0.01 -0.01,0.02 -0.02,0.03 -0.02,0.05 -0.05,0.09 -0.09,0.12 -0.05,0.03 -0.1,0.04 -0.16,0.04zm-2.24 -0.3c0.01,-0.15 0.13,-0.19 0.17,-0.21 0,0 0.01,0 0.02,0l0 0c0,-0.01 0.01,-0.01 0.02,-0.01l0.01 0c0.14,0 0.28,-0.01 0.42,-0.01 0.11,0.01 0.18,0.05 0.23,0.11 0.02,0.04 0.04,0.08 0.04,0.12 0.01,0.05 0,0.09 -0.01,0.13 -0.03,0.07 -0.08,0.13 -0.17,0.16 -0.05,0.01 -0.16,0.01 -0.25,0.01 -0.01,0 -0.03,0 -0.06,0 -0.02,0 -0.03,0 -0.04,0 -0.04,0 -0.09,0 -0.13,0 -0.14,-0.02 -0.28,-0.08 -0.25,-0.3zm0.62 -0.56l-0.34 0c-0.04,0 -0.08,0 -0.11,-0.01 -0.03,-0.01 -0.05,-0.03 -0.08,-0.05 -0.01,-0.01 -0.02,-0.01 -0.02,-0.02 -0.05,-0.05 -0.07,-0.11 -0.07,-0.18 0,-0.06 0.02,-0.13 0.06,-0.18 0.01,-0.01 0.01,-0.01 0.02,-0.02 0.02,-0.02 0.04,-0.03 0.07,-0.04l0.01 -0.01 0 0c0.05,-0.03 0.28,-0.02 0.41,-0.02 0.02,0 0.04,0 0.06,0 0.07,0 0.13,0.02 0.18,0.06 0.04,0.03 0.07,0.07 0.09,0.12 0.01,0.05 0.02,0.1 0,0.15 -0.01,0.05 -0.04,0.1 -0.08,0.14 -0.03,0.02 -0.06,0.04 -0.09,0.05 -0.03,0.01 -0.06,0.01 -0.11,0.01zm-3.2 0.86l-0.37 0c-0.03,0 -0.08,-0.01 -0.11,-0.02 -0.04,-0.01 -0.07,-0.03 -0.1,-0.06 -0.03,-0.04 -0.04,-0.08 -0.05,-0.11 -0.02,-0.06 -0.02,-0.11 0,-0.16 0.01,-0.04 0.04,-0.08 0.08,-0.11 0.03,-0.03 0.06,-0.04 0.09,-0.05 0.08,-0.02 0.24,-0.02 0.36,-0.02 0.02,0 0.04,0 0.07,0 0.05,0 0.09,0.01 0.12,0.02l0 0c0.04,0.01 0.07,0.02 0.1,0.05l0 0c0.04,0.04 0.07,0.08 0.08,0.13 0.02,0.05 0.01,0.11 0,0.15 -0.02,0.05 -0.05,0.09 -0.1,0.13 -0.04,0.03 -0.1,0.05 -0.17,0.05zm-0.29 -0.86c-0.02,0 -0.04,0 -0.07,0 -0.08,0 -0.15,-0.03 -0.19,-0.07 -0.06,-0.05 -0.09,-0.11 -0.09,-0.19 0,-0.06 0.02,-0.11 0.04,-0.15 0.03,-0.04 0.07,-0.07 0.11,-0.1l0 0c0.06,-0.02 0.3,-0.02 0.43,-0.02 0.02,0 0.03,0 0.06,0 0.09,0 0.16,0.04 0.21,0.09 0.03,0.03 0.05,0.07 0.06,0.12 0.01,0.04 0.01,0.09 0,0.13 -0.03,0.07 -0.07,0.13 -0.15,0.17 -0.06,0.03 -0.29,0.02 -0.41,0.02zm5.1 0l-0.34 0 0 0c-0.1,0 -0.18,-0.04 -0.22,-0.09 -0.03,-0.02 -0.04,-0.05 -0.05,-0.08 -0.02,-0.03 -0.02,-0.06 -0.02,-0.09 0,-0.07 0.03,-0.15 0.08,-0.2 0.03,-0.02 0.06,-0.04 0.09,-0.05 0.03,-0.01 0.07,-0.02 0.11,-0.02l0.36 0c0.13,0 0.22,0.07 0.26,0.16 0.02,0.03 0.02,0.07 0.02,0.11 0,0.03 0,0.07 -0.02,0.1 -0.04,0.09 -0.13,0.16 -0.27,0.16zm-3.5 0c-0.02,0 -0.03,0 -0.06,0 -0.09,0 -0.16,-0.02 -0.21,-0.06 -0.05,-0.05 -0.08,-0.12 -0.08,-0.21 0,-0.06 0.02,-0.1 0.05,-0.14 0.03,-0.05 0.08,-0.08 0.13,-0.1 0.05,-0.02 0.28,-0.02 0.4,-0.02 0.02,0 0.03,0 0.06,0 0.04,0 0.08,0.01 0.11,0.02 0.04,0.01 0.07,0.03 0.1,0.06 0.02,0.02 0.04,0.05 0.06,0.09 0.02,0.04 0.02,0.09 0.01,0.14 0,0.05 -0.03,0.1 -0.07,0.14 -0.03,0.03 -0.06,0.05 -0.1,0.07 -0.05,0.02 -0.28,0.01 -0.4,0.01zm-0.66 -3.08l-0.42 0c-0.05,0 -0.08,0 -0.11,0 -0.04,-0.01 -0.06,-0.03 -0.1,-0.06 -0.04,-0.03 -0.07,-0.08 -0.08,-0.14 -0.01,-0.04 -0.01,-0.09 0,-0.14 0.02,-0.05 0.05,-0.1 0.09,-0.13 0.05,-0.03 0.11,-0.05 0.18,-0.05l0.45 0c0.05,0 0.1,0.01 0.14,0.03 0.04,0.02 0.08,0.05 0.1,0.09 0.03,0.04 0.04,0.09 0.04,0.14 0,0.04 0,0.08 -0.03,0.12 -0.02,0.06 -0.06,0.09 -0.11,0.12 -0.05,0.02 -0.1,0.02 -0.15,0.02zm-0.35 -0.92c-0.02,0 -0.05,0 -0.09,0 -0.05,0 -0.1,-0.01 -0.14,-0.03 -0.05,-0.03 -0.09,-0.06 -0.11,-0.1 -0.02,-0.04 -0.03,-0.09 -0.03,-0.13 0,-0.04 0.01,-0.08 0.02,-0.12 0.04,-0.06 0.07,-0.1 0.12,-0.12 0.04,-0.02 0.08,-0.02 0.15,-0.02l0.43 0c0.05,0 0.09,0 0.12,0.01 0.03,0.01 0.06,0.03 0.09,0.06 0.04,0.03 0.06,0.06 0.07,0.1 0.02,0.05 0.02,0.1 0,0.15 -0.01,0.04 -0.03,0.08 -0.06,0.11 -0.03,0.04 -0.07,0.06 -0.11,0.07 -0.08,0.03 -0.31,0.02 -0.46,0.02zm0.35 -0.93l-0.43 0c-0.1,0 -0.18,-0.04 -0.22,-0.09 -0.03,-0.03 -0.04,-0.06 -0.05,-0.09 -0.01,-0.03 -0.02,-0.06 -0.02,-0.09 0,-0.07 0.03,-0.14 0.08,-0.19 0.03,-0.03 0.06,-0.04 0.09,-0.05 0.03,-0.01 0.06,-0.02 0.11,-0.02l0.45 0c0.05,0 0.08,0.01 0.12,0.02 0.03,0.01 0.06,0.03 0.09,0.06 0.04,0.05 0.07,0.12 0.07,0.19l0 0c0,0.04 0,0.07 -0.01,0.1l0 0c-0.02,0.03 -0.04,0.06 -0.06,0.08 -0.05,0.05 -0.12,0.08 -0.22,0.08zm5.2 -1.58l0 0 -2.4 0c-0.1,0 -0.17,-0.04 -0.22,-0.09 -0.02,-0.02 -0.04,-0.05 -0.05,-0.08 -0.01,-0.04 -0.02,-0.07 -0.02,-0.1 0,-0.07 0.03,-0.14 0.09,-0.2 0.03,-0.03 0.06,-0.04 0.09,-0.05 0.03,-0.01 0.07,-0.01 0.11,-0.01l2.38 0c0.05,0 0.08,0 0.11,0.01 0.03,0.01 0.06,0.03 0.09,0.06l0 0c0.06,0.06 0.09,0.13 0.09,0.2 0,0.07 -0.03,0.13 -0.07,0.18l-0.01 0.01c-0.03,0.03 -0.06,0.05 -0.09,0.06l0 0c-0.04,0.01 -0.07,0.01 -0.1,0.01zm1.78 8.48c0.02,0.01 0.05,0.02 0.09,0.02l0.06 -0.01c0.03,-0.02 0.06,-0.03 0.08,-0.06 0.02,-0.02 0.03,-0.04 0.04,-0.07 0,-0.1 -0.01,-0.12 -0.06,-0.16l-0.01 -0.01 0 0c-0.05,-0.04 -0.08,-0.04 -0.12,-0.05 -0.06,0 -0.13,0 -0.25,-0.05 -0.05,-0.02 -0.09,-0.04 -0.13,-0.07 -0.04,-0.02 -0.08,-0.05 -0.11,-0.09 -0.11,-0.11 -0.18,-0.26 -0.2,-0.41 -0.02,-0.14 0.01,-0.3 0.09,-0.43 0.04,-0.08 0.09,-0.14 0.15,-0.2 0.06,-0.05 0.12,-0.08 0.2,-0.12 0,-0.02 0,-0.03 0,-0.05 0,-0.1 0,-0.22 0.05,-0.29 0.03,-0.04 0.07,-0.08 0.13,-0.09 0.05,-0.02 0.1,-0.03 0.15,-0.01 0.21,0.06 0.2,0.22 0.2,0.39 0,0.02 0,0.03 0,0.05l0.01 0.01c0.03,0.01 0.05,0.02 0.08,0.04 0.04,0.02 0.08,0.05 0.11,0.08 0.04,0.03 0.07,0.06 0.1,0.1 0.05,0.06 0.09,0.14 0.11,0.22 0.03,0.07 0.04,0.15 0.03,0.23 0,0.1 -0.02,0.11 -0.07,0.16l-0.01 0.01c-0.04,0.04 -0.11,0.07 -0.17,0.08 -0.07,0 -0.13,-0.02 -0.18,-0.06 -0.08,-0.08 -0.09,-0.15 -0.09,-0.21 0,-0.03 -0.01,-0.05 -0.02,-0.07 -0.01,-0.03 -0.03,-0.06 -0.06,-0.08 -0.03,-0.02 -0.06,-0.03 -0.09,-0.03 -0.01,-0.01 -0.01,-0.01 -0.02,-0.01 -0.04,0 -0.08,0.02 -0.11,0.05 -0.04,0.03 -0.06,0.06 -0.07,0.11 0,0.01 0,0.02 0,0.02l0 0.02c0,0.01 0,0.03 0,0.04 0.01,0.02 0.02,0.04 0.04,0.06 0.02,0.02 0.04,0.04 0.06,0.05 0.04,0.02 0.06,0.02 0.1,0.03 0.06,0 0.15,0 0.32,0.08 0.05,0.02 0.08,0.04 0.12,0.07 0.03,0.03 0.05,0.06 0.08,0.1l0 0 0 0c0.12,0.16 0.17,0.22 0.17,0.45 0.01,0.14 -0.01,0.18 -0.04,0.24 -0.01,0.02 -0.02,0.04 -0.03,0.07 -0.01,0.03 -0.03,0.07 -0.06,0.1 -0.02,0.03 -0.05,0.06 -0.07,0.08l0 0c-0.1,0.1 -0.18,0.14 -0.23,0.17l-0.01 0c0,0.02 0,0.04 0,0.07 0,0.08 0,0.19 -0.02,0.22 0,0.02 -0.01,0.04 -0.02,0.05 -0.03,0.03 -0.07,0.07 -0.12,0.1 -0.06,0.02 -0.13,0.03 -0.2,0 -0.02,0 -0.04,-0.02 -0.07,-0.04 -0.12,-0.09 -0.12,-0.22 -0.11,-0.36 0,-0.01 0,-0.03 0,-0.04 -0.05,-0.03 -0.1,-0.06 -0.15,-0.09 -0.06,-0.05 -0.12,-0.1 -0.16,-0.16 -0.04,-0.05 -0.06,-0.11 -0.09,-0.17 -0.02,-0.07 -0.03,-0.14 -0.03,-0.2 -0.01,-0.07 0.01,-0.13 0.03,-0.17 0.03,-0.05 0.06,-0.08 0.1,-0.1 0.04,-0.02 0.08,-0.03 0.12,-0.03 0.04,-0.01 0.08,0 0.11,0.02 0.14,0.08 0.15,0.16 0.16,0.24 0,0.03 0,0.07 0.02,0.1 0.02,0.02 0.04,0.04 0.07,0.06zm-5.18 -4.32l0 -0.68c0,-0.12 0,-0.13 0.03,-0.22l0.01 -0.01c0.01,-0.03 0.03,-0.07 0.06,-0.11 0.03,-0.04 0.07,-0.09 0.1,-0.11l0.01 -0.01c0.02,-0.02 0.05,-0.03 0.08,-0.05 0.03,-0.01 0.07,-0.02 0.11,-0.03 0.03,-0.01 0.07,-0.02 0.11,-0.02 0.04,0 0.13,0 0.26,0 0.66,0 2.25,0 2.3,0.02 0.02,0.01 0.03,0.01 0.05,0.02 0.04,0.01 0.07,0.02 0.15,0.1 0.01,0 0.01,0 0.01,0 0.01,0.01 0.01,0.01 0.02,0.02 0.02,0.02 0.05,0.05 0.06,0.08 0.02,0.03 0.04,0.06 0.05,0.09l0 0c0.04,0.09 0.05,0.11 0.05,0.22l0 0 0 0.69c0,0.06 -0.01,0.11 -0.02,0.15 -0.01,0.04 -0.03,0.07 -0.05,0.12 -0.05,0.09 -0.11,0.16 -0.19,0.2 -0.09,0.05 -0.18,0.07 -0.28,0.07l-2.37 0c-0.17,0 -0.31,-0.05 -0.4,-0.14 -0.1,-0.1 -0.15,-0.23 -0.15,-0.4zm0.53 -0.7c-0.01,0.14 -0.01,0.34 0,0.51 0,0.07 0,0.13 0,0.18l0 0c0,0.02 -0.01,0.03 -0.01,0.03 0.01,0 0.01,0 0.03,0l0 0 2.38 -0.01c0,0 0,-0.01 0,-0.02l0 -0.66c0,-0.02 0,-0.03 -0.01,-0.03 0,0 0,0 -0.02,0l-2.35 0 0 0c-0.01,0 -0.02,0 -0.02,0zm-3.78 -1.88l-1.46 0 -0.01 -0.05c0,-0.01 0,0 0,0 -0.02,-0.02 -0.04,-0.03 -0.07,-0.07 -0.02,-0.03 -0.03,-0.05 -0.03,-0.08 -0.01,-0.02 -0.01,-0.05 -0.01,-0.09 0,-0.08 0,-0.15 0,-0.22l0 -0.12 0 0c0,-0.08 0,-0.13 0,-0.18 -0.01,-0.27 -0.01,-0.48 0.13,-0.75 0.04,-0.09 0.11,-0.17 0.18,-0.24 0.09,-0.08 0.19,-0.16 0.28,-0.21l0 0c0.06,-0.03 0.1,-0.04 0.13,-0.04l0 0c0.01,-0.01 0.02,-0.01 0.02,-0.01 0.08,-0.02 0.1,-0.02 0.12,-0.02 0,0 0.01,0 0.04,-0.01l0 0c0.05,-0.03 1.16,-0.02 1.62,-0.02 0.05,0 0.09,0 0.17,0 0.07,0 0.11,0 0.15,0 0.21,0 0.4,-0.01 0.59,0.07l0 0 0.06 0.02c0.11,0.04 0.22,0.11 0.31,0.2 0.1,0.1 0.19,0.22 0.24,0.34l0 0 0.06 0.2 0.01 0c0,0.03 0,0.04 0,0.05l0 0c0,0 0,0.01 0.01,0.05 0.02,0.03 0.02,0.07 0.02,0.11l0 0.02 0 3.63 0.02 0c0.08,0 0.16,0 0.2,0.03 0.02,0.01 0.01,0.01 0.02,0.01 0.07,0.05 0.15,0.1 0.15,0.24 0,0.06 -0.02,0.11 -0.05,0.15 -0.03,0.05 -0.07,0.08 -0.12,0.1 -0.05,0.02 -0.18,0.02 -0.26,0.01 -0.01,0 -0.02,0 -0.05,0l-2.39 0c-0.03,0 -0.04,0 -0.06,0 -0.09,0.01 -0.19,0.01 -0.26,-0.01l0 0c-0.08,-0.04 -0.12,-0.1 -0.14,-0.16 -0.01,-0.03 -0.02,-0.07 -0.02,-0.1 0.01,-0.03 0.01,-0.06 0.02,-0.09 0.03,-0.07 0.08,-0.12 0.15,-0.14 0.07,-0.02 0.14,-0.02 0.22,-0.02l0.01 0 0 -2.6zm0.51 -1.27l0.02 0.04 0 0.01c0.02,0.06 0.01,3.29 0.01,3.8l1.46 0 0 -3.51c0,-0.03 0,-0.06 0,-0.09 0,-0.06 0,-0.12 0,-0.16l0 -0.01c0,-0.02 -0.02,-0.07 -0.05,-0.13 -0.04,-0.06 -0.09,-0.13 -0.13,-0.15 -0.03,-0.03 -0.09,-0.06 -0.14,-0.08 -0.05,-0.02 -0.09,-0.03 -0.12,-0.03l-1.17 0c0.01,0.01 0.02,0.02 0.03,0.04 0,0.02 0.01,0.02 0.01,0.03 0.03,0.07 0.08,0.16 0.08,0.24zm-1.56 0.24l0 0.15c0,0.12 0,0.25 0,0.35 0.08,0.01 0.21,0.01 0.35,0.01 0.25,0 0.55,0 0.7,-0.01 0.01,-0.08 0.01,-0.22 0.01,-0.34 0,-0.12 -0.01,-0.22 -0.01,-0.24l-0.06 -0.21c-0.01,-0.02 -0.02,-0.03 -0.03,-0.05 -0.01,-0.01 -0.03,-0.03 -0.05,-0.05 -0.06,-0.05 -0.07,-0.06 -0.1,-0.08 -0.02,-0.01 -0.03,-0.02 -0.06,-0.03l-0.15 -0.05c-0.05,0 -0.11,0 -0.17,0.01 -0.05,0 -0.1,0.02 -0.13,0.03l-0.13 0.08c-0.06,0.05 -0.09,0.1 -0.12,0.16 0,0.01 -0.01,0.03 -0.02,0.04 -0.01,0.01 -0.01,0.04 -0.02,0.08 -0.01,0.05 -0.01,0.11 -0.01,0.15zm6.31 1.41l0.34 0 0.01 -1 -0.35 0 0 1zm-1.49 -2.88c0,0.09 0,0.25 0,0.42 0,0.31 -0.01,0.64 0,0.92l0.01 0c0.01,0.01 0.01,0.01 0.02,0.01l3.28 0c0.02,0 0.03,0 0.03,-0.01l0 0c0,0 0,-0.01 0,-0.03l0 -1.33c0,-0.01 0,-0.02 0,-0.02l-3.32 0c-0.02,0 -0.02,0.01 -0.02,0.03l0 0.01 0 0zm-5.78 8.68l8.33 0 0 0c0.01,0 -0.01,-0.01 -0.01,-0.03 0,-0.05 0,-0.11 0.02,-0.2 0,-0.03 0,-0.03 0.01,-0.04 0.01,-0.09 0.04,-0.21 0.06,-0.26 0,-0.02 0.01,-0.02 0.01,-0.03 0.01,-0.02 0.02,-0.04 0.02,-0.06 0.04,-0.1 0.07,-0.21 0.13,-0.3l0.17 -0.29 0.01 -0.02 0 0c0.01,-0.01 0.03,-0.02 0.03,-0.03 0.05,-0.07 0.07,-0.09 0.1,-0.12 0.01,-0.01 0.02,-0.02 0.04,-0.03 0.01,-0.01 0.01,-0.02 0.02,-0.03 0.01,0 0.01,-0.01 0.02,-0.02 0.03,-0.03 0.04,-0.04 0.05,-0.05 0.02,-0.01 0.03,-0.02 0.07,-0.07l0.01 -0.01c0.02,-0.02 0.11,-0.08 0.18,-0.13 0.03,-0.02 0.05,-0.04 0.07,-0.05 -0.02,-0.07 -0.09,-0.23 -0.13,-0.32l0 -0.01 -8.34 0c-0.01,0.02 -0.02,0.04 -0.03,0.07 -0.01,0.03 -0.02,0.06 -0.03,0.08l-0.41 0.98 0 0 -0.05 0.11c-0.02,0.05 -0.04,0.1 -0.06,0.16 -0.03,0.07 -0.06,0.15 -0.1,0.23l-0.17 0.41c0,0.01 -0.01,0.03 -0.02,0.05l0 0.01z"/>
 </g>
</svg>
