<?xml version="1.0" encoding="UTF-8"?>
<!DOCTYPE svg PUBLIC "-//W3C//DTD SVG 1.1//EN" "http://www.w3.org/Graphics/SVG/1.1/DTD/svg11.dtd">
<!-- Creator: CorelDRAW 2020 (64 Bit) -->
<svg xmlns="http://www.w3.org/2000/svg" xml:space="preserve" width="200px" height="200px" version="1.1" style="shape-rendering:geometricPrecision; text-rendering:geometricPrecision; image-rendering:optimizeQuality; fill-rule:evenodd; clip-rule:evenodd"
viewBox="0 0 29.77 29.77"
 xmlns:xlink="http://www.w3.org/1999/xlink"
 xmlns:xodm="http://www.corel.com/coreldraw/odm/2003">
 <defs>
  <style type="text/css">
   <![CDATA[
    .fil0 {fill:none}
    .fil1 {fill:url(#id0);fill-rule:nonzero}
   ]]>
  </style>
  <linearGradient id="id0" gradientUnits="userSpaceOnUse" x1="6.13" y1="14.88" x2="23.64" y2="14.88">
   <stop offset="0" style="stop-opacity:1; stop-color:#FF5C77"/>
   <stop offset="1" style="stop-opacity:1; stop-color:#0097A7"/>
  </linearGradient>
 </defs>
 <g id="Camada_x0020_1">
  <metadata id="CorelCorpID_0Corel-Layer"/>
  <rect class="fil0" width="29.77" height="29.77"/>
  <path class="fil1" d="M7.29 9.45c0,0.31 0.07,0.52 0.17,0.69 0.1,0.19 0.29,0.38 0.5,0.59 0.31,0.31 0.35,0.35 0.4,0.39 0.96,0.96 3.23,3.21 3.37,3.42l0.26 0.39 -2.15 2.18 0 0c-0.15,0.15 0,0 -0.14,0.14 -0.05,0.05 -0.11,0.1 -0.17,0.17 -0.03,0.03 -0.06,0.07 -0.09,0.11l0 0c-0.05,0.06 -0.09,0.12 -0.19,0.21 -0.07,0.08 -0.19,0.2 -0.35,0.35 -0.49,0.47 -1.29,1.25 -1.37,1.4 -0.16,0.26 -0.25,0.54 -0.24,0.81 0,0.2 0.07,0.38 0.22,0.54 0.15,0.15 0.29,0.29 0.43,0.43 0.17,0.17 0.18,0.18 0.26,0.26 0.05,0.04 0.15,0.15 0.25,0.25 0.34,0.36 0.66,0.7 1.05,0.7 0.28,0 0.49,-0.08 0.67,-0.18 0.2,-0.13 0.39,-0.31 0.57,-0.49l1.24 -1.24c0.16,-0.16 0.02,-0.02 0.26,-0.26 0.62,-0.61 2.08,-2.05 2.15,-2.15l0.32 -0.48 0.48 0.32c0.24,0.16 1.06,0.99 1.95,1.9 1.05,1.07 2.2,2.25 2.4,2.36 0.35,0.19 0.61,0.26 0.83,0.22 0.23,-0.05 0.47,-0.21 0.73,-0.47 0.06,-0.07 0.14,-0.14 0.24,-0.23 0.37,-0.36 0.96,-0.94 1.04,-1.12 0.11,-0.25 0.12,-0.49 0.06,-0.71 -0.07,-0.28 -0.24,-0.54 -0.46,-0.76l-0.22 -0.22c-0.84,-0.83 -3.59,-3.55 -3.75,-3.79l-0.32 -0.48 0.48 -0.32c0.09,-0.07 0.65,-0.62 1.32,-1.29 1.09,-1.09 2.44,-2.49 2.64,-2.71 0.08,-0.09 0.15,-0.2 0.21,-0.31 0.05,-0.12 0.1,-0.24 0.12,-0.37 0.03,-0.19 0.02,-0.34 -0.02,-0.48 -0.05,-0.14 -0.14,-0.27 -0.27,-0.4 -0.22,-0.22 -0.43,-0.42 -0.64,-0.64 -0.22,-0.22 0.44,0.44 -0.32,-0.31 -0.12,-0.12 -0.02,-0.03 -0.14,-0.15 -0.32,-0.32 -0.43,-0.44 -0.97,-0.44 -0.43,0 -0.85,0.42 -1.14,0.71l0 0.01c-0.31,0.3 -0.35,0.34 -0.4,0.39 -0.95,0.96 -3.16,3.19 -3.37,3.33l-0.32 0.22 -0.32 -0.22c-0.21,-0.14 -2.42,-2.37 -3.37,-3.33 -0.05,-0.05 -0.09,-0.09 -0.4,-0.39 -0.66,-0.66 0.22,0.21 -0.08,-0.09 -0.4,-0.4 -0.62,-0.63 -1.28,-0.63 -0.37,0 -0.72,0.38 -1,0.69 -0.09,0.09 -0.17,0.17 -0.22,0.22 -0.03,0.04 -0.12,0.12 -0.21,0.2 -0.31,0.3 -0.7,0.66 -0.7,1.06zm-0.83 1.28c-0.21,-0.34 -0.33,-0.74 -0.33,-1.28 0,-0.9 0.59,-1.45 1.07,-1.9 0.05,-0.05 0.09,-0.09 0.18,-0.18 0.08,-0.08 0.13,-0.14 0.19,-0.2 0.44,-0.47 0.98,-1.05 1.85,-1.05 1.12,0 1.48,0.34 2.08,0.95 -0.13,-0.14 -0.37,-0.37 0.11,0.1 0.19,0.19 0.05,0.06 0.39,0.41 0.73,0.73 2.21,2.22 2.87,2.87 0.66,-0.65 2.14,-2.14 2.87,-2.87 0.34,-0.35 0.2,-0.22 0.39,-0.41l0.01 0c0.43,-0.43 1.05,-1.05 1.96,-1.05 1.02,0 1.22,0.2 1.79,0.79 0.04,0.03 -0.08,-0.09 0.14,0.13 0.54,0.54 -0.11,-0.11 0.32,0.33 0.21,0.21 0.42,0.41 0.64,0.63 0.26,0.25 0.44,0.53 0.55,0.85 0.11,0.32 0.13,0.67 0.06,1.05 -0.04,0.24 -0.12,0.47 -0.22,0.67 -0.1,0.22 -0.23,0.41 -0.39,0.59 -0.19,0.21 -1.57,1.63 -2.68,2.75 -0.38,0.38 -0.73,0.73 -1,0.99 0.77,0.78 2.61,2.6 3.26,3.25l0.22 0.21c0.37,0.37 0.65,0.81 0.78,1.31 0.11,0.46 0.09,0.95 -0.12,1.45 -0.17,0.39 -0.87,1.07 -1.31,1.49 -0.09,0.09 -0.16,0.16 -0.22,0.22 -0.43,0.43 -0.85,0.7 -1.34,0.79 -0.49,0.09 -1,-0.02 -1.6,-0.34 -0.35,-0.19 -1.56,-1.44 -2.67,-2.57 -0.55,-0.56 -1.07,-1.09 -1.41,-1.42 -0.53,0.55 -1.4,1.41 -1.84,1.85 -0.02,0.01 -0.02,0.02 -0.25,0.25l-1.25 1.24c-0.22,0.22 -0.46,0.46 -0.79,0.66 -0.35,0.21 -0.76,0.35 -1.27,0.35 -0.88,0 -1.37,-0.51 -1.89,-1.06 -0.05,-0.05 -0.11,-0.11 -0.23,-0.23l-0.25 -0.25c-0.15,-0.15 -0.3,-0.3 -0.45,-0.46 -0.37,-0.37 -0.54,-0.83 -0.55,-1.31 -0.02,-0.49 0.14,-1 0.4,-1.44 0.17,-0.27 1.03,-1.12 1.56,-1.63 0.15,-0.15 0.28,-0.27 0.34,-0.33 0.03,-0.03 0.06,-0.07 0.09,-0.12l0 0.01c0.05,-0.07 0.1,-0.14 0.19,-0.22 0.07,-0.07 0.12,-0.12 0.18,-0.18 0.05,-0.05 -0.12,0.11 0.13,-0.13l0 0 1.43 -1.44c-0.66,-0.68 -2.18,-2.18 -2.91,-2.91 -0.35,-0.34 -0.2,-0.19 -0.4,-0.39 -0.26,-0.26 -0.49,-0.49 -0.68,-0.82z"/>
 </g>
</svg>
