<?xml version="1.0" encoding="UTF-8"?>
<!DOCTYPE svg PUBLIC "-//W3C//DTD SVG 1.1//EN" "http://www.w3.org/Graphics/SVG/1.1/DTD/svg11.dtd">
<!-- Creator: CorelDRAW 2020 (64 Bit) -->
<svg xmlns="http://www.w3.org/2000/svg" xml:space="preserve" width="200px" height="200px" version="1.1" style="shape-rendering:geometricPrecision; text-rendering:geometricPrecision; image-rendering:optimizeQuality; fill-rule:evenodd; clip-rule:evenodd"
viewBox="0 0 29.73 29.73"
 xmlns:xlink="http://www.w3.org/1999/xlink"
 xmlns:xodm="http://www.corel.com/coreldraw/odm/2003">
 <defs>
  <style type="text/css">
   <![CDATA[
    .fil0 {fill:none}
    .fil1 {fill:url(#id0)}
   ]]>
  </style>
  <linearGradient id="id0" gradientUnits="userSpaceOnUse" x1="6.12" y1="14.86" x2="23.61" y2="14.86">
   <stop offset="0" style="stop-opacity:1; stop-color:#FF5C77"/>
   <stop offset="1" style="stop-opacity:1; stop-color:#0097A7"/>
  </linearGradient>
 </defs>
 <g id="Camada_x0020_1">
  <metadata id="CorelCorpID_0Corel-Layer"/>
  <rect class="fil0" width="29.73" height="29.73"/>
  <path class="fil1" d="M6.12 12.19l0 -0.93 0.02 0c0.01,-0.1 0.01,-0.13 0.02,-0.17 0.01,-0.02 0.02,-0.04 0.02,-0.09 0.01,-0.02 0.01,-0.04 0.01,-0.06 0,-0.01 0,-0.02 0,-0.04l0 -0.01 0.05 -0.2 0 -0.01c0.01,-0.02 0.01,-0.03 0.01,-0.05 0,-0.01 0.01,-0.02 0.01,-0.05l0 0c0.06,-0.15 0.11,-0.31 0.17,-0.45 0,-0.01 0,-0.02 0,-0.02 0.01,-0.01 0.01,-0.02 0.02,-0.03l0.06 -0.12c0.02,-0.05 0.05,-0.09 0.08,-0.13l0.02 -0.03 0.11 -0.14 0 -0.01c0.03,-0.04 0.05,-0.05 0.07,-0.07l0 0c0.02,-0.02 0.04,-0.03 0.07,-0.04l0.03 -0.01c0.07,-0.04 0.14,-0.04 0.2,-0.02 0.06,0.02 0.12,0.06 0.16,0.11l0 0c0.04,0.04 0.07,0.1 0.08,0.16 0.02,0.07 0.01,0.15 -0.03,0.21 -0.01,0.03 -0.03,0.05 -0.05,0.07l0 0c-0.03,0.04 -0.07,0.08 -0.12,0.18l0 0 -0.07 0.11c0,0 0,0.01 0,0.01 -0.02,0.05 -0.04,0.09 -0.05,0.13 -0.03,0.07 -0.06,0.14 -0.08,0.21l0 0 -0.03 0.09 0 0.01c0,0.01 0,0.02 -0.01,0.03 0,0.02 0,0.04 -0.01,0.07 -0.01,0.02 -0.01,0.03 -0.02,0.04 0,0 0,0 0,0.03 0,0.06 -0.01,0.1 -0.01,0.14 -0.01,0.02 -0.01,0.05 -0.02,0.08 -0.01,0.14 -0.03,0.3 -0.03,0.45 -0.01,0.16 0,0.31 0.02,0.45 0,0.03 0,0.06 0.01,0.09 0,0.05 0,0.09 0.01,0.12 0,0.03 0.01,0.06 0.02,0.09 0.01,0.04 0.01,0.07 0.02,0.1l0 0 0.06 0.18c0.02,0.04 0.03,0.07 0.04,0.1l0 0c0.01,0.03 0.01,0.05 0.03,0.08l0.07 0.17 0.02 0.04c-0.02,-0.07 -0.03,-0.14 -0.04,-0.22 -0.03,-0.17 -0.05,-0.35 -0.06,-0.45 0,-0.12 0,-0.27 0,-0.42 0.01,-0.13 0.02,-0.27 0.04,-0.37 0.01,-0.02 0.01,-0.04 0.02,-0.05 0,-0.02 0.01,-0.03 0.01,-0.05 0.01,-0.06 0.01,-0.08 0.02,-0.1 0,0 0.01,-0.01 0.01,-0.02l0.04 -0.1c0,0 0,0 0,-0.01 0,-0.01 0,-0.02 0,-0.04 0.01,-0.04 0.02,-0.07 0.04,-0.1 0.01,-0.02 0.02,-0.03 0.02,-0.05 0,-0.01 0,-0.01 0,-0.01 0.01,-0.02 0.01,-0.03 0.02,-0.05l0.04 -0.09 0 0c0,-0.01 0.01,-0.02 0.01,-0.03 0,0 0.01,-0.01 0.01,-0.02l0.07 -0.14 0.01 -0.01 0.07 -0.1c0.01,-0.02 0.02,-0.03 0.02,-0.05 0.08,-0.13 0.15,-0.25 0.35,-0.26 0.05,0 0.1,0.01 0.14,0.03 0.05,0.02 0.09,0.05 0.12,0.08 0.03,0.03 0.06,0.08 0.07,0.14 0.01,0.05 0.02,0.11 0.01,0.15l-0.01 0.01 -0.29 0.53c-0.01,0.02 -0.02,0.04 -0.03,0.06l0 0.02 -0.1 0.43c-0.01,0.03 -0.01,0.05 -0.02,0.07 0,0.02 -0.01,0.03 -0.01,0.03 0,0.04 -0.01,0.12 -0.01,0.21 0,0.12 0.01,0.25 0.01,0.31 0.01,0.09 0.02,0.19 0.03,0.28 0.01,0.1 0.03,0.19 0.06,0.28l0 0 0.11 0.43 0 0.01c0.01,0.05 0.03,0.1 0.05,0.15 0.02,0.03 0.03,0.06 0.04,0.08 0.01,0.03 0.01,0.05 0.02,0.07 0.01,0.02 0.01,0.05 0.03,0.07 0.02,0.03 0.02,0.06 0.03,0.08 0.02,0 0.07,0 0.11,0 0.03,0 0.06,0 0.07,0.01 0.03,0 0.04,0 0.05,0 0.1,0.01 0.23,0.03 0.3,0.01 0.04,-0.02 0.08,-0.03 0.11,-0.04l0.01 0c0.01,0 0.01,0 0.02,0 0.02,-0.01 0.04,-0.02 0.08,-0.03l0.11 -0.02c0.03,-0.01 0.04,-0.01 0.06,-0.01 0,0 0.01,0 0.03,-0.01l0 -0.01 0.38 -0.09 0 0c0.02,0 0.01,0.01 0.01,0l0 0c0.01,0 0.02,-0.01 0.04,-0.01 0.03,-0.01 0.06,-0.01 0.08,-0.02 0.02,0 0.03,0 0.05,0 0.01,0 0.03,-0.01 0.04,-0.01 0.02,-0.01 0.04,-0.01 0.06,-0.02 0.02,0 0.03,0 0.05,-0.01 0.02,0 0.04,0 0.06,-0.01 0.04,-0.01 0.07,-0.01 0.1,-0.01 0.01,0 0.03,0 0.04,-0.01 0.01,0 0.02,0 0.03,0 0.01,-0.01 0.03,-0.02 0.07,-0.02 0.03,-0.01 0.05,-0.01 0.07,-0.01 0.02,0 0.04,0 0.06,0 0.01,0 0.02,0 0.02,-0.01 0.02,-0.01 0.04,-0.01 0.07,-0.02 0.03,0 0.05,0 0.07,0 0.02,-0.01 0.03,-0.01 0.05,-0.01 0.08,-0.02 0.25,-0.04 0.36,-0.06 0.05,-0.01 0.1,-0.01 0.1,-0.01l0 0c0.07,-0.03 0.21,-0.04 0.34,-0.05 0.1,0 0.2,-0.01 0.26,-0.02 0.06,-0.02 0.11,-0.02 0.16,-0.02 0.03,0 0.07,0 0.1,-0.01 0.01,0 0.02,0 0.02,0l0 0c0.02,-0.01 0.04,-0.02 0.09,-0.02l1.4 -0.07 0.01 0c0.06,0 0.12,0 0.19,0 0.11,0 0.23,0 0.35,0 0.09,0 0.17,0.01 0.26,0.01 0.08,0.01 0.16,0.01 0.24,0.01 0.14,0 0.27,0.01 0.39,0.02 0.05,0 0.09,0 0.13,0l0.02 0.01c0.17,0 0.34,0.01 0.49,0.04 0.05,0 0.09,0 0.14,0.01 0.04,0 0.07,0 0.11,0 0.08,0.01 0.14,0.02 0.17,0.02 0.03,0.01 0.03,0.01 0.03,0.01 0.01,0 0.01,-0.01 0.03,-0.04 0.03,-0.02 0.05,-0.06 0.09,-0.1l0.2 -0.22c0.04,-0.04 0.07,-0.08 0.1,-0.12 0.04,-0.05 0.09,-0.11 0.14,-0.16l0.07 -0.09 0.01 -0.01 0.14 -0.15 0.01 -0.01c0.02,-0.02 0.03,-0.03 0.05,-0.06l0 0 0.02 -0.01c0.01,-0.02 0.02,-0.03 0.03,-0.04l0.01 0 0.03 -0.03 0 -0.01c0.06,-0.07 0.1,-0.12 0.17,-0.17 0.01,-0.01 0.02,-0.02 0.03,-0.03 0.02,-0.02 0.03,-0.03 0.07,-0.06 0.01,0 0.02,-0.01 0.04,-0.02 0.06,-0.04 0.13,-0.08 0.21,-0.09 0.05,0 0.05,0 0.06,-0.01 0.01,0 0.02,-0.01 0.05,-0.01 0.04,-0.01 0.1,-0.01 0.15,-0.01 0.01,0 0.02,0 0.03,0 0.06,0 0.14,0.02 0.21,0.04 0.08,0.02 0.15,0.05 0.2,0.09 0.04,0.03 0.07,0.05 0.1,0.07 0.02,0.02 0.05,0.05 0.08,0.08 0.02,0.02 0.03,0.03 0.04,0.05 0.02,0.02 0.03,0.04 0.04,0.06l0 0 0.08 0.14c0.04,0.08 0.07,0.17 0.1,0.26l0.02 0.06c0.01,0.02 0.01,0.03 0.02,0.04 0.01,0.02 0.02,0.04 0.02,0.07 0.01,0.02 0.01,0.02 0.01,0.03 0.01,0.01 0.02,0.02 0.03,0.06 0,0 0.01,0.01 0.01,0.01l0.01 0.01 0.33 0.96c0.01,0.02 0.02,0.02 0.03,0.03 0.01,0 0.02,0 0.03,0l0.01 0 0.15 0.06 0.01 0c0.03,0.02 0.1,0.03 0.15,0.05 0.07,0.01 0.13,0.03 0.17,0.05 0.02,0 0.03,0.01 0.04,0.01 0.02,0 0.03,0.01 0.06,0.02l0.89 0.32c0.01,0.01 0.02,0.01 0.03,0.01 0.02,0.01 0.03,0.02 0.06,0.02l0.01 0 0.07 0.03c0.07,0.03 0.14,0.06 0.21,0.09 0.07,0.04 0.14,0.07 0.2,0.09 0.1,0.04 0.19,0.08 0.29,0.12 0.02,0.01 0.04,0.02 0.06,0.03l0.04 0.02 0.18 0.09 0 0c0.01,0 0.02,0 0.02,0.01l0 0c0.03,0 0.05,0 0.09,0.03l0.08 0.04 0.01 0 0 0c0.01,0 0.02,0.01 0.04,0.02l0.21 0.11c0.01,0 0.02,0.01 0.02,0.01l0 0c0.01,0 0.01,0 0.04,0.02 0.01,0.01 0.03,0.02 0.05,0.03 0.01,0 0.01,0.01 0.02,0.01 0.02,0 0.03,0 0.06,0.02l0.15 0.08 0 0 0.01 0 0 0c0.02,0.01 0.04,0.02 0.06,0.03 0.05,0.02 0.1,0.05 0.15,0.08l0 0c0,0 0,0 0,0l0 0 0.01 0.01c0,0 0.01,0 0.01,0.01l0.07 0.04 0 0c0.03,0.01 0.06,0.03 0.09,0.05 0.05,0.03 0.1,0.06 0.15,0.08l0.01 0.01c0.02,0.01 0.02,0.01 0.04,0.02l0.02 0.01 0.01 0c0,0.01 0.01,0.01 0.02,0.01l0.04 0.03 0.01 0 0 0c0.02,0.01 0.02,0.01 0.04,0.03l0.01 0.01c0.01,0 0.02,0.01 0.03,0.02 0.06,0.04 0.13,0.08 0.2,0.12 0.07,0.04 0.13,0.08 0.18,0.11 0.09,0.06 0.15,0.11 0.19,0.19 0.03,0.07 0.04,0.16 0.01,0.28l-0.01 0.01 -0.05 0.07c-0.01,0.02 -0.02,0.03 -0.03,0.05 0,0 0,0 -0.01,0l0 0c0,0.01 0,0.01 0,0.01l-0.02 0.04 -0.05 0c-0.03,0 -0.03,0 -0.03,0.01 -0.02,0 -0.03,0.01 -0.06,0.02 -0.06,0.01 -0.19,0.01 -0.3,0.01 -0.04,0 -0.07,0 -0.1,0 -0.04,0 -0.07,0 -0.1,0.01 -0.04,0 -0.07,0.01 -0.13,0.01l-0.73 0.03 0 0c-0.08,0 -0.17,0.01 -0.26,0.01l-0.05 0c0.06,0.05 0.12,0.1 0.19,0.15 0.02,0.02 0.04,0.03 0.06,0.05l0.01 0 0.05 0.06 0.02 0.02 0 0c0.01,0.02 0.02,0.03 0.03,0.05l0 0 0.01 0.01 0 0c0.01,0.02 0.02,0.03 0.02,0.06 0.01,0.01 0.01,0.03 0.01,0.05l0 0.03c0,0.04 0,0.08 -0.01,0.13 -0.02,0.04 -0.04,0.09 -0.09,0.13l-0.01 0 0 0 0 0 0 0c-0.06,0.06 -0.14,0.11 -0.22,0.14 -0.02,0.01 -0.03,0.02 -0.05,0.03 -0.01,0.01 -0.03,0.01 -0.04,0.02 -0.01,0.01 -0.02,0.01 -0.04,0.02 -0.01,0.01 -0.03,0.02 -0.04,0.03 -0.07,0.03 -0.13,0.07 -0.2,0.1 -0.01,0 -0.03,0.01 -0.04,0.02 -0.02,0 -0.03,0.01 -0.04,0.01l0 0 -0.65 0.29c-0.02,0 -0.04,0.01 -0.05,0.01 -0.01,0.01 -0.02,0.01 -0.03,0.02 -0.03,0.01 -0.04,0.02 -0.07,0.02 0,0.01 -0.01,0.01 -0.02,0.01l0 0c-0.04,0.02 -0.07,0.03 -0.09,0.04 -0.02,0 -0.03,-0.01 -0.04,-0.01l0.21 0.56c0.02,0.06 0.04,0.11 0.05,0.16 0.02,0.05 0.03,0.11 0.06,0.16l0 0 0 0.01 0 0c0.02,0.04 0.03,0.07 0.04,0.1 0.01,0.03 0.02,0.06 0.03,0.08 0.01,0.02 0.01,0.03 0.02,0.05l0 0c0.01,0.02 0.02,0.04 0.03,0.06 0.05,0.1 0.21,0.1 0.34,0.1l0 0 0 0c0.1,0 0.17,0 0.26,0 0.39,-0.01 1.05,-0.01 1.17,0 0.04,0.01 0.08,0.02 0.11,0.05 0.03,0.02 0.06,0.06 0.08,0.08 0.01,0.01 0.02,0.02 0.02,0.03 0.04,0.07 0.06,0.15 0.05,0.23 -0.01,0.08 -0.05,0.16 -0.12,0.21 0,0.01 -0.01,0.01 -0.02,0.02l-0.01 0 -0.08 0.03 0 0c-0.1,0.04 -0.29,0.04 -0.45,0.03 -0.04,0 -0.08,0 -0.12,0 -0.1,0 -0.19,0 -0.29,0 -0.31,0.01 -0.71,0.01 -0.86,0 -0.04,0 -0.06,-0.01 -0.08,-0.02 -0.01,-0.01 -0.02,-0.01 -0.04,-0.01 -0.06,-0.02 -0.11,-0.04 -0.17,-0.06 -0.05,-0.03 -0.1,-0.06 -0.15,-0.09l0 -0.01 -0.15 -0.14 -0.01 0c-0.05,-0.06 -0.08,-0.13 -0.11,-0.19l0 -0.01 0 0c-0.02,-0.04 -0.03,-0.06 -0.04,-0.1l-0.08 -0.19c-0.02,-0.06 -0.04,-0.11 -0.06,-0.16 -0.01,-0.03 -0.01,-0.05 -0.02,-0.08l0 0 -0.17 -0.47 0 0c0,-0.01 0,-0.03 -0.01,-0.04 0,0 0,-0.01 0,-0.01l-0.06 -0.15 -0.01 0c-0.01,0 -0.03,0.01 -0.04,0.02l-0.01 0c-0.11,0.03 -0.22,0.06 -0.34,0.09l0 0 0.01 -0.01 -0.01 0 0 0.01 0 -0.01c-0.01,0.01 -0.02,0.02 -0.04,0.02 -0.04,0.02 -0.06,0.02 -0.08,0.02 -0.01,0 -0.02,0 -0.04,0.01 -0.04,0.02 -0.1,0.03 -0.16,0.04 -0.04,0.01 -0.09,0.02 -0.11,0.03l0 0c-0.03,0 -0.05,0.01 -0.07,0.02 -0.05,0.01 -0.08,0.02 -0.1,0.02 -0.07,0.02 -0.1,0.03 -0.23,0.05 -0.03,0.01 -0.07,0.02 -0.11,0.03 -0.05,0.01 -0.11,0.03 -0.16,0.03 -0.05,0.01 -0.09,0.01 -0.13,0.02 -0.05,0.01 -0.1,0.02 -0.16,0.02l0 0 -0.27 0.04 0 0c-0.02,0 -0.03,0.01 -0.05,0.01 -0.03,0.01 -0.05,0.02 -0.08,0.02l-1.04 0.1 0 0c-0.06,0 -0.06,0 -0.09,0.01 0,0 -0.01,0 -0.03,0.01l-0.01 0 -0.47 0.03 0 0c-0.09,0 -0.18,0.01 -0.27,0.01 -0.12,0.01 -0.23,0.01 -0.35,0.01 -0.33,0 -0.65,0 -0.98,0 -0.07,0 -0.1,0 -0.11,0.01 0,0 -0.01,0.01 -0.03,0.02 -0.01,0.01 -0.02,0.02 -0.05,0.03l-0.01 0.01c-0.11,0.08 -0.18,0.13 -0.31,0.18 -0.01,0.01 -0.02,0.01 -0.02,0.01l0 0c-0.01,0 -0.01,0.01 -0.03,0.01 -0.03,0.02 -0.1,0.05 -0.18,0.07 -0.06,0.01 -0.13,0.03 -0.17,0.03l-0.08 0c-0.08,0 -0.16,0 -0.24,0 -0.09,0 -0.13,-0.01 -0.18,-0.02 -0.03,-0.01 -0.06,-0.01 -0.1,-0.02 -0.05,0 -0.08,-0.01 -0.1,-0.01 -0.02,-0.01 -0.03,-0.01 -0.05,-0.02 -0.05,-0.01 -0.07,-0.01 -0.09,-0.02 -0.01,-0.01 -0.02,-0.01 -0.04,-0.02 -0.06,-0.02 -0.11,-0.04 -0.16,-0.07 -0.03,-0.02 -0.06,-0.03 -0.09,-0.05 -0.01,0 -0.02,0 -0.03,-0.01l0 0 -0.43 -0.22c-0.02,-0.01 -0.04,-0.02 -0.05,-0.03 -0.02,-0.01 -0.04,-0.02 -0.04,-0.02 -0.02,0 -0.03,0 -0.05,0 -0.03,-0.01 -0.06,-0.01 -0.09,-0.02 -0.04,-0.01 -0.08,-0.01 -0.11,-0.02 -0.03,0 -0.06,0 -0.09,-0.01 -0.04,-0.01 -0.09,-0.01 -0.14,-0.01 -0.02,-0.01 -0.04,-0.01 -0.06,-0.01 0,0.06 0,0.14 0,0.23 0.01,0.26 0.01,0.58 -0.05,0.68l0 0 -0.09 0.14 -0.01 0c-0.08,0.1 -0.12,0.12 -0.2,0.16 -0.01,0.01 -0.02,0.01 -0.04,0.02 -0.11,0.06 -0.23,0.06 -0.34,0.06l-0.02 0 0 0c-0.04,0 -0.06,0 -0.09,0 -0.16,0 -0.4,0.01 -0.52,-0.08 -0.04,-0.03 -0.06,-0.06 -0.08,-0.1 -0.01,-0.03 -0.02,-0.06 -0.04,-0.1 -0.02,-0.06 -0.01,-0.12 0.01,-0.18 0.03,-0.06 0.07,-0.12 0.12,-0.16l0 0c0,0 0,0 0.01,-0.01 0.03,-0.03 0.04,-0.04 0.11,-0.05 0.11,-0.01 0.22,0 0.33,0 0.07,0 0.14,0 0.21,0 0.01,-0.12 0.01,-0.29 0,-0.44 0,-0.09 0,-0.17 0,-0.24l0 -0.02c0,0 0.03,0 0.01,0l0 0 -0.02 -0.01c-0.12,-0.01 -0.14,-0.02 -0.17,-0.03 0,0 -0.01,0 -0.04,-0.01 -0.08,0 -0.15,-0.01 -0.19,-0.02 -0.05,-0.01 -0.08,-0.01 -0.08,-0.01l0 0c0,0 -0.01,0.02 -0.03,0.06 -0.02,0.03 -0.05,0.08 -0.09,0.15l-0.01 0.02c0,0 -0.01,0.01 -0.01,0.02l-0.07 0.11c-0.04,0.07 -0.05,0.08 -0.06,0.11 -0.01,0.01 -0.02,0.03 -0.04,0.06l0 0 -0.01 0.01 -0.04 0.07 -0.01 0c-0.04,0.05 -0.08,0.13 -0.11,0.19l0 0c-0.01,0.03 -0.03,0.06 -0.04,0.07l0 0 0 0.01 0 0c0,0.01 0,0.01 0,0.01 -0.01,0.01 -0.01,0 -0.01,0 0,0.01 0,0.02 -0.01,0.02l0 0c0,0.01 0,0.01 0,0.02l-0.01 0.01 -0.16 0.23c-0.05,0.08 -0.1,0.14 -0.17,0.19 -0.07,0.04 -0.16,0.07 -0.28,0.09 -0.11,0.02 -0.54,0.01 -0.83,0.01l0 0c-0.07,0 -0.14,0 -0.21,0 -0.05,0 -0.1,0 -0.15,0 -0.22,0.01 -0.48,0.02 -0.6,-0.13 -0.02,-0.03 -0.04,-0.08 -0.06,-0.13 -0.01,-0.05 -0.02,-0.1 -0.01,-0.14 0.03,-0.1 0.08,-0.17 0.15,-0.22 0.07,-0.04 0.16,-0.06 0.25,-0.06 0.44,0 0.89,0 1.33,0 0.03,0 0.04,0.01 0.04,0.01 0.01,-0.01 0,-0.01 0.01,-0.02l0.01 -0.02c0.04,-0.07 0.1,-0.17 0.15,-0.26 0.06,-0.1 0.12,-0.2 0.15,-0.24 0.01,-0.02 0.03,-0.04 0.04,-0.07 0.02,-0.02 0.03,-0.05 0.05,-0.08 0,-0.01 0.01,-0.03 0.02,-0.05 0.02,-0.04 0.04,-0.08 0.06,-0.11l0 0 0.02 -0.03c0.01,-0.01 0.02,-0.03 0.03,-0.04 -0.02,-0.01 -0.05,-0.01 -0.08,-0.02 -0.04,-0.02 -0.04,-0.01 -0.05,0 -0.06,0.05 -0.12,0.1 -0.17,0.16 -0.05,0.04 -0.08,0.06 -0.11,0.08 -0.02,0.01 -0.04,0.03 -0.07,0.05 -0.03,0.02 -0.07,0.04 -0.11,0.06 -0.02,0.01 -0.04,0.03 -0.07,0.04l0 0.01 -0.06 0.02 -0.01 0.01c-0.01,0 -0.01,0 -0.01,0l-0.01 0.01 -0.15 0.05 -0.01 0c-0.04,0.01 -0.07,0.01 -0.1,0.02 -0.09,0.02 -0.18,0.03 -0.3,0.01 -0.03,-0.01 -0.04,-0.01 -0.06,-0.02 0,0 -0.01,0 -0.01,0 -0.02,-0.01 -0.03,-0.01 -0.03,-0.01 -0.03,0 -0.04,0 -0.08,-0.02l0 0 -0.25 -0.11 -0.01 0 0 0 -0.02 -0.01c-0.04,-0.03 -0.1,-0.06 -0.13,-0.09l-0.05 -0.04c-0.02,-0.01 -0.03,-0.02 -0.04,-0.03l-0.02 -0.02c-0.11,-0.08 -0.21,-0.19 -0.3,-0.3l-0.01 -0.01c-0.01,0 -0.01,-0.01 -0.02,-0.02l0 0c-0.01,-0.01 -0.02,-0.01 -0.03,-0.02l0 -0.01 -0.09 -0.13c-0.08,-0.11 -0.14,-0.21 -0.2,-0.33l-0.02 -0.04c-0.01,-0.01 -0.01,-0.02 -0.02,-0.02l0 0c0,-0.01 0,-0.01 -0.01,-0.02l0 0c0,-0.01 0,-0.01 0,-0.02l-0.01 -0.02 -0.04 -0.08c-0.01,-0.01 -0.01,-0.02 -0.02,-0.02 0,-0.01 0,-0.01 0,-0.01l0 -0.01c-0.02,-0.04 -0.03,-0.06 -0.04,-0.08 -0.03,-0.07 -0.06,-0.13 -0.08,-0.21l0 0 -0.03 -0.09c0,-0.01 0,-0.01 -0.01,-0.02 0,-0.01 -0.01,-0.03 -0.02,-0.06 0,-0.09 -0.11,-0.54 -0.14,-0.66l0 -0.01c0,-0.01 0,-0.02 0,-0.04 0,-0.02 0.06,-0.04 0.03,-0.04l-0.06 -0.02 0 -0.87 0.03 0c0,-0.02 0,-0.04 0,-0.06 0,-0.02 0.01,-0.03 0.01,-0.04 0,-0.02 0,-0.03 0,-0.04 0.02,-0.06 0.04,-0.07 0.05,-0.08l0 0c0.02,-0.01 -0.02,0.02 -0.02,-0.03l0 -0.01 0.05 -0.18 0.01 -0.01c0,-0.02 0.01,-0.03 0.01,-0.05 0.01,-0.02 0.01,-0.04 0.02,-0.07 0.01,-0.01 0.02,-0.03 0.02,-0.04 0.01,-0.02 0.02,-0.04 0.03,-0.06 0.01,-0.07 0.03,-0.09 0.05,-0.13 0.01,-0.01 0.02,-0.02 0.03,-0.04l0 0c0.1,-0.14 0.2,-0.28 0.3,-0.41l0 -0.01c0.02,-0.01 0.03,-0.02 0.03,-0.02l0 0 0.02 -0.01 0 0 0.22 -0.18 0 0c0.03,-0.02 0.08,0.05 0.06,0.02 -0.01,-0.01 -0.02,-0.02 -0.03,-0.03l0 -0.01 -0.02 -0.01 -0.01 -0.01 0.01 0c-0.01,0 -0.01,0 -0.01,0 -0.02,-0.02 -0.03,-0.03 -0.04,-0.05 0,0 0,-0.01 -0.01,-0.01l-0.02 -0.02 -0.04 -0.05c0,0 0,-0.01 -0.01,-0.01l0 0 0 0 0 0 -0.01 -0.02c-0.04,-0.05 -0.12,-0.17 -0.19,-0.27 -0.04,-0.08 -0.08,-0.15 -0.1,-0.19l-0.04 -0.1 -0.01 0 0 0c0,0 0.01,0 0,-0.01l0 0 -0.03 -0.06c-0.01,-0.01 -0.02,-0.02 -0.02,-0.04 -0.01,-0.01 -0.01,-0.02 -0.01,-0.02l-0.01 -0.01 -0.05 -0.13c0,0 0,-0.01 0,-0.01 -0.01,-0.01 -0.02,-0.02 -0.03,-0.05 -0.01,-0.03 -0.04,-0.12 -0.07,-0.2 -0.01,-0.07 -0.03,-0.13 -0.03,-0.16l0 -0.01c-0.01,-0.01 -0.01,-0.01 -0.02,-0.02 -0.02,-0.04 -0.02,-0.07 -0.02,-0.11 0,-0.02 -0.01,-0.04 -0.01,-0.05 -0.01,-0.03 -0.03,-0.08 -0.04,-0.12 -0.01,-0.04 -0.01,-0.09 -0.02,-0.13l0 0 -0.03 -0.01 0 -0.06zm0.35 5.54c0,0 0,0 0,0zm12.84 0.86l0 0 0 0zm-12.1 -2.57l0 -0.04 -0.01 0c0,-0.14 0.01,-0.16 0.02,-0.19 0.01,-0.01 0.01,-0.01 0.01,-0.04 0.01,-0.07 0.03,-0.15 0.06,-0.21 0.03,-0.07 0.07,-0.14 0.12,-0.2 0.04,-0.04 0.04,-0.05 0.04,-0.05 0.01,-0.02 0.01,-0.03 0.03,-0.05l0.01 -0.01 0.24 -0.18 0.01 0c0,0 0,0 0,0l0.01 -0.01c0.06,-0.04 0.13,-0.07 0.22,-0.08 0.07,-0.02 0.16,-0.03 0.25,-0.03 0.01,0 0.04,0 0.07,0.01 0.02,0 0.05,0 0.06,0.01 0.05,0.01 0.08,0.04 0.11,0.07 0.02,0.03 0.04,0.06 0.06,0.09 0.03,0.07 0.04,0.13 0.04,0.19 -0.01,0.06 -0.04,0.12 -0.08,0.17 -0.1,0.12 -0.18,0.13 -0.26,0.13 -0.04,0 -0.07,0 -0.12,0.02 -0.04,0.02 -0.08,0.06 -0.12,0.09 -0.03,0.03 -0.06,0.07 -0.07,0.1 -0.02,0.04 -0.03,0.13 -0.03,0.23 0,0.12 0,0.23 0.02,0.28l0 0c0,0.01 0.03,0.06 0.05,0.1 0.02,0.02 0.04,0.05 0.04,0.05l0.07 0.04 0 0c0.02,0.01 0.03,0.02 0.03,0.02l0 0c0,0.01 0,0.01 0.02,0.01 0.04,0.01 0.07,0.01 0.08,0.02 0.02,0 0.03,0 0.03,0l0.03 0c0.01,-0.01 0.03,-0.01 0.07,-0.02l0 0c0.01,0 0.02,0 0.03,0 0,-0.01 0,-0.01 0.01,-0.01l0.09 -0.08 0.01 -0.01 0 0c0.01,0 0.01,0 0.01,-0.01 0,0 0,-0.01 0.01,-0.01 0.01,-0.02 0.01,-0.02 0.01,-0.03l0 0c0.01,0 0.01,-0.01 0.02,-0.02l0.04 -0.12c0,-0.03 0,-0.07 0,-0.1 0,-0.02 0,-0.05 0,-0.07 0,-0.09 0.03,-0.13 0.06,-0.18l0.01 -0.01 0 0 0 -0.01 0 0 0 0 0.01 -0.01c0.02,-0.03 0.04,-0.04 0.06,-0.06 0.01,0 0.02,-0.01 0.03,-0.02 0.02,-0.02 0.07,-0.04 0.13,-0.05l0 0c0.04,-0.01 0.08,-0.01 0.12,0 0.02,0.01 0.03,0.01 0.03,0.01 0.04,0 0.04,0 0.1,0.05 0.04,0.03 0.06,0.05 0.07,0.08 0.01,0.01 0.02,0.02 0.03,0.04 0.03,0.04 0.04,0.12 0.04,0.21 0.01,0.11 -0.01,0.25 -0.02,0.29l0 0.01c-0.05,0.11 -0.09,0.23 -0.14,0.34l-0.01 0.01c-0.01,0.03 -0.04,0.06 -0.08,0.09 -0.01,0.02 -0.03,0.03 -0.04,0.04l0 0.01 -0.08 0.06 0 0c-0.02,0.02 -0.03,0.02 -0.04,0.02l0 0c0,0 0,0.01 -0.02,0.02 -0.03,0.04 -0.1,0.08 -0.16,0.12 -0.07,0.03 -0.14,0.06 -0.2,0.07 -0.02,0 -0.07,0.01 -0.12,0.01 -0.04,0.01 -0.08,0.01 -0.11,0.01l0 0c-0.08,-0.01 -0.15,-0.02 -0.23,-0.03l0 0c-0.09,-0.02 -0.14,-0.04 -0.19,-0.06 -0.05,-0.02 -0.09,-0.05 -0.15,-0.09 -0.07,-0.06 -0.14,-0.11 -0.19,-0.17 -0.05,-0.06 -0.1,-0.13 -0.14,-0.22l0 0 -0.03 -0.05c-0.09,-0.2 -0.09,-0.4 -0.08,-0.59zm1.25 0.42l0 0 0 0c0,0 0,0 0,0zm0 0l0 0 0 0zm9.45 -2.71c0.01,0 0.02,0 0.03,0l0 0c0,0 0,-0.01 -0.01,-0.03l0 -0.01 0 0c0,0 0,0 0,0 0,0.01 -0.01,0.02 -0.01,0.03l0 0c0,0 -0.01,0 -0.01,0.01zm2.2 3.91c0,0 0.01,0 0.02,-0.01 0.01,0 0.02,-0.01 0.03,-0.01 0.01,0 0.01,0 0.02,0 0.04,-0.02 0.06,-0.03 0.07,-0.03 0.01,0 0.01,0 0.04,-0.01 0.03,-0.03 0.06,-0.03 0.08,-0.03 0.01,0 0.01,0 0.02,-0.01l0.32 -0.15c0.04,-0.01 0.07,-0.03 0.1,-0.04 0.05,-0.03 0.09,-0.05 0.14,-0.06l0.17 -0.09 -0.04 -0.03c-0.03,-0.02 -0.05,-0.04 -0.06,-0.06 -0.05,-0.04 -0.12,-0.1 -0.2,-0.16 -0.05,-0.04 -0.1,-0.08 -0.15,-0.12 0,-0.01 -0.01,-0.01 -0.01,-0.01 -0.01,-0.01 -0.02,-0.02 -0.04,-0.02l-0.82 0 0.02 0.08c0.01,0 0,0 0,0 0.01,0.01 0.01,0.01 0.02,0.04l0 0 0.14 0.37c0.01,0.02 0.01,0.03 0.01,0.04 0,0.01 0,0.01 0,0.02 0,0 0,0 0,0l0 0c0.01,0.01 0.02,0.02 0.03,0.04l0.05 0.16c0.02,0.04 0.03,0.07 0.04,0.09zm-0.29 -0.76c0,0 0,0 0,0l0 0zm0.17 0.47c0,0 0,0 0,0l0 0zm-10.43 0.64c0.02,0 0.03,0 0.05,0 0.03,0.01 0.05,0.02 0.07,0.02 0.08,0.02 0.17,0.04 0.26,0.05 0.04,-0.07 0.1,-0.13 0.15,-0.19 0.03,-0.04 0.07,-0.07 0.1,-0.11l0.25 -0.36 0.01 -0.01 0 0 0.01 -0.02c0.01,-0.02 0.01,-0.02 0.02,-0.03l0 -0.01 0.05 -0.06 0 0c0.02,-0.02 0.04,-0.05 0.06,-0.08 0.02,-0.03 0.04,-0.07 0.06,-0.1 0.03,-0.04 0.04,-0.05 0.05,-0.05 0.01,-0.01 -0.02,0.01 0,-0.04l0 0 0.16 -0.25 0 -0.01c0,-0.01 0.01,-0.01 0.01,-0.03l0 0 0.19 -0.34c0,-0.01 0,-0.02 0.01,-0.02 0,-0.02 0.01,-0.03 0.02,-0.05l0.06 -0.12 -0.24 -0.04 -0.01 0c-0.04,-0.02 -0.11,-0.03 -0.18,-0.03 -0.05,-0.01 -0.1,-0.02 -0.13,-0.02 -0.03,-0.01 -0.04,-0.01 -0.06,-0.02 -0.02,0 -0.04,-0.01 -0.09,-0.01l-0.01 0c-0.02,0 -0.03,0 -0.04,-0.01 -0.02,0 -0.03,0 -0.04,-0.01l0 0 -0.01 -0.01 0 0c-0.01,0 -0.02,0 -0.02,0 -0.01,-0.01 -0.02,-0.01 -0.04,-0.01 -0.02,0 -0.06,-0.01 -0.11,-0.02 -0.04,-0.01 -0.08,-0.02 -0.12,-0.03 0,0.04 0,0.09 0,0.14 0,0.16 0.01,0.33 -0.03,0.45l0 0 -0.01 0.12c-0.01,0.03 -0.01,0.06 -0.02,0.08 -0.01,0.02 -0.01,0.04 -0.02,0.05l0 0.01 -0.02 0.14c-0.01,0.04 -0.02,0.07 -0.02,0.09 -0.01,0.02 -0.01,0.04 -0.02,0.06l0 0 -0.1 0.32c-0.02,0.05 -0.03,0.08 -0.04,0.09l-0.06 0.16 0 0c-0.01,0.01 0,0 -0.01,0l0 0.01c0,0 0,0 0,0.02l0 0c0,0 0,0 0,0 -0.01,0 -0.01,0.01 -0.01,0.01l0 0 -0.01 0.02 0 0c-0.04,0.11 -0.06,0.15 -0.12,0.25zm0.14 -0.28l0 0 0 0zm0 0c0,0 0,-0.01 0,0l0 0zm1.01 0.48c0.04,0.01 0.1,0.01 0.16,0.02 0.12,0.01 0.24,0.02 0.3,0.04 0.02,0 0.05,0.01 0.08,0.01 0.04,0 0.08,0 0.11,0.01 0.02,0.01 0.04,-0.01 0.08,-0.05 0.01,-0.02 0.03,-0.04 0.05,-0.06l0.4 -0.47 0.01 -0.01 0 0 0.02 -0.03c0.01,-0.02 0.03,-0.03 0.04,-0.05 0.01,-0.01 0.02,-0.02 0.03,-0.03 0.02,-0.03 0.04,-0.05 0.07,-0.07 0.02,-0.02 0.04,-0.04 0.07,-0.08 0.01,-0.01 0.02,-0.03 0.04,-0.04 0.07,-0.09 0.15,-0.18 0.23,-0.26 0.02,-0.02 0.03,-0.04 0.05,-0.05l0 0c0.01,-0.01 0.02,-0.02 0.02,-0.03l0.01 0 0 0c0.01,-0.01 0.01,-0.02 0.02,-0.03l0 0 0.3 -0.36 0 0c0.02,-0.02 0.03,-0.03 0.05,-0.05 0.01,0 0.02,-0.01 0.02,-0.02l0.07 -0.08c0.01,-0.01 0.02,-0.02 0.03,-0.03l0.02 -0.02c-0.01,-0.01 -0.02,-0.01 -0.02,-0.01 0,0 -0.01,-0.01 -0.17,-0.01 -0.04,0 -0.07,-0.01 -0.1,-0.01 -0.03,0 -0.06,-0.01 -0.09,-0.02l-0.32 -0.04 0 0c-0.04,0 -0.06,-0.01 -0.09,-0.02 -0.02,0 -0.04,-0.01 -0.07,-0.01l-0.02 0c-0.03,0 -0.05,0 -0.08,-0.01l-0.03 -0.01c-0.06,-0.01 -0.09,-0.02 -0.16,-0.02l0 0c-0.02,0.06 -0.04,0.1 -0.06,0.13 0,0.01 -0.01,0.02 -0.01,0.02 -0.02,0.05 -0.03,0.07 -0.04,0.09 -0.01,0.03 -0.01,0.05 -0.02,0.07 -0.02,0.02 -0.03,0.05 -0.08,0.12l0 0.01c0,0 0,0 0,0.01 -0.01,0.02 -0.01,0.03 -0.03,0.06 -0.02,0.03 -0.03,0.05 -0.04,0.08l-0.03 0.05 -0.03 0.06c-0.05,0.09 -0.11,0.19 -0.17,0.29 -0.03,0.06 -0.07,0.11 -0.09,0.16l-0.01 0.01 -0.1 0.15 0 0.01c-0.04,0.06 -0.09,0.12 -0.13,0.19 -0.06,0.08 -0.12,0.16 -0.19,0.25l-0.02 0.03c-0.02,0.03 -0.04,0.05 -0.06,0.08 -0.01,0.01 -0.02,0.02 -0.02,0.03zm8.85 -2.07c0.15,0.01 0.43,0.01 0.71,0 0.28,0 0.55,-0.01 0.68,-0.02 0.13,-0.01 0.29,-0.01 0.44,-0.01 0.09,0 0.18,0 0.27,-0.01 0.05,0 0.1,0 0.15,-0.01 0.06,0 0.13,-0.01 0.2,-0.01 0.03,0 0.07,0 0.1,0 -0.12,-0.06 -0.24,-0.13 -0.35,-0.2l0 0c-0.01,0 -0.02,0 -0.02,-0.01l-0.01 0 0 0c-0.04,-0.01 -0.08,-0.03 -0.13,-0.06 -0.01,0 -0.02,-0.01 -0.04,-0.02l0 0 -0.31 -0.15 0 0c0,0 -0.01,-0.01 -0.02,-0.01 -0.01,0 -0.02,-0.01 -0.03,-0.01 -0.03,-0.02 -0.05,-0.03 -0.08,-0.05 -0.01,0 -0.02,0 -0.03,-0.01 -0.02,0 -0.04,-0.01 -0.1,-0.04 -0.03,-0.01 -0.04,-0.02 -0.05,-0.02l0 0c0.01,0 0.01,0 0,0l0 0c-0.01,-0.01 -0.02,-0.01 -0.04,-0.02 -0.02,-0.01 -0.05,-0.01 -0.08,-0.03l0 0 -0.1 -0.05c-0.03,-0.02 -0.04,-0.03 -0.05,-0.03 0,0 0,0 -0.04,-0.01 -0.02,-0.01 -0.04,-0.02 -0.07,-0.02 -0.02,-0.01 -0.04,-0.02 -0.06,-0.03 -0.07,-0.04 -0.09,-0.05 -0.1,-0.05 -0.02,0 -0.03,-0.01 -0.05,-0.02l-0.1 -0.04c0,0 -0.01,-0.01 -0.01,-0.01 -0.02,0 -0.03,0 -0.05,-0.01 -0.04,-0.01 -0.05,-0.02 -0.07,-0.03 -0.01,-0.01 -0.02,-0.01 -0.08,-0.03 -0.02,-0.01 -0.03,-0.01 -0.04,-0.02 -0.01,0 -0.01,0 -0.02,0l-0.01 0 -0.23 -0.09 -0.01 0c-0.01,-0.01 -0.04,-0.02 -0.08,-0.03 -0.06,-0.02 -0.13,-0.04 -0.2,-0.07l0 0c-0.01,0 -0.01,0 -0.02,-0.01 -0.01,0 -0.01,0 -0.02,-0.01 -0.05,-0.01 -0.07,-0.02 -0.08,-0.02 -0.01,0 -0.01,-0.01 -0.03,-0.01 -0.05,0 -0.09,-0.02 -0.14,-0.04 -0.03,0 -0.06,-0.02 -0.09,-0.02l0.47 1.3c0.01,0.02 0.01,0.03 0.02,0.04l0 0zm1.38 -0.64l0 -0.01c0,0 0,0 0,0.01l0 0zm-11.03 -0.33c0.05,0 0.05,0 0.06,-0.01l0 0c0.01,-0.01 0.03,-0.01 0.06,-0.02l0.36 -0.08c0.07,-0.03 0.15,-0.05 0.19,-0.06 0.01,-0.01 0.02,-0.01 0.02,-0.01l0.01 0 0.18 -0.06 0.01 0c0.03,0 0.08,-0.02 0.15,-0.05 0.1,-0.03 0.21,-0.07 0.29,-0.09 0.04,-0.01 0.08,-0.03 0.13,-0.05 0.04,-0.02 0.08,-0.03 0.13,-0.05 0.03,-0.01 0.06,-0.02 0.09,-0.03 0.05,-0.02 0.09,-0.04 0.18,-0.07l0.15 -0.06 0 0c0.05,-0.03 0.1,-0.05 0.14,-0.06 0.05,-0.02 0.09,-0.04 0.17,-0.07l0.24 -0.12c0.02,-0.02 0.05,-0.03 0.07,-0.04 0.03,-0.02 0.07,-0.04 0.12,-0.07l0.26 -0.17 0.01 -0.01c0.03,-0.01 0.03,-0.01 0.04,-0.03 0,0 0.01,-0.01 0.02,-0.02 0.01,-0.01 0.01,-0.01 0.02,-0.01 -0.06,0 -0.11,0 -0.15,0.01 -0.08,0 -0.18,0.01 -0.26,0.01 -0.04,0 -0.07,0 -0.11,0l-0.69 0.05c-0.06,0.01 -0.13,0.01 -0.19,0.01 -0.06,0 -0.11,0 -0.16,0.01 -0.02,0 -0.04,0.01 -0.06,0.01 -0.03,0.01 -0.06,0.01 -0.11,0.01 -0.01,0.01 -0.03,0.01 -0.05,0.01 -0.04,0 -0.06,0 -0.1,0.01 -0.05,0.02 -0.11,0.02 -0.17,0.02l-0.01 0c-0.03,0.01 -0.06,0.01 -0.09,0.02 -0.02,0 -0.04,0.01 -0.07,0.01l-0.04 0.01c0,0 0,0 0,0 -0.04,0 -0.07,0 -0.11,0.01 -0.02,0.01 -0.04,0.01 -0.06,0.01 0,0 0,0 -0.03,0.01 0,0 -0.01,0 -0.01,0 -0.01,0 -0.01,0 -0.01,0 0,0 0,0 0,0.01l-0.01 0 -0.01 0c-0.05,0.02 -0.09,0.02 -0.14,0.02 -0.02,0 -0.04,0 -0.06,0.01l-0.46 0.08c-0.02,0.01 -0.04,0.01 -0.06,0.01 -0.01,0 -0.02,0 -0.03,0.01 -0.01,0 0,-0.01 0,-0.01 -0.01,0.01 -0.03,0.02 -0.06,0.03 -0.03,0.01 -0.06,0.01 -0.09,0.02 -0.02,0 -0.05,0 -0.07,0.01l-0.11 0.02c0.04,0.03 0.08,0.08 0.14,0.15 0.02,0.02 0.02,0.03 0.03,0.03 0.02,0.02 0.03,0.03 0.07,0.1 0.02,0.05 0.04,0.07 0.04,0.08 0.02,0.03 0.03,0.04 0.09,0.18 0,0 0.01,0.01 0.02,0.03l0 0c0.01,0.03 0.04,0.07 0.05,0.1l0.01 0.04c0.01,0.03 0.02,0.07 0.03,0.1zm1.24 0.34c0.02,0 0.04,0.01 0.05,0.01 0.02,0.01 0.03,0.01 0.1,0.02 0.04,0 0.07,0.01 0.1,0.02 0.03,0 0.05,0.01 0.08,0.01 0.05,0.01 0.06,0.01 0.09,0.02 0,0.01 0.01,0.01 0.01,0.01 0.01,0.01 0.03,0.01 0.06,0.01 0.04,0 0.09,0 0.14,0.01 0.02,0.02 0.05,0.02 0.09,0.02 0.02,0 0.04,0 0.07,0.01l0 0 0.19 0.02c0.04,0.01 0.07,0.01 0.11,0.02 0.03,0 0.05,0.01 0.08,0.01l0 0c0.07,0.01 0.12,0.02 0.18,0.03 0.03,0.01 0.19,0.03 0.35,0.04 0.18,0.02 0.36,0.04 0.42,0.05 0.03,0.01 0.06,0.01 0.09,0.02 0.02,0 0.05,0 0.09,0 0.09,0.01 0.09,0 0.14,-0.05 0.02,-0.03 0.04,-0.05 0.06,-0.07l0 0c0.01,-0.02 0.02,-0.03 0.03,-0.05 0.02,-0.02 0.04,-0.04 0.06,-0.07l0.15 -0.17 0 0 0.01 -0.01c0.01,-0.02 0.03,-0.04 0.04,-0.05l0 0 0.13 -0.14 0 0c0.02,-0.02 0.04,-0.05 0.06,-0.07 0.03,-0.04 0.06,-0.08 0.09,-0.11 0.08,-0.07 0.15,-0.16 0.22,-0.24l0.05 -0.06 0 0 0.3 -0.34 0 0c0.04,-0.04 0.08,-0.09 0.12,-0.14 0.04,-0.05 0.08,-0.1 0.13,-0.15l0.1 -0.11 0.01 -0.01 -0.2 -0.02c-0.11,0 -0.16,-0.01 -0.22,-0.02 -0.04,0 -0.08,-0.01 -0.14,-0.01l-0.73 -0.02c-0.03,0.07 -0.05,0.11 -0.09,0.16l-0.02 0.03c-0.04,0.05 -0.07,0.09 -0.09,0.12 -0.03,0.04 -0.07,0.07 -0.11,0.11 -0.11,0.1 -0.17,0.14 -0.25,0.2 -0.02,0.02 -0.03,0.03 -0.08,0.06l-0.01 0.02c-0.02,0.01 -0.03,0.01 -0.05,0.03l-0.2 0.13c-0.05,0.03 -0.1,0.05 -0.14,0.07 -0.22,0.1 -0.44,0.2 -0.66,0.3 -0.02,0.01 -0.04,0.02 -0.07,0.03l-0.02 0.01c-0.01,0 -0.02,0.01 -0.03,0.01 -0.03,0.02 -0.07,0.03 -0.11,0.04l0 0c-0.01,0 -0.03,0.01 -0.05,0.02 0,0 0,0 0,0l0 0c0,0 -0.01,0 -0.02,0.01 -0.08,0.03 -0.17,0.06 -0.25,0.08l-0.02 0.01 -0.14 0.05c-0.02,0.01 -0.05,0.02 -0.08,0.03 -0.02,0 -0.05,0.01 -0.08,0.02 -0.01,0 -0.02,0 -0.02,0 -0.01,0.01 -0.02,0.01 -0.04,0.02l0 0c-0.03,0.01 -0.04,0.01 -0.06,0.01 0,0 -0.01,0 -0.01,0 -0.01,0 -0.01,0.01 -0.01,0.01zm-3.09 -0.97c-0.01,0 -0.05,0.01 -0.08,0.01 -0.05,0 -0.12,0 -0.14,0 -0.04,0 -0.08,0.01 -0.11,0.02 -0.04,0.01 -0.08,0.02 -0.12,0.04 -0.02,0.01 -0.03,0.01 -0.05,0.01 0,0 -0.01,0 -0.02,0.01l0 0 -0.26 0.15c-0.05,0.05 -0.11,0.11 -0.15,0.16l0 0 -0.03 0.04 0 0.01c-0.03,0.03 -0.05,0.06 -0.07,0.1l-0.01 0.01 -0.07 0.14c-0.01,0.02 -0.02,0.03 -0.02,0.03 0,0.01 0,0 0,0.03 -0.01,0.03 -0.02,0.04 -0.03,0.06l0 0c0,0 0,0 0,0.01 -0.02,0.1 -0.04,0.18 -0.05,0.24 -0.03,0.13 -0.06,0.22 -0.05,0.5 0,0.12 0.01,0.21 0.02,0.32 0,0.06 0.01,0.12 0.01,0.17 0,0.03 0,0.02 0,0.03 0,0.01 0.01,0.02 0.02,0.03 0.01,0.04 0.01,0.07 0.01,0.1l0 0c0,0 0,0.01 0,0.02 0,0.02 0.01,0.02 0.01,0.03l0 0c0.01,0.01 0.01,0.02 0.02,0.04 0,0.03 0,0.05 0,0.07 0,0.01 0.01,0.02 0.01,0.03l0.01 0.03c0.03,0.06 0.05,0.12 0.07,0.18 0.01,0.03 0.02,0.05 0.03,0.08l0.12 0.3 0 0c0.01,0.02 0.01,0.03 0.02,0.04 0.01,0 0.01,0.01 0.02,0.02 0.01,0.02 0.02,0.03 0.02,0.05 0.01,0 0.01,0.01 0.01,0.02l0 0 0.17 0.27c0.02,0.02 0.04,0.05 0.06,0.08 0.02,0.03 0.04,0.06 0.06,0.08 0.01,0.01 0.01,0.01 0.02,0.02 0.01,0.01 0.02,0.02 0.04,0.03l0 0c0.01,0.02 0.02,0.02 0.02,0.03l0 0c0.01,0.01 0.02,0.02 0.03,0.03l0.1 0.1c0.03,0.02 0.06,0.04 0.1,0.06 0.02,0.01 0.04,0.02 0.05,0.03l0.1 0.05c0.03,0 0.07,0 0.12,0 0.06,0 0.12,0 0.15,0 0.04,-0.01 0.09,-0.04 0.14,-0.07 0.02,-0.01 0.04,-0.02 0.05,-0.03l0.08 -0.04 0.23 -0.25 0.21 -0.3 0.19 -0.36c0.02,-0.04 0.03,-0.09 0.04,-0.14l0.01 -0.03 0 -0.01 0.05 -0.12 0 0c0,-0.01 0.01,-0.02 0.01,-0.02 0,0 0,-0.01 0,-0.01l0 0 0.04 -0.11c0,-0.01 0,-0.01 0,-0.02 0,-0.02 0,-0.04 0.02,-0.08 0.01,-0.02 0.01,-0.03 0.02,-0.04l0 0c0,-0.01 -0.01,0.01 -0.01,-0.02 0,-0.06 0.02,-0.12 0.03,-0.18 0.01,-0.06 0.02,-0.13 0.03,-0.2 0,-0.19 0.01,-0.38 0,-0.57 -0.01,-0.18 -0.05,-0.37 -0.11,-0.54 -0.01,-0.02 -0.01,-0.03 -0.02,-0.04 0,-0.01 0,-0.01 -0.01,-0.03l-0.01 -0.04c-0.04,-0.07 -0.07,-0.13 -0.11,-0.19 -0.03,-0.04 -0.06,-0.07 -0.08,-0.1 -0.02,-0.02 -0.05,-0.05 -0.08,-0.08l-0.12 -0.09c-0.09,-0.06 -0.14,-0.08 -0.21,-0.11l-0.06 -0.02c-0.02,-0.01 -0.03,-0.02 -0.04,-0.02 0,-0.01 0,0 -0.01,0 -0.06,-0.02 -0.08,-0.03 -0.09,-0.04 -0.02,0 -0.08,-0.01 -0.14,-0.01 -0.1,0 -0.2,0 -0.21,0zm4.04 3.95l0.09 0.05c0.05,0.03 0.09,0.05 0.12,0.07l0 0.01c0.01,0 0.03,0.01 0.04,0.01l0 0 0.34 0.15c0.01,0.01 0.02,0.01 0.03,0.01l0 0c0.01,0 0.03,0.01 0.06,0.02 0.02,0 0.04,0.01 0.06,0.01 0.03,0 0.06,0.01 0.09,0.02 0.07,0.03 0.18,0.02 0.27,0.02 0.02,0 0.04,0 0.06,0 0.04,0 0.07,-0.01 0.1,-0.02 0.01,0 0.02,-0.01 0.04,-0.01 0.07,-0.02 0.14,-0.05 0.2,-0.09 0.06,-0.04 0.12,-0.09 0.18,-0.14 0.01,0 0.02,-0.01 0.02,-0.02 0.01,0 0.01,-0.01 0.02,-0.01l0.17 -0.22 0.04 -0.05c0,-0.01 0.02,-0.03 0.03,-0.05l0 0 0.06 -0.09 0 0c0.03,-0.03 0.09,-0.11 0.16,-0.2 0.06,-0.08 0.12,-0.16 0.14,-0.2 0.02,-0.04 0.04,-0.07 0.06,-0.09 0.02,-0.03 0.04,-0.05 0.06,-0.08 0.01,-0.03 0.02,-0.05 0.04,-0.07l0 0 0.16 -0.25 0 0c0.17,-0.24 0.34,-0.49 0.51,-0.74 0.01,-0.01 0.02,-0.02 0.02,-0.03l0 0 0.01 0 0 0 0 -0.01c0.06,-0.09 0.11,-0.16 0.17,-0.25l0 -0.01c0.01,-0.01 0.01,-0.01 0.01,-0.02 0.01,0 0,0 0.01,0 0.04,-0.05 0.09,-0.14 0.15,-0.23 0.03,-0.06 0.07,-0.11 0.1,-0.16l0.18 -0.29c0.03,-0.04 0.05,-0.07 0.07,-0.11 0.03,-0.03 0.05,-0.06 0.07,-0.09 0,-0.01 0,-0.01 0,-0.01 0,-0.01 0,-0.01 0.01,-0.01 0,-0.01 0,-0.01 0,-0.01l0 0 0.01 -0.01 0 0 0.01 -0.02c0,0 0.01,-0.01 0.03,-0.03l0 0 0.19 -0.29 0 -0.01c0.05,-0.06 0.08,-0.1 0.11,-0.15 0.01,-0.02 0.02,-0.04 0.04,-0.07l0 0 0.28 -0.43c0,0 0,-0.01 0.01,-0.02l0 0 0.01 -0.02 0.01 -0.01 0 0c0.18,-0.22 0.38,-0.56 0.54,-0.8 0.04,-0.07 0.08,-0.13 0.12,-0.19 0.04,-0.07 0.09,-0.13 0.12,-0.19 0.03,-0.05 0.05,-0.08 0.07,-0.11 0.03,-0.03 0.05,-0.06 0.02,-0.13 -0.01,-0.01 -0.02,-0.03 -0.02,-0.05 -0.02,-0.04 -0.04,-0.09 -0.06,-0.11l0 0 0 -0.01 -0.02 -0.01c-0.05,-0.04 -0.1,-0.06 -0.15,-0.05 -0.05,0.01 -0.11,0.04 -0.16,0.1 -0.01,0.01 -0.01,0.01 -0.02,0.02 -0.01,0.01 -0.01,0.02 -0.02,0.03 -0.02,0.01 -0.02,0.02 -0.03,0.02 0,0.01 -0.01,0.01 -0.02,0.02l-0.02 0.03c-0.08,0.1 -0.15,0.2 -0.24,0.29l-0.45 0.5 0 0c-0.01,0.01 -0.01,0.01 -0.02,0.02 0,0.01 -0.01,0.01 -0.02,0.03l0 0 -0.26 0.28 0 0c-0.01,0.01 -0.01,0.02 -0.02,0.02 -0.02,0.01 -0.03,0.03 -0.03,0.04l-0.01 0c-0.06,0.07 -0.13,0.15 -0.19,0.22l-0.36 0.42 -0.02 0.02c-0.02,0.02 -0.02,0.02 -0.03,0.03l0 0c-0.01,0.01 -0.02,0.02 -0.03,0.03l0 0.01 -0.08 0.09 0 0.01c-0.07,0.07 -0.14,0.14 -0.2,0.22 -0.07,0.08 -0.13,0.15 -0.19,0.23l0 0 -0.68 0.78 0 0c-0.05,0.06 -0.11,0.11 -0.16,0.17 -0.06,0.06 -0.13,0.13 -0.18,0.2l0 0 -0.02 0.03c-0.01,0.01 -0.01,0.01 -0.01,0.01l0 0 -0.16 0.16c-0.01,0.01 -0.01,0.01 -0.01,0.02l0 0c-0.01,0.01 -0.02,0.01 -0.03,0.03l-0.8 0.91c0,0.01 -0.01,0.01 -0.01,0.02 -0.01,0.01 -0.02,0.03 -0.03,0.04l0 0c0,0 -0.01,0.01 -0.01,0.01l0 0 -0.44 0.49 -0.01 0.01 -0.01 0.01 0 0 -0.16 0.19c-0.02,0.01 -0.03,0.03 -0.04,0.05 -0.03,0.03 -0.05,0.06 -0.09,0.09zm4.62 -4.2c0,0.01 0,0.02 0,0.01l0 -0.01 0 0zm-2 4.2c0.14,0 0.39,0 0.51,-0.01 0.03,0 0.05,0 0.06,0 0.07,0 0.14,0 0.22,0 0.03,0 0.07,0 0.11,0 0.06,-0.01 0.11,-0.01 0.16,-0.02 0.06,0 0.11,-0.01 0.18,-0.01 0.14,0 0.28,-0.01 0.41,-0.02 0.08,-0.01 0.15,-0.01 0.24,-0.02 0.04,0 0.09,-0.01 0.13,-0.01 0.06,-0.01 0.13,-0.02 0.19,-0.02 0.06,0 0.16,-0.01 0.26,-0.03 0.13,-0.02 0.25,-0.04 0.33,-0.06l0 0c0.11,-0.01 0.22,-0.03 0.33,-0.04 0.1,-0.01 0.17,-0.03 0.26,-0.05l0.01 -0.01 0.22 -0.05 0 0c0.01,0 0.04,0 0.06,0 0.06,-0.01 0.13,-0.02 0.19,-0.04 0.04,-0.01 0.07,-0.02 0.1,-0.02 0.03,0 0.05,-0.01 0.07,-0.01 0.03,-0.02 0.04,-0.02 0.06,-0.02 0,0 0.01,0 0.02,-0.01 0.01,0 0.01,0 0.01,0l0 0c0.01,-0.01 0.02,-0.02 0.05,-0.02 0.03,-0.01 0.05,-0.01 0.06,-0.01 0.01,0 0.02,0 0.03,0 0,-0.01 0,0 0,0 0.01,-0.01 0.02,-0.02 0.05,-0.03 0.03,-0.01 0.07,-0.02 0.1,-0.02 0.04,-0.01 0.08,-0.02 0.11,-0.03 0.05,-0.02 0.1,-0.03 0.14,-0.03 0.03,-0.01 0.06,-0.01 0.08,-0.02 0,-0.02 -0.01,-0.05 -0.03,-0.08 -0.01,-0.02 -0.01,-0.05 -0.02,-0.07 -0.01,-0.01 -0.01,-0.02 -0.01,-0.03l0 0c-0.01,-0.01 -0.01,-0.02 -0.02,-0.05 -0.01,-0.02 -0.02,-0.04 -0.03,-0.05 -0.02,-0.03 -0.03,-0.06 -0.04,-0.1l-0.07 -0.19 0 -0.01 -0.01 -0.01c-0.02,-0.04 -0.02,-0.05 -0.02,-0.08 0,0 -0.01,-0.01 -0.01,-0.02l0 0 -0.07 -0.18c-0.02,-0.03 -0.02,-0.06 -0.03,-0.09 0,-0.02 -0.01,-0.03 -0.01,-0.04l-0.01 -0.02c0,-0.02 0.02,-0.02 0,-0.03 0,0 -0.02,0 -0.06,0 -0.02,0 -0.05,0 -0.09,0 -0.02,0 -0.05,0 -0.08,0 -0.1,0.01 -0.22,0.01 -0.3,-0.01 -0.01,-0.01 -0.05,-0.02 -0.07,-0.04 -0.02,-0.01 -0.04,-0.02 -0.05,-0.03l-0.01 0 -0.06 -0.08 0 0c-0.03,-0.05 -0.05,-0.11 -0.05,-0.17 0,-0.05 0.01,-0.1 0.03,-0.14 0.03,-0.05 0.06,-0.09 0.11,-0.12 0.07,-0.05 0.16,-0.08 0.29,-0.08 0.01,0 0.02,0 0.04,0 0.02,0 0.04,0 0.06,0.01l-0.01 -0.02c-0.01,-0.05 -0.03,-0.1 -0.03,-0.1 0,-0.01 0,-0.01 0,-0.01 -0.01,0 -0.01,0 -0.02,-0.01 0,-0.01 0,-0.01 0,-0.02l0 0c-0.11,-0.28 -0.21,-0.57 -0.31,-0.86l-0.01 0c-0.02,-0.08 -0.05,-0.15 -0.08,-0.23 -0.03,-0.08 -0.06,-0.16 -0.09,-0.25l-0.06 -0.14 -0.03 -0.01c-0.03,0 -0.05,-0.01 -0.07,-0.02l0 0c-0.04,-0.01 -0.09,-0.02 -0.15,-0.03 -0.03,-0.01 -0.07,-0.02 -0.11,-0.03l-0.18 -0.03 0 -0.01c-0.02,0 -0.03,0 -0.03,-0.01 -0.02,0 -0.03,0 -0.05,-0.01 -0.03,-0.01 -0.05,-0.01 -0.07,-0.02 -0.02,0 -0.03,-0.01 -0.05,-0.01 -0.03,0.05 -0.07,0.11 -0.1,0.16l0 0c-0.01,0.01 -0.02,0.02 -0.03,0.03 0,0.01 -0.01,0.02 -0.01,0.02 -0.01,0.01 -0.01,0.01 -0.01,0.02 -0.01,0 -0.01,0.01 -0.02,0.02 -0.01,0.02 -0.02,0.03 -0.03,0.05l0 0.01c-0.03,0.03 -0.05,0.06 -0.07,0.09 -0.03,0.06 -0.07,0.12 -0.11,0.16 -0.02,0.02 -0.02,0.03 -0.03,0.05 -0.01,0.01 -0.01,0.02 -0.02,0.04 -0.01,0.01 -0.02,0.03 -0.03,0.04 -0.01,0.02 -0.02,0.04 -0.03,0.06 -0.03,0.05 -0.06,0.09 -0.1,0.14 -0.03,0.03 -0.06,0.07 -0.07,0.1 -0.05,0.09 -0.13,0.21 -0.21,0.33 -0.06,0.09 -0.12,0.18 -0.15,0.23l0 0 -0.13 0.18c0.11,0.01 0.21,0.01 0.31,0.02 0.11,0.01 0.21,0.01 0.31,0.01 0.06,0 0.12,0.01 0.17,0.01 0.05,0 0.1,0.01 0.15,0.01 0.04,0 0.08,0 0.13,0 0.18,0.01 0.39,0.01 0.47,0.2 0.02,0.06 0.03,0.12 0.02,0.18 0,0.06 -0.02,0.12 -0.06,0.16 -0.04,0.05 -0.07,0.08 -0.12,0.1 -0.04,0.03 -0.09,0.04 -0.15,0.04l-0.01 0 -0.96 -0.04 0 0c-0.09,-0.01 -0.19,-0.01 -0.29,-0.01 -0.12,0 -0.24,0 -0.35,-0.02 -0.06,0 -0.07,0.02 -0.1,0.07 -0.02,0.04 -0.04,0.08 -0.07,0.12l-0.3 0.45c-0.01,0.01 -0.02,0.02 -0.02,0.02 -0.01,0.02 -0.02,0.03 -0.02,0.03 -0.01,0.01 -0.02,0.03 -0.03,0.04 -0.01,0.02 -0.02,0.04 -0.04,0.06 0,0 -0.01,0.01 -0.01,0.01l0 0 -0.12 0.17c-0.01,0.01 0,0 -0.01,0.01 -0.1,0.1 -0.42,0.62 -0.53,0.77zm4.27 -0.48c0,0 0,0 0,0zm-3.6 -0.47l0 0 0 0zm0 0c0,-0.01 0,-0.01 0,-0.01l0 0.01z"/>
 </g>
</svg>
