<?xml version="1.0" encoding="UTF-8"?>
<!DOCTYPE svg PUBLIC "-//W3C//DTD SVG 1.1//EN" "http://www.w3.org/Graphics/SVG/1.1/DTD/svg11.dtd">
<!-- Creator: CorelDRAW 2020 (64 Bit) -->
<svg xmlns="http://www.w3.org/2000/svg" xml:space="preserve" width="200px" height="200px" version="1.1" style="shape-rendering:geometricPrecision; text-rendering:geometricPrecision; image-rendering:optimizeQuality; fill-rule:evenodd; clip-rule:evenodd"
viewBox="0 0 42.68 42.68"
 xmlns:xlink="http://www.w3.org/1999/xlink"
 xmlns:xodm="http://www.corel.com/coreldraw/odm/2003">
 <defs>
  <style type="text/css">
   <![CDATA[
    .fil0 {fill:none}
    .fil1 {fill:url(#id0)}
   ]]>
  </style>
  <linearGradient id="id0" gradientUnits="userSpaceOnUse" x1="8.79" y1="21.3" x2="33.89" y2="21.3">
   <stop offset="0" style="stop-opacity:1; stop-color:#FF5C77"/>
   <stop offset="1" style="stop-opacity:1; stop-color:#0097A7"/>
  </linearGradient>
 </defs>
 <g id="Camada_x0020_1">
  <metadata id="CorelCorpID_0Corel-Layer"/>
  <rect class="fil0" width="42.68" height="42.68"/>
  <path class="fil1" d="M8.79 20.73l0 1.55c0.07,0.04 0.05,0.31 0.07,0.41 0.02,0.13 0.02,0.26 0.04,0.4 0.07,0.62 0.16,0.91 0.32,1.49 0.07,0.27 0.13,0.43 0.22,0.67 0.38,1.04 0.53,1.48 1.13,2.47 0.06,0.1 0.16,0.17 0.09,0.33 -0.32,0.77 -0.57,1.5 -0.87,2.27l-0.95 2.54c-0.02,0.05 0,0.03 -0.05,0.06l0 0.35c0.08,0.05 0.04,0.14 0.25,0.36 0.23,0.24 0.25,0.11 0.37,0.22l0.27 0c0.04,-0.06 0.03,-0.04 0.15,-0.07l1.17 -0.45c0.74,-0.28 2.03,-0.71 2.68,-0.99 0.19,-0.09 0.5,-0.16 0.67,-0.25 0.33,-0.17 0.37,-0.18 0.65,0.02 0.54,0.4 1.84,0.91 2.52,1.15 0.5,0.19 1.67,0.45 2.26,0.49 0.12,0.01 0.78,0.06 0.83,0.1l1.55 0 0.02 -0.04c1.32,-0.02 3.59,-0.72 4.57,-1.26 0.71,-0.38 1.18,-0.6 1.84,-1.07 0.73,-0.53 1.73,-1.38 2.31,-2.07 0.88,-1.06 1.42,-1.84 1.98,-3.12 0.34,-0.78 0.71,-1.98 0.86,-2.8 0.04,-0.24 0.09,-1.24 0.15,-1.31l0 -1.78c-0.06,-0.04 -0.08,-0.5 -0.1,-0.65 -0.02,-0.21 -0.03,-0.44 -0.08,-0.63 -0.06,-0.21 -0.07,-0.4 -0.13,-0.61 -0.05,-0.18 -0.08,-0.39 -0.14,-0.58 -0.27,-1.02 -0.77,-2.17 -1.31,-3.06 -0.36,-0.59 -0.49,-0.74 -0.9,-1.27 -0.18,-0.24 -0.82,-1.01 -1.01,-1.16 -0.14,-0.12 -0.25,-0.24 -0.38,-0.37l-0.57 -0.51c-0.45,-0.37 -0.58,-0.45 -1.06,-0.76 -0.29,-0.18 -0.51,-0.33 -0.8,-0.48 -0.18,-0.09 -0.24,-0.16 -0.58,-0.31 -0.73,-0.34 -1.3,-0.58 -2.1,-0.81 -0.36,-0.1 -1.41,-0.33 -1.81,-0.36 -0.11,-0.01 -0.22,-0.02 -0.33,-0.03 -0.07,-0.01 -0.29,0 -0.3,-0.06l-1.93 0c-0.04,0.06 -0.26,0.04 -0.34,0.05 -0.12,0 -0.21,0.03 -0.32,0.04 -0.79,0.06 -2.21,0.46 -2.93,0.74 -0.43,0.18 -1.54,0.75 -1.97,0.99 -0.19,0.11 -1.42,1.04 -1.67,1.26l-1.09 1.12c-0.49,0.53 -1.17,1.49 -1.54,2.14 -0.09,0.16 -0.18,0.31 -0.26,0.48 -0.08,0.16 -0.17,0.31 -0.24,0.48 -0.36,0.91 -0.74,1.81 -0.93,2.78 -0.04,0.21 -0.09,0.4 -0.13,0.59 -0.04,0.21 -0.03,0.45 -0.07,0.67 -0.04,0.2 -0.02,0.62 -0.08,0.64zm2.03 11.09l3.73 -1.4c0.46,-0.18 0.84,0.23 1.05,0.34 0.61,0.35 0.77,0.44 1.46,0.75 0.69,0.29 1.48,0.54 2.29,0.66 0.44,0.07 0.85,0.16 1.3,0.16 0.53,0 0.67,0.09 1.41,-0.01 1.06,-0.13 1.45,-0.17 2.5,-0.45l1.09 -0.37c0.48,-0.19 1.03,-0.47 1.47,-0.73l0.67 -0.43c0.07,-0.05 0.16,-0.1 0.23,-0.15l0.62 -0.49c0.07,-0.06 0.13,-0.12 0.19,-0.17l0.38 -0.36c0.19,-0.14 1.05,-1.2 1.17,-1.39 0.05,-0.08 0.09,-0.16 0.14,-0.24 0.21,-0.29 0.36,-0.61 0.52,-0.96 0.34,-0.71 0.64,-1.24 0.86,-2.08 0.11,-0.4 0.22,-0.77 0.27,-1.2 0.06,-0.42 0.14,-0.88 0.16,-1.32 0.05,-0.83 -0.01,-1.95 -0.17,-2.74 -0.22,-1.08 -0.4,-1.78 -0.86,-2.82 -0.08,-0.17 -0.17,-0.31 -0.26,-0.49 -0.1,-0.22 -0.69,-1.15 -0.84,-1.34 -0.27,-0.35 -0.72,-0.91 -1.02,-1.21 -0.26,-0.27 -1.32,-1.06 -1.63,-1.31 -0.24,-0.18 -0.62,-0.38 -0.93,-0.54 -0.17,-0.08 -0.33,-0.16 -0.49,-0.24 -0.3,-0.16 -1.31,-0.52 -1.62,-0.6 -0.21,-0.04 -0.38,-0.1 -0.57,-0.15 -0.19,-0.05 -0.44,-0.08 -0.63,-0.11 -0.78,-0.15 -1.92,-0.28 -2.73,-0.21 -0.21,0.02 -0.47,0.03 -0.67,0.06 -0.19,0.04 -0.46,0.05 -0.64,0.1 -0.42,0.12 -1.35,0.31 -1.71,0.48 -0.38,0.17 -1.3,0.55 -1.53,0.7 -0.15,0.1 -0.29,0.18 -0.45,0.27 -0.18,0.1 -0.3,0.2 -0.45,0.3 -0.14,0.1 -0.3,0.19 -0.43,0.29l-0.4 0.35c-0.3,0.24 -0.5,0.45 -0.76,0.71 -0.42,0.42 -1,1.13 -1.31,1.64 -0.19,0.31 -0.37,0.61 -0.55,0.91 -0.29,0.46 -0.73,1.52 -0.9,2.06 -0.12,0.38 -0.21,0.77 -0.3,1.17l-0.19 1.27c-0.06,0.83 -0.03,1.97 0.14,2.75 0.14,0.68 0.36,1.65 0.67,2.26 0.29,0.56 0.39,0.89 0.76,1.46 0.05,0.08 0.08,0.15 0.13,0.23 0.05,0.08 0.1,0.14 0.16,0.23 0.21,0.34 -0.04,0.8 -0.16,1.13 -0.06,0.17 -0.11,0.38 -0.18,0.54l-0.6 1.61c-0.08,0.22 -0.38,0.95 -0.39,1.08zm14.01 -13.55l0.46 1.48c0.1,0.3 0.14,0.45 0.39,0.59 0.24,0.14 0.55,0.15 0.79,0 0.49,-0.31 0.32,-0.87 0.13,-1.43 -0.08,-0.22 -0.17,-0.51 -0.23,-0.75 -0.04,-0.16 -0.09,-0.21 -0.13,-0.35 -0.04,-0.13 -0.07,-0.27 -0.11,-0.41 -0.15,-0.49 -0.32,-0.99 -0.47,-1.48 -0.17,-0.51 -0.29,-1.02 -0.47,-1.51 -0.23,-0.62 -0.2,-0.91 -0.63,-1.33 -0.67,-0.65 -2.15,-0.54 -2.46,0.71 -0.06,0.25 -0.11,0.55 -0.16,0.82 -0.1,0.54 -0.17,1.1 -0.3,1.65l-0.24 1.23c-0.03,0.13 -0.04,0.27 -0.07,0.41 -0.06,0.28 -0.11,0.56 -0.16,0.85 -0.1,0.56 -0.36,1.19 0.1,1.53 0.49,0.38 1.08,0.11 1.19,-0.44 0.05,-0.27 0.12,-0.54 0.15,-0.83 0.03,-0.3 0.05,-0.27 0.58,-0.4 0.27,-0.06 0.55,-0.09 0.82,-0.15 0.18,-0.05 0.66,-0.19 0.82,-0.19zm-1.84 -1.13c0.16,0 1.17,-0.26 1.39,-0.31 0.01,-0.19 -0.14,-0.5 -0.2,-0.67 -0.07,-0.23 -0.12,-0.45 -0.19,-0.67 -0.12,-0.39 -0.26,-0.76 -0.36,-1.15 -0.03,-0.13 -0.01,-0.13 -0.11,-0.13 -0.04,0.11 -0.2,1.2 -0.28,1.44 -0.04,0.14 -0.23,1.29 -0.25,1.49zm-1.08 5.01c-0.35,0.04 -0.71,0.21 -0.94,0.43 -0.52,0.51 -0.49,1 -0.64,1.68 -0.05,0.26 -0.08,0.52 -0.13,0.78 -0.27,1.26 -0.48,2.6 -0.73,3.86 -0.09,0.47 0.01,0.72 0.39,0.93 0.12,0.07 0.28,0.07 0.43,0.05 0.29,-0.04 0.42,-0.19 0.53,-0.39 0.11,-0.21 0.13,-0.48 0.18,-0.74 0.05,-0.25 0.1,-0.51 0.15,-0.76 0.08,-0.5 -0.03,-0.45 0.48,-0.45l1.36 -0.01c0.23,0.01 0.19,0.02 0.23,0.24 0.06,0.26 0.12,0.49 0.17,0.75 0.04,0.26 0.21,0.42 0.41,0.52 0.23,0.11 0.53,0.06 0.72,-0.06 0.19,-0.11 0.3,-0.33 0.32,-0.59 0.02,-0.24 -0.25,-1.24 -0.32,-1.54l-0.32 -1.5c-0.11,-0.51 -0.2,-1.02 -0.32,-1.54 -0.12,-0.55 -0.26,-0.96 -0.58,-1.23 -0.15,-0.13 -0.34,-0.27 -0.57,-0.35 -0.28,-0.08 -0.51,-0.11 -0.82,-0.08zm0.91 3.9l0.01 -0.03c0.01,-0.03 0.01,0.01 0.01,-0.05l-0.07 -0.3c-0.03,-0.12 -0.06,-0.25 -0.08,-0.38 -0.02,-0.07 -0.02,-0.15 -0.03,-0.21l-0.14 -0.58c-0.03,-0.15 -0.12,-0.69 -0.18,-0.78 -0.05,-0.08 -0.18,-0.15 -0.31,-0.08 -0.11,0.06 -0.13,0.22 -0.15,0.34 -0.03,0.14 -0.04,0.27 -0.06,0.4 -0.03,0.15 -0.07,0.23 -0.09,0.39 -0.04,0.26 -0.1,0.54 -0.15,0.81 -0.08,0.47 -0.14,0.49 0.05,0.49 0.23,0 1.1,0.01 1.19,-0.02zm-7.25 -8.78c-0.12,-0.24 -0.17,-0.5 -0.27,-0.75 -0.25,-0.57 -0.27,-1.16 -0.68,-1.38 -0.26,-0.14 -0.6,-0.11 -0.82,0.06 -0.49,0.38 -0.17,0.99 0,1.52l1.29 3.88c0.35,1.11 1.73,0.62 1.45,-0.34 -0.1,-0.37 -0.51,-1.39 -0.54,-1.54 0.25,-0.13 0.82,-0.15 1.13,-0.22 0.35,-0.07 0.74,-0.22 1.12,-0.23 0.02,0.38 0.01,0.77 0,1.15 0,0.45 0.01,0.65 0.28,0.86 0.24,0.19 0.63,0.18 0.9,0.01 0.25,-0.16 0.29,-0.46 0.29,-0.85 0,-1.54 0,-3.08 0,-4.61 0,-0.35 0.05,-0.76 -0.12,-1.03 -0.33,-0.51 -1.29,-0.42 -1.34,0.37 -0.03,0.44 0,1.74 0,2.31 0,0.35 0.11,0.24 -0.74,0.41 -0.25,0.05 -1.84,0.38 -1.95,0.38zm-0.45 8.71c0.34,-0.06 1.31,-0.03 1.67,-0.01 0.07,0.29 -0.14,1.22 -0.11,1.67 0.03,0.28 0.15,0.45 0.32,0.57 0.27,0.19 0.92,0.22 1.13,-0.45l0.12 -1.24c-0.01,-0.21 0.02,-0.25 0.05,-0.43l0.05 -0.85c0.01,-0.26 0.05,-0.57 0.07,-0.84 0.02,-0.27 0.01,-0.58 0.06,-0.84 0.02,-0.13 0.07,-0.73 0.04,-0.84 -0.19,-0.84 -1.36,-0.76 -1.45,0.11 -0.03,0.22 -0.11,1.57 -0.17,1.66l-2.03 0.01c-0.04,-0.09 -0.14,-0.7 -0.15,-0.83l-0.13 -0.87c-0.07,-0.32 -0.16,-0.47 -0.41,-0.59 -0.28,-0.14 -0.57,-0.07 -0.76,0.09 -0.43,0.34 -0.22,1.01 -0.14,1.58 0.04,0.29 0.08,0.58 0.13,0.87 0.03,0.26 0.07,0.62 0.13,0.86l0.27 1.71c0.1,0.6 0.09,1.23 0.63,1.37 0.26,0.06 0.65,-0.04 0.76,-0.19 0.34,-0.45 0.11,-1.07 0.01,-1.65 -0.03,-0.2 -0.12,-0.69 -0.09,-0.87zm12.78 -4.62c-0.18,0.03 -0.22,0.09 -0.33,0.17 -0.33,0.27 -0.27,0.57 -0.41,1.06l-0.78 3.13c-0.09,0.3 -0.06,0.55 0.11,0.76 0.32,0.4 1.03,0.34 1.24,-0.19 0.11,-0.28 0.89,-3.5 0.99,-3.9 0.19,-0.75 -0.32,-1.13 -0.82,-1.03zm-1.53 6.29c-0.28,0.06 -0.41,0.15 -0.54,0.33 -0.09,0.13 -0.15,0.47 -0.19,0.66 -0.1,0.5 0.34,0.92 0.84,0.85 0.53,-0.06 0.63,-0.55 0.71,-0.99 0.1,-0.57 -0.41,-0.93 -0.82,-0.85zm-17.58 6.2l0.62 0c-0.12,-0.11 -0.14,0.02 -0.37,-0.22 -0.21,-0.22 -0.17,-0.31 -0.25,-0.36l0 0.58z"/>
 </g>
</svg>
