<?xml version="1.0" encoding="UTF-8"?>
<!DOCTYPE svg PUBLIC "-//W3C//DTD SVG 1.1//EN" "http://www.w3.org/Graphics/SVG/1.1/DTD/svg11.dtd">
<!-- Creator: CorelDRAW 2020 (64 Bit) -->
<svg xmlns="http://www.w3.org/2000/svg" xml:space="preserve" width="200px" height="200px" version="1.1" style="shape-rendering:geometricPrecision; text-rendering:geometricPrecision; image-rendering:optimizeQuality; fill-rule:evenodd; clip-rule:evenodd"
viewBox="0 0 22.8 22.8"
 xmlns:xlink="http://www.w3.org/1999/xlink"
 xmlns:xodm="http://www.corel.com/coreldraw/odm/2003">
 <defs>
  <style type="text/css">
   <![CDATA[
    .fil0 {fill:none}
    .fil1 {fill:url(#id0)}
   ]]>
  </style>
  <linearGradient id="id0" gradientUnits="userSpaceOnUse" x1="4.69" y1="11.4" x2="18.11" y2="11.4">
   <stop offset="0" style="stop-opacity:1; stop-color:#FF5C77"/>
   <stop offset="1" style="stop-opacity:1; stop-color:#0097A7"/>
  </linearGradient>
 </defs>
 <g id="Camada_x0020_1">
  <metadata id="CorelCorpID_0Corel-Layer"/>
  <rect class="fil0" width="22.8" height="22.8"/>
  <path class="fil1" d="M4.69 5.27l0 -0.02c0,-0.07 0.01,-0.11 0.02,-0.16l0 0c0.01,-0.04 0.02,-0.08 0.04,-0.13 0.05,-0.11 0.12,-0.17 0.19,-0.23 0.01,-0.02 0.02,-0.03 0.04,-0.04 0.03,-0.04 0.1,-0.07 0.17,-0.09 0.07,-0.02 0.16,-0.03 0.22,-0.03 0.06,0 0.1,0 0.14,0.01 0.04,0 0.08,0.02 0.12,0.03 0.05,0.03 0.11,0.06 0.17,0.1 0.07,0.05 0.15,0.11 0.21,0.15l0.42 0.29 0 0 0.24 0.17c0.05,0.04 0.1,0.07 0.16,0.11 0.05,0.04 0.1,0.08 0.15,0.11 0.08,0.05 0.16,0.11 0.24,0.16 0.08,0.06 0.15,0.11 0.23,0.17 0.02,0.02 0.06,0.04 0.11,0.07 0.07,0.05 0.16,0.11 0.21,0.15 0.03,0.03 0.1,0.07 0.16,0.11 0.1,0.06 0.19,0.13 0.23,0.17 0.01,0.01 0.03,0.02 0.05,0.02 0.01,0.01 0.01,0.01 0.02,0.02l0.01 0 0.27 0.2c0,0 0,0.01 0.01,0.01 0.01,0 0.01,0.01 0.03,0.01l0.39 0.28 0 0c0.01,0.01 0.03,0.01 0.05,0.02 0.04,0 0.08,-0.01 0.12,-0.01 0.04,-0.01 0.08,-0.02 0.13,-0.02 0.04,0 0.07,-0.01 0.1,-0.01 0.1,-0.02 0.2,-0.03 0.3,-0.03 0.07,-0.01 0.13,-0.01 0.2,-0.02 0.1,-0.01 0.2,-0.01 0.29,-0.02 0.07,0 0.14,0 0.21,-0.01 0.24,-0.02 0.65,-0.03 1.07,-0.03 0.5,0 1,0.01 1.25,0.04 0.04,0 0.08,0 0.12,0 0.06,0 0.12,0.01 0.16,0.01 0.07,0.01 0.13,0.01 0.2,0.02 0.03,0 0.06,0 0.08,0l0.27 0.03c0.03,0 0.06,0 0.08,0.01 0.02,0 0.04,0 0.06,0.01l0.04 0c0.12,0.01 0.24,0.03 0.35,0.05 0.02,0 0.03,0 0.05,0 0.03,0.01 0.06,0.01 0.08,0.01 0.04,0 0.06,-0.02 0.09,-0.05 0.03,-0.02 0.05,-0.04 0.09,-0.06 0.05,-0.04 0.11,-0.08 0.17,-0.13 0.08,-0.05 0.17,-0.12 0.24,-0.16l0.21 -0.15c0,-0.01 0.01,-0.01 0.01,-0.02 0.01,0 0.02,-0.01 0.03,-0.02 0.14,-0.11 0.29,-0.21 0.43,-0.32 0.01,0 0.01,-0.01 0.02,-0.01 0.01,-0.01 0.02,-0.01 0.02,-0.01l0 0 0.09 -0.07 0.51 -0.39 0.04 -0.02 0.41 -0.31 0.01 0c0.03,-0.02 0.07,-0.05 0.1,-0.07 0.02,-0.02 0.05,-0.04 0.08,-0.06l0.35 -0.25c0.07,-0.05 0.14,-0.08 0.22,-0.1 0.08,-0.01 0.16,-0.02 0.25,-0.01l0 0 0.14 0.03 0 0.01c0.06,0.02 0.13,0.05 0.19,0.1 0.05,0.04 0.1,0.09 0.14,0.15l0 0 0.05 0.09 0 0.01c0.04,0.08 0.07,0.19 0.06,0.3 0,0.1 -0.02,0.21 -0.07,0.28l-0.07 0.13 0 0c-0.07,0.1 -0.27,0.24 -0.44,0.36 -0.06,0.04 -0.12,0.08 -0.16,0.11l0 0.01c-0.03,0.01 -0.05,0.03 -0.08,0.05 -0.04,0.02 -0.08,0.05 -0.12,0.09 -0.03,0.02 -0.05,0.04 -0.08,0.06 -0.02,0.02 -0.04,0.03 -0.05,0.04 -0.04,0.03 -0.08,0.06 -0.12,0.09 -0.02,0.01 -0.04,0.02 -0.06,0.03l-0.09 0.07c-0.04,0.04 -0.09,0.08 -0.14,0.11 -0.02,0.02 -0.05,0.04 -0.07,0.05l-0.32 0.23c0,0 -0.01,0.01 -0.02,0.02 -0.01,0.01 -0.03,0.03 -0.05,0.04 -0.01,0.01 -0.02,0.02 -0.03,0.03 -0.05,0.03 -0.13,0.07 -0.18,0.11l0 0c0.06,0.02 0.14,0.05 0.21,0.07 0.05,0.02 0.09,0.04 0.11,0.04 0.02,0.01 0.04,0.01 0.05,0.02 0.02,0.01 0.04,0.01 0.09,0.03 0.07,0.01 0.13,0.04 0.2,0.07 0.02,0.01 0.05,0.02 0.07,0.03l0 0 0.26 0.12c0.19,0.11 0.39,0.23 0.58,0.35l0.23 0.2 0.12 0.14 0 0c0.02,0.03 0.04,0.06 0.05,0.08 0.02,0.03 0.03,0.06 0.05,0.09 0,0 0.01,0.01 0.01,0.03 0.01,0.01 0.02,0.03 0.03,0.05 0.01,0.02 0.01,0.03 0.01,0.03l0 0 0 0.01c0.04,0.05 0.06,0.12 0.07,0.19 0.01,0.06 0.01,0.13 0.01,0.19l0 0c0,0.63 0,1.26 0,1.89 0.01,1.36 0.01,2.73 0,4.09 0,0.03 0,0.09 0,0.17 0.01,0.29 0.01,0.8 -0.01,0.88 -0.01,0.01 -0.01,0.01 -0.01,0.01 0,0.01 0,0.01 -0.01,0.03 -0.01,0.05 -0.02,0.08 -0.03,0.1 -0.01,0.04 -0.02,0.08 -0.04,0.13 -0.03,0.06 -0.07,0.12 -0.11,0.18 -0.04,0.06 -0.09,0.12 -0.14,0.17l0 0 -0.26 0.22 0 0c-0.06,0.06 -0.12,0.09 -0.16,0.12 -0.04,0.02 -0.06,0.03 -0.09,0.05 -0.03,0.03 -0.09,0.05 -0.13,0.08 -0.02,0 -0.04,0.01 -0.05,0.02 -0.01,0.02 -0.03,0.03 -0.07,0.05l-0.38 0.16 0 0c-0.04,0.02 -0.09,0.04 -0.15,0.06 -0.05,0.02 -0.1,0.03 -0.14,0.05l0 0 -0.43 0.13c-0.01,0.01 -0.02,0.02 -0.05,0.02 -0.02,0.01 -0.03,0.01 -0.04,0.01 -0.04,0.01 -0.08,0.02 -0.11,0.03 -0.05,0.02 -0.1,0.03 -0.14,0.04 -0.03,0 -0.06,0.01 -0.08,0.02 -0.05,0.02 -0.1,0.02 -0.15,0.03 -0.03,0 -0.06,0.01 -0.09,0.01 0,0 0,0.01 -0.01,0.01 -0.01,0 -0.02,0.01 -0.04,0.01 -0.02,0.01 -0.03,0.01 -0.04,0.01 -0.01,0 -0.02,0 -0.02,0 -0.01,0 -0.01,0 -0.02,0l0 0c-0.01,0.01 -0.02,0.01 -0.1,0.02 -0.01,0.01 -0.02,0.01 -0.03,0.01l0 0c-0.02,0.01 -0.04,0.01 -0.07,0.02l-0.35 0.06c-0.01,0 -0.01,0 -0.01,0 -0.01,0 -0.02,0.01 -0.05,0.01 -0.05,0.01 -0.15,0.03 -0.24,0.04 -0.07,0.01 -0.14,0.02 -0.18,0.02 -0.04,0 -0.05,0.01 -0.07,0.01 -0.01,0 -0.03,0.01 -0.04,0.01 -0.05,0.01 -0.08,0.01 -0.11,0.01 -0.03,0 -0.07,0.01 -0.13,0.02 -0.03,0 -0.05,0 -0.07,0.01 -0.02,0 -0.04,0 -0.06,0 -0.01,0 -0.02,0 -0.04,0.01 -0.02,0 -0.05,0.01 -0.08,0.01 -0.02,0 -0.04,0 -0.06,0 -0.03,0 -0.05,0 -0.08,0 -0.02,0.01 -0.04,0.01 -0.06,0.01l0 0c-0.04,0.01 -0.08,0.02 -0.18,0.02 -0.02,0 -0.04,0.01 -0.05,0.01 -0.02,0 -0.04,0.01 -0.07,0.01 -0.07,0 -0.14,0 -0.22,0l-0.05 0c-0.04,0.01 -0.08,0.01 -0.11,0.02 -0.04,0 -0.09,0.01 -0.14,0.01 -0.02,0 -0.05,0 -0.08,0 -0.06,0 -0.12,0 -0.18,0 -0.21,0.03 -0.46,0.03 -0.69,0.02 -0.07,0 -0.14,0 -0.21,0 -0.06,0 -0.11,0 -0.16,0 -0.05,-0.01 -0.09,-0.01 -0.14,-0.01l-0.04 0c-0.19,0 -0.39,-0.01 -0.58,-0.02 -0.04,-0.01 -0.09,-0.01 -0.14,-0.01 -0.06,0 -0.11,0 -0.17,-0.01 -0.03,0 -0.05,0 -0.07,0 -0.07,-0.01 -0.13,-0.02 -0.21,-0.02 -0.05,0 -0.24,-0.02 -0.41,-0.04 -0.14,-0.01 -0.27,-0.03 -0.32,-0.04 -0.03,0 -0.05,0 -0.08,0 -0.02,0 -0.05,0 -0.06,-0.01 -0.03,0 -0.05,0 -0.06,-0.01l0 0c-0.01,0 -0.01,0 -0.02,0l-0.13 -0.01 -0.01 0c-0.02,-0.01 -0.03,-0.01 -0.04,-0.01 0,-0.01 -0.01,-0.01 -0.02,-0.01 -0.01,0 -0.04,0 -0.06,0 -0.04,-0.01 -0.08,-0.01 -0.1,-0.02 -0.02,0 -0.03,-0.01 -0.04,-0.02l0 0.01c0,0 0,0 0,0 -0.01,0 -0.02,0 -0.02,0 -0.02,0 -0.03,0 -0.05,-0.01l-0.53 -0.1c-0.05,0 -0.08,-0.01 -0.12,-0.02l-0.02 -0.01c-0.05,-0.01 -0.06,-0.02 -0.07,-0.03 0,-0.01 0.01,0.01 -0.04,0.01 -0.05,-0.01 -0.07,-0.02 -0.08,-0.03l0 0c0,0 -0.01,0 -0.02,0 -0.01,0 -0.03,0 -0.04,0 -0.03,-0.01 -0.04,-0.01 -0.05,-0.02 0,0 0,0 -0.01,0 0,0 -0.01,-0.01 -0.02,-0.01 -0.02,0 -0.03,0 -0.05,0 -0.04,-0.01 -0.07,-0.02 -0.11,-0.03 -0.04,-0.01 -0.09,-0.02 -0.13,-0.03 -0.01,0 -0.02,0 -0.03,-0.01l-0.02 0 -0.01 -0.01c-0.03,-0.01 -0.06,-0.02 -0.09,-0.03 -0.02,0 -0.04,-0.01 -0.07,-0.02 -0.05,-0.01 -0.1,-0.02 -0.15,-0.04 -0.04,-0.02 -0.07,-0.03 -0.1,-0.03l0 -0.01c-0.08,-0.02 -0.19,-0.06 -0.31,-0.1 -0.14,-0.06 -0.29,-0.13 -0.37,-0.17l-0.01 0 -0.37 -0.21 0 0c-0.07,-0.05 -0.14,-0.1 -0.2,-0.15 -0.07,-0.05 -0.13,-0.11 -0.19,-0.17 -0.05,-0.05 -0.11,-0.12 -0.16,-0.19 -0.05,-0.07 -0.1,-0.15 -0.12,-0.21 -0.04,-0.1 -0.07,-0.17 -0.09,-0.24 -0.02,-0.08 -0.03,-0.16 -0.03,-0.28l0.02 -6.89 0 0c0.01,-0.04 0.01,-0.05 0.01,-0.06 -0.01,-0.03 -0.01,-0.04 0.04,-0.16 0.01,-0.03 0.02,-0.04 0.02,-0.05 0.01,-0.03 0.02,-0.05 0.05,-0.1 0.05,-0.08 0.15,-0.2 0.2,-0.27 0,0 0.01,0 0.01,0 0.06,-0.08 0.14,-0.14 0.22,-0.21 0.08,-0.06 0.16,-0.11 0.24,-0.16l0 0c0.03,-0.01 0.05,-0.02 0.07,-0.04 0.07,-0.04 0.16,-0.1 0.22,-0.13l0.01 0c0.01,0 0.03,-0.02 0.05,-0.03 0.02,-0.01 0.04,-0.02 0.07,-0.03l0.74 -0.29 0 0c0.05,-0.02 0.11,-0.04 0.16,-0.06 0.06,-0.02 0.11,-0.03 0.17,-0.04l0.01 0c0.01,-0.01 0.01,-0.01 0.03,-0.02 0.01,0 0.02,-0.01 0.03,-0.01l-1.08 -0.75c-0.03,-0.02 -0.05,-0.03 -0.08,-0.05 -0.02,-0.02 -0.05,-0.04 -0.08,-0.06l-0.6 -0.42 0 0c-0.01,0 -0.02,-0.01 -0.04,-0.02 -0.01,-0.01 -0.02,-0.02 -0.03,-0.03l0 0 -0.31 -0.21 -0.01 -0.01c-0.02,-0.03 -0.04,-0.06 -0.06,-0.08 -0.06,-0.08 -0.1,-0.13 -0.13,-0.28 -0.01,-0.04 -0.01,-0.08 -0.01,-0.12zm2.81 12.54c-0.01,0 0,0 0,0l0 0 0 0zm0.93 0.18c0,0 0,0.01 0,0.01l0 -0.01c0,0 0,0 0,0zm9.59 -9.28l0 0 0 -0.01 0 0 0 0.01zm0 0l0 0 0 0c0,0.01 0,0 0,0zm-8.37 -1.3l0.02 0.01c0.04,0.02 0.07,0.04 0.1,0.06l0 0 0.82 0.58c0,0 0.01,0 0.01,0 0.02,-0.01 0.04,-0.02 0.07,-0.02 0.03,0 0.05,-0.01 0.08,-0.01 0.04,0 0.07,-0.01 0.12,-0.01 0.09,0 0.13,0 0.17,0.01 0.02,0 0.05,0.01 0.09,0.01 0.08,0 0.2,0.06 0.27,0.09l0.03 0.01c0.03,0.01 0.05,0.02 0.07,0.04 0.02,0.01 0.04,0.03 0.06,0.05 0.03,0.02 0.04,0.03 0.06,0.04 0.04,0.03 0.08,0.05 0.17,0.16 0.04,0.06 0.08,0.1 0.11,0.15 0.03,0.05 0.05,0.1 0.08,0.16 0.02,0.04 0.03,0.09 0.04,0.13 0,0.02 0,0.04 0.01,0.05 0.02,0.05 0.02,0.1 0.03,0.15 0,0.04 0,0.09 0,0.13 0,0.17 -0.03,0.3 -0.08,0.42 -0.05,0.12 -0.11,0.22 -0.2,0.34 -0.01,0.02 -0.07,0.07 -0.12,0.11 -0.05,0.04 -0.1,0.08 -0.13,0.1l0 0 -0.08 0.05c-0.06,0.02 -0.15,0.06 -0.24,0.09 -0.08,0.02 -0.16,0.04 -0.22,0.05 -0.03,0 -0.07,0 -0.11,0l-0.03 0c-0.05,0 -0.07,-0.01 -0.1,-0.02 -0.01,0 -0.02,0 -0.03,-0.01 0,0 -0.01,0 -0.02,0 -0.01,0 -0.03,0 -0.04,0 -0.03,-0.01 -0.04,-0.01 -0.05,-0.02l0 0c0,0 0,0 0,0 -0.01,0 -0.01,0 -0.02,0 -0.02,-0.01 -0.03,-0.01 -0.05,-0.01 -0.02,-0.01 -0.03,-0.02 -0.04,-0.03l0 0c0,0.01 0,0.01 0,0.01 -0.09,-0.03 -0.2,-0.09 -0.3,-0.17 -0.1,-0.08 -0.2,-0.17 -0.25,-0.26 -0.02,-0.02 -0.04,-0.05 -0.06,-0.09 -0.02,-0.03 -0.04,-0.07 -0.05,-0.1 -0.01,-0.05 -0.02,-0.07 -0.03,-0.09 -0.01,-0.04 -0.03,-0.06 -0.05,-0.19 -0.02,-0.06 -0.02,-0.12 -0.02,-0.17 0,-0.02 0,-0.05 0,-0.07l-0.66 -0.47 0 0 -0.42 -0.29 0 0c-0.02,-0.01 -0.04,-0.02 -0.06,-0.04 -0.05,-0.03 -0.1,-0.06 -0.14,-0.1 -0.02,-0.02 -0.05,-0.03 -0.07,-0.05 -0.02,-0.01 -0.03,-0.02 -0.05,-0.03l0 0c-0.02,-0.02 -0.05,-0.03 -0.07,-0.05 -0.04,-0.03 -0.07,-0.06 -0.12,-0.08l-0.01 -0.01 -0.39 -0.27 0 -0.01c-0.04,-0.03 -0.06,-0.02 -0.1,-0.01 -0.02,0.01 -0.05,0.02 -0.09,0.02l0 0c-0.03,0.01 -0.04,0.01 -0.04,0.01 -0.01,0.01 -0.02,0.01 -0.04,0.02 -0.02,0 -0.03,0 -0.05,0.01 -0.01,0 -0.02,0 -0.03,0 -0.06,0.03 -0.12,0.04 -0.18,0.05 -0.04,0.01 -0.09,0.02 -0.13,0.04l0 0c-0.04,0.01 -0.08,0.02 -0.12,0.04 -0.06,0.01 -0.11,0.03 -0.21,0.07 -0.01,0 -0.02,0 -0.03,0.01 0,0 -0.01,0 -0.02,0l-0.4 0.16 0 0c0,0 -0.01,0 -0.02,0.01 -0.01,0.01 -0.02,0.02 -0.04,0.02l0 0 -0.22 0.11 -0.33 0.21 -0.03 0.03c-0.06,0.05 -0.17,0.13 -0.19,0.16 -0.02,0.03 -0.04,0.05 -0.05,0.07 -0.05,0.07 -0.06,0.08 -0.11,0.21 0,0.01 -0.01,0.05 -0.01,0.08 0,0.02 0,0.05 0,0.06 0.01,0.01 0.02,0.03 0.02,0.05 0.01,0.02 0.01,0.03 0.02,0.05 0.01,0.06 0.03,0.12 0.09,0.18 0.02,0.02 0.04,0.03 0.06,0.05 0.01,0.02 0.03,0.04 0.05,0.06l0.03 0.03c0.15,0.11 0.29,0.22 0.45,0.3 0.04,0.02 0.08,0.04 0.11,0.06 0.06,0.03 0.12,0.06 0.22,0.1l0 0c0.07,0.03 0.11,0.05 0.15,0.07 0.14,0.06 0.17,0.08 0.45,0.15 0.02,0.01 0.03,0.01 0.04,0.02 0,0 0,0 0,0l0 0c0.01,0 0.01,0 0.02,0l0 0c0.02,0.01 0.04,0.01 0.07,0.03l0.34 0.1 0.01 0c0.01,0 0.02,0 0.02,0 0.03,0.01 0.05,0.01 0.1,0.03l0.21 0.06c0.04,0 0.09,0.01 0.13,0.02 0.06,0.01 0.11,0.03 0.14,0.03l0.01 0c0.07,0.01 0.13,0.02 0.2,0.04 0.09,0.02 0.18,0.04 0.27,0.04 0.01,0 0.04,0 0.06,0.01 0.05,0.02 0.12,0.04 0.22,0.04 0.03,0 0.05,0.01 0.07,0.02 0,0 0.01,0 0.02,0l0.3 0.03c0.04,0.01 0.06,0.01 0.09,0.02 0.03,0 0.07,0.01 0.11,0.01l0 0 0.41 0.04 0 0c0.23,0.03 0.62,0.05 1.02,0.06 0.42,0.01 0.86,0.01 1.12,0l0.94 -0.05c0.02,0 0.04,-0.01 0.06,-0.01 0.01,0 0.02,0 0.03,-0.01 0.04,0 0.09,0 0.13,0 0.03,0 0.06,0 0.09,0 0.03,-0.01 0.05,-0.01 0.08,-0.01 0.03,-0.01 0.07,-0.02 0.12,-0.02 0.07,0 0.15,-0.01 0.23,-0.02 0.1,-0.02 0.2,-0.03 0.28,-0.03 0.01,0 0.03,-0.01 0.05,-0.01 0.03,-0.01 0.07,-0.02 0.14,-0.02 0.01,0 0.02,-0.01 0.03,-0.01 0.01,0 0.03,-0.01 0.05,-0.01l0.56 -0.09c0.05,-0.02 0.1,-0.03 0.15,-0.03 0.05,-0.01 0.09,-0.01 0.13,-0.03 0.03,-0.01 0.05,-0.01 0.07,-0.01 0.01,0 0.02,0 0.04,-0.01 0.01,0 0.01,0 0.02,-0.01 0.02,0 0.04,-0.01 0.07,-0.01l0.03 0c0.01,-0.01 0.02,-0.01 0.05,-0.02 0.02,-0.01 0.05,-0.01 0.07,-0.02 0.04,0 0.07,-0.01 0.1,-0.02 0.04,-0.02 0.06,-0.02 0.08,-0.02 0,0 0,0 0.01,0l0.12 -0.04 0 0c0.03,-0.01 0.06,-0.02 0.09,-0.03 0.1,-0.03 0.21,-0.06 0.28,-0.1l0 0 0.17 -0.06c0.05,-0.02 0.09,-0.03 0.13,-0.05 0.07,-0.02 0.13,-0.04 0.19,-0.07 0.03,-0.02 0.07,-0.04 0.11,-0.05 0.04,-0.02 0.08,-0.04 0.11,-0.06 0.04,-0.02 0.08,-0.04 0.12,-0.07 0.08,-0.04 0.15,-0.08 0.22,-0.13 0.01,-0.01 0.03,-0.02 0.04,-0.03 0,0 0.01,0 0.02,-0.01 0.03,-0.03 0.06,-0.05 0.09,-0.07 0.04,-0.03 0.08,-0.06 0.11,-0.09l0.16 -0.22c0.02,-0.04 0.03,-0.09 0.04,-0.13 0.01,-0.04 0.01,-0.07 0,-0.1l0 -0.03c-0.02,-0.07 -0.03,-0.1 -0.04,-0.12 -0.01,-0.03 -0.03,-0.06 -0.07,-0.11l-0.01 -0.03 -0.4 -0.34 -0.34 -0.19 -0.09 -0.04 -0.08 -0.03 -0.02 -0.01 0 0c-0.02,-0.01 -0.03,-0.01 -0.05,-0.02 -0.03,-0.01 -0.04,-0.02 -0.06,-0.03l0 0c-0.01,0 -0.01,-0.01 -0.02,-0.01l-0.31 -0.11c-0.05,-0.01 -0.12,-0.04 -0.19,-0.06 -0.08,-0.03 -0.17,-0.06 -0.24,-0.07 -0.03,-0.01 -0.07,-0.02 -0.11,-0.04 -0.05,-0.02 -0.1,-0.04 -0.13,-0.03 0,0 -0.07,0.05 -0.11,0.08 -0.02,0.02 -0.03,0.03 -0.04,0.04l0 0 -0.56 0.4c0,0.03 0,0.05 0,0.08 0,0.02 0,0.05 0,0.07 0,0.1 -0.03,0.2 -0.06,0.31 -0.04,0.1 -0.1,0.2 -0.16,0.28l-0.08 0.11 -0.23 0.19 0 0c-0.04,0.03 -0.09,0.06 -0.14,0.08 -0.05,0.02 -0.1,0.04 -0.15,0.05 -0.04,0.01 -0.07,0.01 -0.09,0.02 -0.13,0.03 -0.13,0.04 -0.35,0.03 -0.04,0 -0.05,-0.01 -0.08,-0.01 0,-0.01 -0.01,-0.01 -0.01,-0.01 -0.03,0 -0.04,-0.01 -0.06,-0.01 -0.05,0 -0.1,-0.01 -0.23,-0.07 -0.11,-0.06 -0.22,-0.13 -0.31,-0.22l0 0c-0.09,-0.08 -0.17,-0.18 -0.23,-0.29 -0.02,-0.04 -0.04,-0.08 -0.06,-0.13 -0.02,-0.05 -0.04,-0.11 -0.05,-0.16 -0.02,-0.06 -0.02,-0.12 -0.03,-0.18l0 0c0,-0.12 0,-0.25 0.04,-0.37 0,-0.02 0,-0.03 0.01,-0.04 0,0 0,-0.01 0.01,-0.03l0 0c0.01,-0.07 0.04,-0.13 0.07,-0.19 0.03,-0.05 0.07,-0.1 0.11,-0.15 0,-0.01 0.01,-0.02 0.01,-0.03 0.04,-0.05 0.08,-0.1 0.14,-0.14l0 0c0.03,-0.02 0.05,-0.04 0.08,-0.06 0.02,-0.01 0.04,-0.03 0.06,-0.04 -0.11,-0.01 -0.28,-0.02 -0.43,-0.02 -0.12,-0.01 -0.23,-0.01 -0.27,-0.02 -0.3,-0.03 -1.17,0 -1.64,0.01 -0.08,0 -0.15,0 -0.2,0.01 -0.03,0 -0.07,0 -0.1,0 -0.04,0 -0.08,0 -0.12,0.01 -0.03,0 -0.04,0 -0.05,0 -0.02,0 -0.03,0.01 -0.05,0.01 -0.05,0 -0.1,0.01 -0.15,0.01 -0.06,0 -0.12,0 -0.18,0.01 -0.02,0 -0.03,0.01 -0.05,0.01zm0.85 2.86c0,0 0,0 0,0 -0.01,-0.01 0,0 0,0l0 0zm-0.88 2.38l-0.01 3.53 0.26 0.19 0.01 0.01c0.06,0.08 0.1,0.16 0.12,0.21 0,0.02 -0.01,0.02 0,0.02 0.01,0 0.09,0.01 0.15,0.01 0.03,0 0.06,0 0.08,0 0.02,0 0.04,0.01 0.05,0.01 0.01,0 0.02,0 0.04,0.01 0.11,0 0.23,0 0.34,0.01l0.03 0c0.06,0 0.11,0 0.17,0 0.07,0.01 0.14,0.01 0.19,0.01 0.17,0 0.45,0.01 0.7,0 0.17,0 0.32,0 0.42,-0.01 0.06,-0.01 0.13,-0.01 0.2,-0.01 0.06,0 0.12,0 0.18,-0.01 0.04,0 0.07,0 0.1,0 0.02,-0.01 0.04,-0.01 0.07,-0.01 0.03,0 0.06,0 0.09,-0.01 0.02,0 0.03,0 0.05,0 0,0 0,-0.01 0.01,-0.02 0.01,-0.03 0.02,-0.07 0.04,-0.1l0 0c0.03,-0.05 0.06,-0.09 0.1,-0.13 0.09,-0.11 0.17,-0.14 0.22,-0.16l0.02 -0.01c0.01,-0.29 0,-2.12 0,-3.04 0,-0.24 0,-0.41 0,-0.49 0,-0.01 -0.01,-0.01 -0.03,-0.02 -0.05,-0.02 -0.1,-0.04 -0.16,-0.1 -0.08,-0.07 -0.1,-0.11 -0.14,-0.18l-0.01 -0.01c-0.03,0 -0.07,0 -0.1,0 -0.07,0 -0.14,0.01 -0.19,0.02 -0.06,0 -0.17,0.01 -0.3,0.01 -0.14,0 -0.3,0 -0.42,0.01 -0.08,0.01 -0.28,0.01 -0.5,0.01 -0.32,0 -0.69,-0.01 -0.78,-0.02 -0.04,0 -0.09,0 -0.13,0 -0.08,-0.01 -0.15,-0.01 -0.22,-0.02 -0.05,0 -0.11,-0.01 -0.16,-0.01 -0.05,0 -0.1,0 -0.15,0 -0.1,0.16 -0.13,0.19 -0.32,0.29l0 0 -0.02 0.01zm4.18 0.01l0 3.52 0.1 0.06c0.05,0.03 0.08,0.05 0.12,0.08 0.03,0.04 0.06,0.08 0.1,0.14 0.01,0.01 0.01,0.01 0.01,0.01l0 0c0.01,0 0.02,-0.01 0.03,-0.01 0.02,0 0.03,-0.01 0.05,-0.01 0.02,0 0.05,0 0.1,-0.01l0 -0.01c0.08,-0.01 0.16,-0.02 0.24,-0.03l0 0c0.02,0 0.03,-0.01 0.04,-0.01l0 0c0.02,-0.01 0.05,-0.01 0.12,-0.02l0.58 -0.13c0.01,-0.01 0.03,-0.02 0.06,-0.03 0.02,0 0.04,0 0.05,0 0.01,0 0.02,0 0.03,-0.01 0.02,0 0.05,-0.01 0.08,-0.02 0.04,-0.01 0.09,-0.02 0.11,-0.04 0,0 0,-0.03 0.02,-0.07 0.02,-0.06 0.04,-0.14 0.08,-0.19 0.09,-0.12 0.11,-0.13 0.22,-0.21l0.02 0c0.03,-0.02 0.05,-0.03 0.06,-0.04l0 -3.52 -0.01 0c-0.06,-0.03 -0.16,-0.09 -0.23,-0.16 -0.01,-0.02 -0.01,-0.03 -0.02,-0.03 0,-0.01 0,-0.01 -0.05,0 0,0 -0.01,0.01 -0.01,0.01l0 0c-0.01,0 -0.02,0.01 -0.06,0.02l-0.09 0.02 0 0c-0.02,0.01 -0.03,0.01 -0.05,0.01 -0.01,0 -0.02,0 -0.03,0l-0.01 0 -0.44 0.1 -0.02 0c-0.01,0.01 -0.02,0.01 -0.02,0.01l0 0 -0.68 0.11c-0.05,0.01 -0.08,0.02 -0.11,0.02 0,0 0,0 0,0.01 0,0.02 -0.01,0.05 -0.02,0.07l0 0 -0.1 0.15 -0.21 0.19 0 0c-0.03,0.01 -0.04,0.02 -0.06,0.02zm-6.95 -0.55l0 3.51c0.03,0.02 0.04,0.03 0.06,0.03 0.02,0.01 0.04,0.02 0.06,0.03l0 0.01c0.06,0.06 0.11,0.12 0.16,0.18l0 0c0.06,0.09 0.06,0.1 0.07,0.14 0.01,0.01 0.01,0.03 0.02,0.05 0,0.01 0,0.01 0.01,0.01l0 0c0.01,0.02 0.02,0.03 0.02,0.08 0,0.01 0,0.01 0,0.01 0.01,0 0.02,0.01 0.04,0.01l0.43 0.12 0 0c0.01,0 0.02,0 0.03,0 0.01,0 0.02,0 0.04,0.01 0.02,0 0.03,0.01 0.05,0.01 0,0 0.01,0.01 0.01,0.01 0.01,0 0.02,0 0.03,0 0.02,0 0.04,0 0.06,0.01 0.03,0.01 0.04,0.01 0.04,0.02 0.01,0 0,-0.01 0.02,0l0 0c0.05,0 0.15,0.02 0.27,0.04 0.17,0.03 0.38,0.07 0.47,0.08 0.01,-0.02 0.02,-0.03 0.06,-0.08 0.01,-0.02 0.05,-0.06 0.08,-0.09 0.02,-0.02 0.05,-0.04 0.07,-0.05l0.12 -0.07 0 -3.52c-0.02,0 -0.05,-0.01 -0.08,-0.03 -0.05,-0.03 -0.1,-0.07 -0.15,-0.12 -0.04,-0.04 -0.08,-0.09 -0.09,-0.13 -0.01,-0.01 -0.02,-0.03 -0.03,-0.04 -0.02,-0.04 -0.03,-0.08 -0.04,-0.13 0,0 -0.01,0 -0.01,0 -0.01,0 -0.01,0 -0.02,0 -0.03,0 -0.04,-0.01 -0.05,-0.01 0,0 0,0 -0.01,0 -0.02,-0.01 -0.06,-0.01 -0.09,-0.01 -0.03,0 -0.07,0 -0.11,-0.01 -0.02,0 -0.03,0 -0.04,-0.01 -0.01,0 -0.02,0 -0.03,-0.01 -0.09,-0.01 -0.14,-0.02 -0.2,-0.03 -0.02,0 -0.04,-0.01 -0.09,-0.02 -0.01,0 -0.02,0 -0.04,0 -0.01,0 -0.03,0 -0.05,-0.01l0 0 -0.53 -0.12 0 0c-0.02,0 -0.03,0 -0.04,-0.01 -0.02,0 -0.03,0 -0.05,0 -0.02,-0.01 -0.04,-0.01 -0.06,-0.02 -0.03,-0.01 -0.07,-0.02 -0.1,-0.03 -0.03,0 -0.04,-0.01 -0.05,-0.01 -0.01,0.01 -0.02,0.02 -0.03,0.03 -0.09,0.08 -0.1,0.09 -0.15,0.12 -0.01,0.01 -0.03,0.02 -0.07,0.05l-0.01 0zm-0.78 -1.12l0.03 -0.04 0 -0.01c0.05,-0.04 0.11,-0.08 0.18,-0.12 0.07,-0.03 0.13,-0.05 0.19,-0.05 0.29,-0.01 0.33,0.02 0.47,0.11 0.03,0.02 0.06,0.04 0.1,0.06 0.02,0.01 0.04,0.03 0.06,0.07 0.03,0.04 0.06,0.09 0.07,0.11 0.06,0.1 0.07,0.16 0.09,0.21 0,0.03 0,0.04 0.01,0.05 0,0 0.14,0.03 0.2,0.05l0.03 0 0 0c0.08,0.02 0.1,0.03 0.12,0.03 0.01,0 0.03,0 0.07,0.01 0.02,0 0.03,0 0.05,0.01 0.01,0 0.02,0.01 0.04,0.01 0.04,0 0.07,0.02 0.11,0.03 0.02,0.01 0.05,0.02 0.08,0.02 0.01,0 0.02,0 0.04,0 0.02,0 0.04,0 0.07,0.01 0.02,0 0.03,0.01 0.05,0.01 0.01,0.01 0.02,0.01 0.03,0.01 0.07,0.01 0.09,0.01 0.11,0.03 0.03,0 0.08,0.01 0.12,0.01 0.07,0 0.14,0.01 0.19,0.03 0.03,0.01 0.04,0.01 0.09,0.01l0 0c0.01,0 0.03,0 0.04,0 0.02,0 0.03,0.01 0.05,0 0.01,0 0,-0.01 0.01,-0.02l0 0c0.02,-0.03 0.04,-0.06 0.07,-0.09 0.08,-0.08 0.17,-0.14 0.26,-0.18 0.1,-0.03 0.21,-0.05 0.33,-0.03 0.11,0.01 0.21,0.04 0.29,0.1 0.09,0.05 0.16,0.13 0.21,0.22 0.03,0.03 0.04,0.06 0.06,0.09 0,0.02 0.01,0.04 0.02,0.07 0.03,0 0.09,0 0.14,0.01 0.06,0 0.12,0 0.15,0.01 0.05,0 0.19,0.01 0.36,0.01 0.29,0.01 0.65,0.01 0.76,0.01 0.14,0 0.27,0 0.41,-0.01 0.11,0 0.23,0 0.34,0 0.13,0 0.26,-0.01 0.4,-0.02 0.09,-0.01 0.19,-0.02 0.29,-0.02 0.01,-0.02 0.02,-0.04 0.03,-0.06 0.02,-0.07 0.04,-0.12 0.15,-0.23l0.01 0c0.09,-0.08 0.18,-0.13 0.29,-0.16 0.1,-0.03 0.21,-0.03 0.33,-0.02l0.01 0 0.13 0.04 0.01 0.01c0.05,0.03 0.11,0.07 0.16,0.11 0.05,0.04 0.09,0.09 0.13,0.15 0,0.01 0.01,0.02 0.01,0.03l0.67 -0.1c0.03,-0.01 0.07,-0.02 0.12,-0.03 0.06,-0.01 0.14,-0.02 0.21,-0.04l0.49 -0.12c0.01,-0.02 0.01,-0.04 0.01,-0.05 0.04,-0.14 0.06,-0.22 0.19,-0.35 0.01,-0.01 0.01,-0.01 0.02,-0.02 0.02,-0.03 0.05,-0.06 0.08,-0.08 0.1,-0.05 0.16,-0.08 0.23,-0.1 0.06,-0.01 0.13,-0.01 0.25,-0.01 0.1,0.01 0.2,0.06 0.27,0.09 0,0.01 0,0 0.02,0.02 0.04,0.02 0.05,0.02 0.06,0.04 0.01,0.01 0.01,0.02 0.02,0.03 0.04,0.04 0.05,0.03 0.07,0.02 0.01,-0.01 0.03,-0.02 0.06,-0.03l0 0 0.13 -0.05 0.47 -0.25c0.08,-0.05 0.08,-0.05 0.07,-0.11 0,-0.03 0,-0.06 0,-0.1l0 0 0 -0.39 0 0c-0.02,0.02 -0.04,0.03 -0.05,0.04 -0.1,0.08 -0.19,0.14 -0.29,0.19 -0.09,0.06 -0.19,0.11 -0.3,0.16 -0.01,0.01 -0.03,0.02 -0.05,0.03 -0.04,0.02 -0.07,0.03 -0.12,0.05l-0.26 0.11 0 0 -0.32 0.12 0 0c-0.02,0.01 -0.04,0.01 -0.06,0.02 -0.03,0.01 -0.07,0.01 -0.12,0.04l0 0c-0.04,0.01 -0.08,0.02 -0.11,0.03 -0.03,0.01 -0.06,0.01 -0.08,0.02 -0.05,0.02 -0.14,0.03 -0.18,0.04 -0.02,0.01 -0.04,0.02 -0.07,0.02l0 0 -0.25 0.06 -0.01 0c-0.01,0 -0.02,0 -0.02,0 -0.01,0.01 -0.03,0.02 -0.07,0.02 -0.01,0 -0.02,0 -0.03,0 -0.01,0 -0.02,0 -0.02,0 -0.01,0.01 -0.02,0.01 -0.03,0.02l0 0c-0.07,0.01 -0.14,0.03 -0.21,0.04 -0.02,0 -0.02,0 -0.02,0l0 0c-0.01,0.01 -0.03,0.02 -0.07,0.02 -0.04,0.01 -0.08,0.02 -0.13,0.03 -0.06,0.01 -0.12,0.02 -0.18,0.03 -0.03,0 -0.04,0 -0.05,0 -0.01,0.01 -0.02,0.01 -0.03,0.01 -0.03,0.01 -0.05,0.01 -0.08,0.01 -0.01,0.01 -0.02,0.01 -0.03,0.01 -0.02,0 -0.02,0 -0.03,0.01 -0.02,0 -0.04,0.01 -0.09,0.01 -0.01,0 -0.02,0 -0.03,0 -0.03,0 -0.05,0 -0.07,0 -0.01,0 -0.02,0.01 -0.03,0.01 -0.02,0.01 -0.04,0.01 -0.08,0.01l-0.02 0.01c-0.02,0 -0.04,0 -0.07,0 -0.02,0.01 -0.26,0.04 -0.48,0.07 -0.16,0.01 -0.32,0.03 -0.38,0.03 -0.03,0 -0.05,0 -0.08,0 -0.05,0 -0.1,0 -0.15,0.01 -0.04,0 -0.08,0 -0.12,0.01 -0.07,0.01 -0.14,0.01 -0.21,0.02 -0.03,0 -0.04,0 -0.06,0 -0.01,0 -0.02,0.01 -0.04,0.01 -0.19,0.02 -0.93,0.01 -1.29,0.01l-0.12 0c-0.15,0 -0.28,-0.01 -0.41,-0.02 -0.1,0 -0.19,0 -0.28,-0.01l-0.03 0c-0.07,0 -0.15,0 -0.2,-0.01 -0.04,0 -0.07,-0.01 -0.11,-0.01 -0.04,0 -0.07,0 -0.11,-0.01 -0.06,0 -0.09,0 -0.13,-0.01 -0.03,0 -0.06,-0.01 -0.09,-0.01 -0.02,0 -0.04,0 -0.06,0 -0.05,0 -0.12,-0.01 -0.16,-0.02 -0.02,0 -0.12,-0.02 -0.23,-0.03 -0.15,-0.01 -0.32,-0.03 -0.39,-0.05l-0.32 -0.04c-0.03,0 -0.05,-0.01 -0.06,-0.01l0 0c-0.01,0 -0.03,-0.01 -0.04,-0.01 -0.01,0 -0.02,0 -0.04,0 -0.02,0 -0.04,-0.01 -0.07,-0.01l-0.28 -0.07c-0.07,-0.01 -0.14,-0.02 -0.2,-0.03 -0.07,-0.02 -0.14,-0.03 -0.2,-0.05 -0.02,0 -0.05,-0.01 -0.08,-0.01 -0.04,-0.01 -0.09,-0.02 -0.13,-0.03 -0.01,-0.01 -0.03,-0.01 -0.04,-0.01 -0.01,-0.01 -0.03,-0.01 -0.05,-0.01l-0.09 -0.03 -0.01 -0.01c-0.03,0 -0.07,-0.01 -0.09,-0.02 -0.01,0 -0.02,-0.01 -0.03,-0.01l0 0 0 0c-0.11,-0.03 -0.19,-0.06 -0.27,-0.09 -0.04,-0.01 -0.08,-0.02 -0.14,-0.04l-0.02 -0.01c-0.11,-0.03 -0.22,-0.07 -0.34,-0.12l-0.07 -0.03 -0.07 -0.03c-0.01,-0.01 -0.03,-0.01 -0.04,-0.01 -0.03,-0.02 -0.06,-0.03 -0.1,-0.05 -0.04,-0.03 -0.11,-0.07 -0.18,-0.1 -0.07,-0.04 -0.13,-0.07 -0.18,-0.1l-0.01 0 -0.31 -0.22c0,0.1 0,0.24 0,0.37 0,0.11 0,0.18 0,0.19 0.02,0.02 0.15,0.09 0.29,0.16 0.14,0.08 0.29,0.15 0.34,0.17l0 0c0,0.01 0.02,0.01 0.03,0.02 0.03,0.01 0.07,0.03 0.1,0.04zm0.97 -0.15l0 0 0 0 0 0zm9.95 5.38c0,0.03 0,0.06 0,0.08 0,0.08 0,0.15 -0.05,0.25 -0.02,0.07 -0.05,0.12 -0.08,0.16l0.28 -0.17c0.02,-0.02 0.07,-0.05 0.11,-0.09 0.04,-0.03 0.07,-0.06 0.09,-0.08 0.04,-0.05 0.05,-0.07 0.06,-0.08 0.01,-0.01 0.02,-0.02 0.06,-0.08 0.05,-0.07 0.07,-0.12 0.08,-0.18 0.01,-0.05 0.02,-0.1 0.02,-0.16 -0.01,0.01 -0.02,0.02 -0.04,0.03l0 0c-0.14,0.09 -0.28,0.18 -0.42,0.28l-0.01 0c-0.01,0.01 -0.03,0.01 -0.04,0.01 0,0 -0.01,0 -0.01,0.01l-0.05 0.02zm-0.72 0.76c-0.08,-0.01 -0.17,-0.03 -0.23,-0.06 -0.03,-0.02 -0.04,-0.02 -0.06,-0.03 -0.04,-0.02 -0.08,-0.03 -0.14,-0.09 -0.05,-0.04 -0.07,-0.07 -0.09,-0.09 -0.01,-0.01 0.01,-0.01 0,-0.01 0,0 -0.02,0 -0.06,0.01 -0.04,0.01 -0.09,0.03 -0.17,0.04l0 0 -0.15 0.04 -0.01 0.01c-0.01,0 -0.03,0 -0.04,0 -0.02,0 -0.03,0.01 -0.03,0.01 -0.01,0 -0.02,0.01 -0.04,0.01l0 0 -0.21 0.04 -0.01 0c-0.02,0.01 -0.04,0.02 -0.08,0.02 -0.05,0.01 -0.1,0.02 -0.14,0.03 -0.06,0.01 -0.12,0.02 -0.19,0.03 0,0 0,0 0,-0.01l0 0c-0.01,0.01 -0.02,0.02 -0.05,0.03 -0.03,0 -0.05,0 -0.08,0 -0.01,0.02 -0.04,0.04 -0.08,0.02l-0.01 0c-0.02,0.01 -0.04,0.01 -0.05,0.01 -0.02,0 -0.03,0.01 -0.03,0.01 -0.01,0 -0.02,0 -0.03,0 -0.01,0.01 -0.02,0.01 -0.06,0.02l-0.03 0c-0.01,0 0,-0.01 -0.01,-0.01 0,0.01 0,0.01 -0.01,0.03l0 0 0 0.02c-0.01,0 -0.01,0.01 -0.01,0.01 0,0.02 -0.01,0.03 -0.02,0.06 -0.02,0.04 -0.04,0.07 -0.07,0.11l0 0c-0.02,0.04 -0.06,0.08 -0.09,0.11 -0.01,0 -0.02,0.01 -0.03,0.02 -0.02,0.01 -0.03,0.03 -0.06,0.05 -0.02,0 -0.03,0.01 -0.04,0.02 -0.03,0.02 -0.05,0.03 -0.11,0.05 -0.05,0.01 -0.13,0.03 -0.21,0.03 -0.06,0.01 -0.13,0 -0.18,-0.02 -0.03,-0.01 -0.06,-0.02 -0.08,-0.02 -0.08,-0.03 -0.1,-0.03 -0.2,-0.11 -0.04,-0.03 -0.07,-0.07 -0.1,-0.11 -0.03,-0.03 -0.05,-0.06 -0.07,-0.09 -0.12,-0.01 -0.28,0.01 -0.41,0.02 -0.06,0.01 -0.06,0.01 -0.09,0.01 -0.14,0.01 -0.57,0.01 -0.83,0.01 -0.06,0 -0.11,0 -0.15,0 -0.13,0 -0.25,0 -0.38,0 -0.13,-0.01 -0.26,-0.01 -0.39,-0.01 -0.07,0 -0.13,0 -0.19,-0.01 -0.05,0 -0.11,-0.01 -0.18,-0.01l-0.19 0c-0.04,-0.01 -0.07,-0.01 -0.09,-0.01 -0.02,0 -0.04,-0.01 -0.05,-0.01 -0.01,0.01 -0.01,0.02 -0.02,0.03 -0.02,0.04 -0.04,0.07 -0.13,0.16 -0.05,0.05 -0.11,0.08 -0.16,0.11 -0.14,0.06 -0.29,0.08 -0.43,0.06 -0.14,-0.03 -0.28,-0.11 -0.39,-0.22 -0.05,-0.06 -0.09,-0.12 -0.12,-0.19 -0.01,-0.02 -0.02,-0.04 -0.02,-0.07 -0.01,-0.01 -0.01,-0.03 -0.02,-0.03 -0.08,0 -0.09,-0.01 -0.11,-0.02 0,0 0.01,0 -0.01,0 -0.08,-0.01 -0.3,-0.04 -0.48,-0.07 -0.12,-0.02 -0.22,-0.04 -0.27,-0.06l-0.52 -0.11 0 0c-0.02,-0.01 -0.03,-0.01 -0.04,-0.02 -0.03,-0.01 -0.07,-0.02 -0.12,-0.03 -0.01,0.02 -0.02,0.03 -0.03,0.04 -0.03,0.03 -0.06,0.06 -0.09,0.08 -0.09,0.07 -0.18,0.11 -0.27,0.13 -0.07,0.02 -0.14,0.02 -0.22,0.02 0.07,0.03 0.15,0.06 0.23,0.08 0.08,0.03 0.15,0.05 0.22,0.07l0 0c0.04,0.01 0.08,0.02 0.11,0.03 0.03,0.01 0.09,0.03 0.15,0.04 0.08,0.02 0.15,0.04 0.18,0.05 0.02,0.01 0.1,0.02 0.17,0.04 0.07,0.01 0.13,0.03 0.16,0.04 0.03,0.01 0.04,0.01 0.05,0.01 0.02,0 0.03,0 0.06,0.01 0.03,0 0.06,0.01 0.08,0.02 0.05,0.01 0.09,0.02 0.14,0.02 0.03,0 0.05,0.01 0.08,0.02 0.01,0 0.02,0 0.04,0.01 0.01,0 0.01,0 0.02,0 0.01,0 0.02,0 0.04,0 0.03,0.01 0.04,0.01 0.05,0.02 0,0 0,0 0.01,0 0.01,0 0.02,0 0.03,0 0.03,0 0.06,0.01 0.09,0.02l0 0c0.03,0 0.05,0.01 0.08,0.01 0.03,0 0.06,0 0.1,0.01 0.02,0 0.03,0.01 0.04,0.01 0,0 0,0.01 0,0.01 0.02,0 0.03,0 0.05,0 0.03,0 0.05,0 0.08,0.01 0.04,0.01 0.07,0.01 0.1,0.01 0.03,0 0.06,0 0.09,0.01 0.03,0 0.05,0.01 0.06,0.02 0.01,0 0.04,0 0.07,0 0.01,0 0.02,0 0.04,0 0.05,0 0.11,0.01 0.16,0.02 0.03,0 0.06,0 0.1,0.01 0.04,0 0.11,0.01 0.19,0.02 0.12,0.01 0.25,0.03 0.3,0.03 0.18,0 0.35,0.01 0.52,0.03 0.18,0.01 0.36,0.02 0.53,0.02 0.09,0 0.18,0.01 0.26,0.01 0.09,0 0.19,0.01 0.28,0.01l0.06 0c0.27,0 0.8,0 1,-0.03 0.05,-0.01 0.11,-0.01 0.18,-0.01 0.04,0 0.09,0 0.14,-0.01 0.02,0 0.03,0 0.04,0 0.03,-0.01 0.07,-0.02 0.15,-0.02 0.02,0 0.04,0 0.06,0l0 0c0.02,0 0.05,0 0.07,0 0.01,0 0.01,-0.01 0.01,-0.01 0.01,0 0.02,0 0.04,-0.01 0.04,0 0.08,0 0.11,-0.01 0.03,0 0.06,0 0.08,0 0.02,0 0.03,-0.01 0.04,-0.01l0 0c0.03,0 0.06,-0.01 0.09,-0.01 0.02,0 0.04,0 0.07,0 0.02,0 0.04,0 0.06,-0.01 0.01,0 0.02,0 0.04,-0.01 0.02,0 0.04,-0.01 0.07,-0.01 0.04,-0.01 0.08,-0.01 0.12,-0.02 0.08,-0.01 0.16,-0.03 0.24,-0.03 0.02,0 0.03,0 0.05,-0.01 0.02,0 0.05,0 0.06,0l0.01 0c0.07,-0.02 0.15,-0.03 0.23,-0.05l0 0c0.02,0 0.03,-0.01 0.05,-0.01 0.01,0 0.03,-0.01 0.06,-0.01l0.11 -0.02 0 0c0.02,-0.01 0.05,-0.01 0.1,-0.02 0.08,-0.01 0.2,-0.03 0.25,-0.05l0 0 0.12 -0.02 0 0c0,0 0.01,-0.01 0.01,-0.01 0.01,0 0.02,0 0.03,-0.01l0.01 0c0.02,0 0.04,-0.01 0.06,-0.01 0.07,-0.02 0.17,-0.03 0.2,-0.05 0.04,-0.02 0.06,-0.02 0.09,-0.02 0.01,-0.01 0.02,-0.01 0.04,-0.01 0.06,-0.01 0.14,-0.04 0.22,-0.06 0.1,-0.03 0.21,-0.07 0.3,-0.1 0.02,-0.01 0.05,-0.02 0.07,-0.03l0 0c0.02,-0.01 0.04,-0.02 0.06,-0.02zm-1.65 -0.05c0,0 0.01,-0.01 0.01,-0.01 0,0.01 -0.01,0.01 -0.01,0.01l0 0zm-8.55 -0.16c-0.04,-0.04 -0.08,-0.09 -0.11,-0.15 -0.05,-0.1 -0.09,-0.21 -0.09,-0.31 0,-0.02 0,-0.04 0,-0.05 0,-0.01 0,-0.03 0,-0.04 -0.03,-0.01 -0.06,-0.03 -0.09,-0.05 -0.02,-0.01 -0.04,-0.02 -0.06,-0.03 0,0 0,0 -0.01,-0.01 -0.01,0 -0.02,0 -0.03,-0.01l-0.01 0 -0.31 -0.22c-0.02,-0.01 -0.03,-0.02 -0.05,-0.03 0,0.05 0,0.1 0.01,0.14 0.02,0.08 0.05,0.15 0.11,0.23 0.05,0.08 0.1,0.14 0.16,0.2 0.05,0.05 0.12,0.1 0.19,0.15l0.09 0.06c0.07,0.05 0.1,0.07 0.14,0.09 0.01,0.01 0.03,0.02 0.06,0.03zm11.54 -0.96c0.01,0 0.02,0 0,0 0,0 0,0 0,0zm-12.3 -4.58c0,0.08 0,0.18 0,0.46 0,1.05 0,3.24 0.01,3.3 0,0.01 0.01,0.04 0.02,0.08 0.03,0.04 0.05,0.09 0.07,0.12 0.05,0.08 0.13,0.15 0.2,0.22 0.03,0.02 0.05,0.04 0.08,0.07l0 0c0.01,0.01 0.08,0.05 0.14,0.09 0.04,0.02 0.07,0.04 0.1,0.06 0.03,0.02 0.03,0.02 0.04,0.02 0,0 0.01,0.01 0.03,0.01l0 0c0.01,0.01 0.04,0.02 0.06,0.04 0.03,0.01 0.06,0.03 0.06,0.03 0.02,0 0,0 0.02,-0.01 0.04,-0.03 0.1,-0.06 0.15,-0.08l0 -3.53 -0.02 -0.01c-0.08,-0.04 -0.22,-0.11 -0.32,-0.3 -0.01,-0.03 -0.02,-0.05 -0.02,-0.06 -0.01,-0.01 -0.02,-0.02 -0.02,-0.03 -0.01,-0.02 -0.01,-0.03 -0.02,-0.06l-0.01 -0.06c-0.01,-0.03 -0.01,-0.06 -0.01,-0.08l0 -0.01 -0.53 -0.24 -0.01 -0.02 -0.02 -0.01zm11.68 0.27c0,0.13 -0.01,0.16 -0.07,0.3 -0.07,0.14 -0.19,0.21 -0.31,0.29l-0.02 0.02 -0.01 3.52c0.02,0 0.04,0.01 0.09,0.05l0 0c0.02,0.01 0.03,0.02 0.05,0.03 0.03,0.02 0.04,0.03 0.13,-0.03l0 0 0.4 -0.27 0.02 -0.01c0.09,-0.09 0.17,-0.16 0.22,-0.27 0.01,-0.02 0.02,-0.03 0.02,-0.03 0,0 0,0 0,0 0.02,-0.04 0.03,-0.07 0.04,-0.1 0.01,-0.03 0.01,-0.07 0.01,-0.11l0 0 0 -3.66 -0.08 0.04c-0.02,0.01 -0.03,0.02 -0.04,0.02 -0.01,0.01 -0.02,0.01 -0.04,0.02l0 0.01 -0.21 0.09 0 0c-0.01,0 -0.02,0 -0.02,0l0 0.01c0,0 0,-0.01 0,0 -0.01,0 -0.01,0 -0.01,0 -0.02,0.01 -0.04,0.03 -0.09,0.04 -0.04,0.01 -0.05,0.02 -0.07,0.04l-0.01 0zm0.52 3.6c0,0 0,0 0,0zm-6.61 -6.52c-0.08,0 -0.14,0.02 -0.2,0.03 -0.1,0.03 -0.17,0.05 -0.29,-0.01 -0.03,-0.02 -0.07,-0.04 -0.1,-0.06 -0.03,-0.02 -0.06,-0.05 -0.09,-0.07l-0.13 -0.09c-0.04,-0.02 -0.07,-0.04 -0.1,-0.06 -0.07,-0.05 -0.14,-0.1 -0.21,-0.16l-0.31 -0.21c-0.06,-0.03 -0.1,-0.06 -0.15,-0.1 -0.04,-0.03 -0.07,-0.05 -0.11,-0.08l0 0 -0.26 -0.18c-0.08,-0.05 -0.15,-0.11 -0.22,-0.16 -0.07,-0.04 -0.13,-0.09 -0.2,-0.13l-0.15 -0.11c-0.09,-0.06 -0.17,-0.12 -0.25,-0.18 -0.05,-0.03 -0.09,-0.06 -0.14,-0.1 -0.04,-0.03 -0.08,-0.06 -0.13,-0.09 -0.07,-0.04 -0.13,-0.09 -0.21,-0.14 -0.06,-0.05 -0.13,-0.1 -0.2,-0.15 -0.05,-0.03 -0.11,-0.07 -0.16,-0.11 -0.14,-0.1 -0.28,-0.2 -0.43,-0.29 -0.12,-0.08 -0.25,-0.17 -0.37,-0.26 -0.06,-0.04 -0.12,-0.08 -0.17,-0.12 -0.11,-0.08 -0.22,-0.16 -0.32,-0.23l0 0 -0.37 -0.25 -0.01 -0.01c-0.08,-0.07 -0.2,-0.17 -0.29,-0.13 -0.02,0 -0.03,0.01 -0.04,0.02 -0.02,0.01 -0.03,0.04 -0.04,0.06 -0.01,0.03 -0.01,0.06 0,0.09 0.01,0.01 0.01,0.02 0.02,0.03l0.44 0.32c0.05,0.03 0.1,0.06 0.15,0.1 0.05,0.03 0.09,0.07 0.14,0.11 0.01,0.01 0.03,0.02 0.05,0.04 0.03,0.02 0.07,0.04 0.1,0.06l0.4 0.27c0.05,0.03 0.1,0.07 0.14,0.1 0.08,0.06 0.16,0.12 0.25,0.17l0 0.01 0.51 0.35 0 0.01c0.06,0.05 0.15,0.1 0.23,0.16 0.03,0.01 0.05,0.03 0.08,0.04 0.02,0.02 0.03,0.03 0.04,0.03 0,0.01 0,0.01 0.01,0.02 0.03,0.02 0.06,0.04 0.09,0.06 0.03,0.03 0.07,0.05 0.11,0.08l0.78 0.55c0.21,0.14 0.42,0.28 0.63,0.43 0.04,0.03 0.1,0.07 0.16,0.12 0.12,0.08 0.24,0.17 0.29,0.2 0.02,0.01 0.04,0.02 0.05,0.03 0.01,0 0.01,0.01 0.02,0.01 0.02,0.02 0.04,0.03 0.07,0.05 0.1,0.07 0.23,0.15 0.28,0.27 0.02,0.04 0.01,0.11 0.01,0.19 -0.01,0.08 -0.01,0.18 0.01,0.23l0 0.01c0.04,0.09 0.05,0.14 0.11,0.2l0.24 0.2 0.09 0.03c0.02,0.01 0.08,0.02 0.14,0.02 0.06,0 0.12,0 0.14,-0.01l0.01 0c0.11,-0.04 0.14,-0.05 0.23,-0.11 0.09,-0.06 0.16,-0.15 0.2,-0.25 0.04,-0.11 0.06,-0.23 0.04,-0.35 0,-0.04 -0.03,-0.11 -0.06,-0.17 -0.03,-0.06 -0.07,-0.12 -0.09,-0.14l0 0c-0.03,-0.02 -0.04,-0.04 -0.05,-0.05 -0.02,-0.02 -0.02,-0.02 -0.08,-0.06 -0.05,-0.03 -0.1,-0.05 -0.15,-0.06 -0.06,-0.01 -0.12,-0.02 -0.18,-0.02zm6.5 -3.29c-0.01,0.01 -0.02,0.01 -0.04,0.02 -0.01,0 -0.02,0 -0.03,0.01l-0.01 0.01 -0.5 0.38 0 0c-0.4,0.3 -0.81,0.59 -1.22,0.89l0 0c-0.04,0.03 -0.09,0.07 -0.13,0.1l-0.01 0.01 -0.01 0.01 -0.9 0.65 0 0c-0.01,0.01 -0.02,0.02 -0.03,0.02 -0.01,0.01 -0.01,0.01 -0.01,0.01l0 0 -0.35 0.26c-0.21,0.2 -0.31,0.16 -0.42,0.12 -0.02,-0.01 -0.04,-0.02 -0.06,-0.02 -0.12,-0.03 -0.22,-0.03 -0.3,-0.01 -0.09,0.02 -0.17,0.07 -0.27,0.14 -0.02,0.02 -0.05,0.06 -0.08,0.09 -0.03,0.04 -0.05,0.09 -0.07,0.12 -0.03,0.04 -0.03,0.06 -0.03,0.08 0,0.01 0,0.03 -0.01,0.06 -0.01,0.04 -0.02,0.09 -0.02,0.13 0.01,0.04 0.01,0.08 0.03,0.12 0.02,0.03 0.02,0.06 0.03,0.08 0.02,0.05 0.03,0.09 0.1,0.17 0.07,0.07 0.14,0.13 0.22,0.17 0.09,0.03 0.18,0.05 0.3,0.04 0.07,0 0.14,-0.02 0.2,-0.05 0.06,-0.03 0.11,-0.07 0.17,-0.12l0.09 -0.11c0.04,-0.06 0.06,-0.12 0.08,-0.17 0.01,-0.06 0.02,-0.12 0.02,-0.2l0 0c0,-0.02 -0.01,-0.04 -0.01,-0.06 -0.02,-0.09 -0.04,-0.17 0.11,-0.3 0.05,-0.03 0.11,-0.09 0.15,-0.12 0.06,-0.04 0.11,-0.08 0.17,-0.12 0.07,-0.05 0.15,-0.1 0.21,-0.16l0.01 0c0.11,-0.08 0.22,-0.16 0.33,-0.24l0 0c0.03,-0.01 0.05,-0.04 0.08,-0.06 0.03,-0.02 0.05,-0.04 0.07,-0.05 0.01,-0.01 0.02,-0.02 0.03,-0.02 0.01,-0.02 0.03,-0.03 0.06,-0.06l0.73 -0.53 0 0c0,0 0.01,0 0.01,-0.01 0.01,-0.01 0.02,-0.01 0.02,-0.02 0.04,-0.03 0.08,-0.06 0.12,-0.08 0.04,-0.03 0.08,-0.06 0.12,-0.09l0 0 0.26 -0.19 0.01 0c0.02,-0.01 0.03,-0.02 0.04,-0.03 0.01,-0.01 0.02,-0.02 0.04,-0.04l0.08 -0.05c0.02,-0.02 0.02,-0.02 0.04,-0.03l0.01 0 0.26 -0.21c0.01,0 0.02,-0.01 0.03,-0.02 0.01,0 0.01,0 0.02,0l0.23 -0.18 0 0c0.01,-0.01 0.02,-0.02 0.03,-0.02 0.02,-0.01 0.03,-0.03 0.05,-0.04l0.01 0c0.05,-0.04 0.07,-0.05 0.09,-0.11 0.01,-0.02 0.01,-0.05 0.01,-0.07 -0.01,-0.02 -0.02,-0.04 -0.03,-0.05 -0.02,-0.02 -0.03,-0.03 -0.05,-0.04 -0.03,-0.01 -0.05,-0.01 -0.08,-0.01zm-8.09 6.58c-0.02,0.01 -0.04,0.02 -0.06,0.03l0 0c-0.01,0.01 -0.03,0.02 -0.04,0.04 -0.02,0.03 -0.02,0.06 -0.02,0.08 0,0.03 0.01,0.06 0.03,0.09 0.01,0.01 0.02,0.02 0.04,0.03 0.02,0.02 0.05,0.04 0.08,0.04 0.03,0 0.06,-0.01 0.09,-0.04 0.01,-0.01 0.03,-0.02 0.04,-0.03 0.02,-0.03 0.03,-0.07 0.03,-0.1 -0.01,-0.03 -0.02,-0.05 -0.04,-0.08 -0.02,-0.02 -0.04,-0.04 -0.07,-0.05 -0.02,-0.01 -0.05,-0.02 -0.08,-0.01zm6.97 -0.56c-0.02,0.01 -0.03,0.02 -0.04,0.02 -0.02,0.01 -0.04,0.01 -0.07,0.05 -0.02,0.04 -0.02,0.08 -0.01,0.11 0,0.04 0.03,0.08 0.06,0.1 0.03,0.03 0.07,0.03 0.11,0.03 0.02,-0.01 0.04,-0.02 0.05,-0.03 0.02,-0.01 0.03,-0.02 0.04,-0.04 0.03,-0.03 0.04,-0.08 0.03,-0.13 -0.01,-0.01 -0.01,-0.02 -0.02,-0.03 -0.01,-0.03 -0.04,-0.05 -0.07,-0.07 -0.03,-0.01 -0.06,-0.01 -0.08,-0.01 0,0 0,0 0,0zm-2.79 5.37l-0.01 0c-0.04,0.03 -0.1,0.06 -0.1,0.12 0,0.06 0.01,0.1 0.04,0.13 0.01,0.01 0.03,0.03 0.05,0.04 0.02,0 0.04,0.01 0.06,0.01 0.03,0 0.06,-0.01 0.09,-0.03l0 0 0.03 -0.02c0,-0.01 0,-0.01 0.01,-0.02 0.01,-0.02 0.02,-0.06 0.01,-0.09 0,-0.04 -0.01,-0.07 -0.03,-0.1 -0.01,-0.01 -0.02,-0.02 -0.03,-0.03 -0.02,0 -0.05,-0.01 -0.08,-0.02 -0.02,0 -0.03,0 -0.04,0.01zm-4.18 0c-0.01,0 -0.02,0.01 -0.03,0.01l0 0c-0.02,0.02 -0.05,0.03 -0.08,0.08 0,0.01 -0.01,0.02 -0.01,0.02l0 0c0,0 0,0.01 0,0.01 -0.01,0.04 0,0.08 0.03,0.11 0.02,0.02 0.04,0.04 0.07,0.05 0.02,0.01 0.05,0.02 0.08,0.01 0.03,0 0.07,-0.02 0.1,-0.06 0.01,-0.02 0.02,-0.05 0.02,-0.07 0.01,-0.03 0,-0.06 -0.01,-0.08 -0.02,-0.03 -0.04,-0.05 -0.06,-0.06 -0.02,-0.02 -0.03,-0.02 -0.04,-0.02 -0.02,0 -0.03,-0.01 -0.05,-0.01 -0.01,0.01 -0.01,0.01 -0.02,0.01zm-2.76 -5.36c-0.02,0.01 -0.03,0.01 -0.04,0.02 -0.01,0 -0.02,0 -0.02,0 -0.05,0.03 -0.07,0.07 -0.07,0.11l0 0c0,0.03 0,0.06 0.01,0.08 0.01,0.02 0.03,0.05 0.05,0.06l0 0c0.03,0.03 0.07,0.04 0.12,0.03 0.04,-0.01 0.07,-0.04 0.09,-0.07 0.02,-0.02 0.03,-0.04 0.03,-0.07 0,-0.03 -0.01,-0.06 -0.02,-0.08 -0.02,-0.03 -0.06,-0.06 -0.1,-0.08 -0.02,0 -0.02,0 -0.03,0 0,0 -0.01,0 -0.02,0zm0 4.81c-0.03,0.01 -0.06,0.02 -0.09,0.04 -0.02,0.02 -0.03,0.04 -0.03,0.06 -0.01,0.06 0,0.1 0.02,0.14 0.01,0.01 0.02,0.03 0.04,0.04 0.02,0 0.03,0.01 0.05,0.01 0.04,0.01 0.08,0 0.11,-0.02 0.02,-0.02 0.04,-0.04 0.05,-0.08 0.01,-0.03 0.02,-0.06 0.01,-0.09 0,0 0,-0.01 -0.01,-0.02l0 0c0,-0.01 -0.01,-0.02 -0.02,-0.03 -0.01,-0.02 -0.03,-0.04 -0.06,-0.05 -0.03,-0.01 -0.06,-0.01 -0.07,0zm6.93 -4.24c0,0 -0.12,0.02 -0.1,0.17 0,0.01 0.01,0.02 0.01,0.03 0.01,0.02 0.03,0.05 0.06,0.06 0.03,0.02 0.06,0.02 0.1,0.02 0.01,0 0.04,-0.01 0.06,-0.02 0.02,-0.01 0.03,-0.03 0.04,-0.05 0.01,-0.04 0.02,-0.08 0.02,-0.12 -0.01,-0.01 -0.01,-0.02 -0.02,-0.03 -0.01,-0.02 -0.03,-0.04 -0.05,-0.06 -0.03,-0.01 -0.05,-0.02 -0.07,-0.02 -0.01,0.01 -0.02,0.01 -0.02,0.01l-0.01 0.01 -0.02 0zm2.76 4.25c-0.05,0.02 -0.07,0.05 -0.08,0.09 -0.01,0.02 -0.01,0.05 0,0.07 0,0.03 0.02,0.06 0.04,0.08 0.02,0.02 0.06,0.04 0.09,0.04 0.03,0 0.05,0 0.07,-0.01 0.03,-0.02 0.05,-0.04 0.07,-0.06 0.01,-0.02 0.02,-0.04 0.02,-0.07 0,-0.02 0,-0.04 -0.01,-0.05 -0.01,-0.02 -0.02,-0.04 -0.04,-0.06 0,-0.01 -0.02,-0.02 -0.03,-0.02 -0.01,-0.01 -0.04,-0.02 -0.07,-0.02 -0.03,0 -0.05,0 -0.06,0.01z"/>
 </g>
</svg>
