<?xml version="1.0" encoding="UTF-8"?>
<!DOCTYPE svg PUBLIC "-//W3C//DTD SVG 1.1//EN" "http://www.w3.org/Graphics/SVG/1.1/DTD/svg11.dtd">
<!-- Creator: CorelDRAW 2020 (64 Bit) -->
<svg xmlns="http://www.w3.org/2000/svg" xml:space="preserve" width="200px" height="200px" version="1.1" style="shape-rendering:geometricPrecision; text-rendering:geometricPrecision; image-rendering:optimizeQuality; fill-rule:evenodd; clip-rule:evenodd"
viewBox="0 0 42.68 42.68"
 xmlns:xlink="http://www.w3.org/1999/xlink"
 xmlns:xodm="http://www.corel.com/coreldraw/odm/2003">
 <defs>
  <style type="text/css">
   <![CDATA[
    .fil0 {fill:none}
    .fil1 {fill:url(#id0)}
   ]]>
  </style>
  <linearGradient id="id0" gradientUnits="userSpaceOnUse" x1="8.78" y1="21.34" x2="33.89" y2="21.34">
   <stop offset="0" style="stop-opacity:1; stop-color:#FF5C77"/>
   <stop offset="1" style="stop-opacity:1; stop-color:#0097A7"/>
  </linearGradient>
 </defs>
 <g id="Camada_x0020_1">
  <metadata id="CorelCorpID_0Corel-Layer"/>
  <rect class="fil0" width="42.68" height="42.68"/>
  <path class="fil1" d="M26.05 11.06c0.05,0.1 0.3,0.33 0.39,0.43 0.07,0.07 0.13,0.13 0.2,0.2 0.08,0.07 0.15,0.13 0.22,0.2 0.1,0.1 0.73,0.79 0.84,0.84 0.03,0.08 0.62,0.62 0.73,0.73 0.12,0.13 0.23,0.25 0.36,0.38 0.13,0.13 0.23,0.22 0.37,0.37l0.74 0.73c0.12,0.11 0.68,0.69 0.76,0.74 0.04,0.09 0.47,0.49 0.59,0.61 0.1,0.1 0.56,0.54 0.61,0.62 -0.14,-0.01 -0.28,-0.04 -0.42,-0.01 -0.13,-0.08 -1.58,0.01 -1.9,0.03 -0.19,0.02 -0.4,0.05 -0.59,0.08 -0.22,0.04 -0.36,0.03 -0.59,0.09 -0.41,0.11 -1.22,0.27 -1.52,0.44 -0.55,0.13 -1.62,0.7 -2.08,1.04 -0.31,0.24 -0.56,0.48 -0.82,0.73l-0.75 0.77c-0.11,0.06 -0.44,0.43 -0.55,0.54 -0.37,0.39 -1.09,1.05 -1.36,1.36 -0.08,0.1 -0.2,0.16 -0.27,0.26l-0.17 0.14c-0.19,-0.1 -0.36,-0.42 -0.57,-0.53l0.02 -0.02c0.01,0 0.01,-0.01 0.02,-0.01l2.29 -2.3c0.11,-0.07 0.27,-0.26 0.38,-0.37l0.75 -0.73c0.12,-0.12 0.21,-0.27 0.32,-0.42 0.76,-0.97 1.57,-3.18 1.65,-4.3 0.03,-0.47 0.09,-0.9 0.11,-1.38 0.01,-0.51 -0.01,-0.97 -0.02,-1.47 0.07,0.04 0.07,0.06 0.13,0.12 0.04,0.04 0.07,0.06 0.13,0.09zm-8.64 13.66c-0.07,0.1 -0.5,0.5 -0.62,0.62 -0.2,0.18 -0.42,0.41 -0.6,0.61l0.56 0.55 0.74 -0.74c0.06,-0.1 0.39,-0.41 0.52,-0.51 -0.12,-0.12 -0.48,-0.44 -0.55,-0.55 -0.01,0 -0.05,0.01 -0.05,0.02zm-1.6 -2.8c-0.56,0.11 -0.4,0.93 0.15,0.83 0.52,-0.1 0.4,-0.93 -0.15,-0.83zm2.04 -2.04c-0.6,0.15 -0.36,0.92 0.15,0.83 0.55,-0.1 0.39,-0.95 -0.15,-0.83zm-4.13 4.11c-0.54,0.13 -0.35,0.99 0.22,0.81 0.18,-0.06 0.37,-0.25 0.29,-0.51 -0.02,-0.06 -0.12,-0.21 -0.16,-0.26 -0.07,-0.06 -0.25,-0.06 -0.35,-0.04zm4.53 -0.1l0.53 0.56c0.18,-0.16 1.21,-1.23 1.29,-1.25 -0.1,-0.08 -0.18,-0.19 -0.28,-0.28 -0.08,-0.08 -0.23,-0.2 -0.27,-0.29 -0.06,0.03 -0.01,0 -0.05,0.03 -0.02,0.02 -0.03,0.03 -0.04,0.04 -0.03,0.03 -0.04,0.05 -0.07,0.08l-1.11 1.11zm9.45 -12.7l-1.22 -1.27c-0.13,-0.11 -0.31,-0.36 -0.43,-0.41 -0.07,-0.12 -0.31,-0.32 -0.42,-0.44 -0.12,-0.12 -0.29,-0.29 -0.56,-0.26 -0.52,0.07 -0.53,0.45 -0.46,0.96 0.06,0.39 0.07,0.99 0.08,1.41 0.04,1.2 -0.03,2.82 -0.47,3.94 -0.28,0.69 -0.46,1.39 -0.94,2.04 -0.12,0.17 -0.18,0.31 -0.31,0.44 -0.07,0.06 -0.34,0.32 -0.37,0.39 -0.15,0.07 -0.27,0.26 -0.39,0.37 -0.09,0.08 -0.13,0.11 -0.2,0.19l-0.76 0.76c-0.08,0.08 -0.12,0.14 -0.2,0.21 -0.21,0.22 -0.8,0.77 -0.97,0.97 -0.2,0.22 -0.42,0.37 -0.57,0.58 -0.07,-0.11 -0.17,-0.18 -0.29,-0.28 -0.23,-0.21 0.27,-0.43 -0.31,-1.33 -0.05,-0.08 -0.06,-0.09 -0.13,-0.14 -0.21,-0.15 -0.24,-0.22 -0.6,-0.3 -0.35,-0.08 -0.69,0.04 -0.93,0.19 -0.14,0.09 -0.18,0.16 -0.28,0.3 -0.08,0.11 -0.16,0.21 -0.22,0.37 -0.21,0.62 0.07,1.26 0.62,1.57 0.49,0.26 0.94,0.06 0.99,0.07 0.07,0.04 0.3,0.28 0.34,0.35l-1.23 1.25 -0.07 -0.04 -0.33 -0.33c0.09,-0.31 0.11,-0.62 -0.02,-0.92 -0.44,-1.01 -1.7,-0.87 -2.06,-0.38 -0.21,0.27 -0.27,0.29 -0.35,0.72 -0.12,0.67 0.51,1.72 1.68,1.39l0.33 0.35 -1.1 1.11c-0.05,0.05 -0.1,0.09 -0.16,0.15 -0.02,-0.02 -0.04,-0.04 -0.05,-0.05 -0.06,-0.13 -0.25,-0.19 -0.3,-0.3 -0.06,-0.12 0.28,-0.63 -0.28,-1.31 -0.34,-0.41 -1.15,-0.58 -1.67,-0.17 -0.4,0.31 -0.72,0.97 -0.39,1.63 0.21,0.41 0.58,0.66 1.04,0.69 0.14,0 0.47,-0.05 0.52,-0.04 0.03,0.02 0.31,0.3 0.34,0.33 -0.07,0.09 -0.15,0.17 -0.23,0.24 -0.1,0.08 -0.12,0.16 -0.23,0.24 -0.2,0.15 -0.28,0.31 -0.34,0.36l-0.25 0.22c-0.05,0.05 -0.06,0.08 -0.11,0.13 -0.05,0.06 -0.08,0.06 -0.12,0.1l-1.05 1.06c-0.15,0.18 -0.31,0.32 -0.47,0.47 -0.16,0.16 -0.3,0.28 -0.46,0.47 -0.13,0.14 -0.37,0.31 -0.47,0.46l-0.12 -0.03c-0.16,-0.13 -0.49,-0.13 -0.72,-0.1 -0.26,0.03 -0.39,0.11 -0.59,0.22 -0.32,0.17 -0.59,0.52 -0.65,1 -0.09,0.6 0.49,1.1 0.8,1.4l1.12 1.11c0.09,0.11 0.26,0.26 0.39,0.35 0.08,0.06 0.16,0.1 0.24,0.14 0.09,0.04 0.23,0.05 0.31,0.09l0.28 0c0.09,-0.04 0.24,-0.05 0.34,-0.1 0.51,-0.24 0.84,-0.67 0.86,-1.26 0.02,-0.35 -0.07,-0.46 -0.13,-0.73l1.56 -1.54c0.12,-0.08 0.29,-0.3 0.41,-0.4 0.18,1.38 1.18,2.4 2.52,2.61 0.51,0.08 1.04,0.01 1.51,-0.15 0.31,-0.1 0.96,-0.53 1.06,-0.72 0.08,-0.04 0.82,-0.81 0.96,-0.94 0.32,-0.33 0.63,-0.63 0.96,-0.95l0.95 -0.96c0.05,-0.04 0.09,-0.08 0.14,-0.12 0.05,-0.05 0.06,-0.08 0.11,-0.12 0.09,-0.08 0.14,-0.16 0.24,-0.23 0.09,-0.08 0.41,-0.41 0.47,-0.49l1.39 -1.39c0.18,-0.22 0.44,-0.58 0.54,-0.85 0.43,-1.21 0.24,-2.28 -0.55,-3.17 -0.79,-0.87 -1.74,-0.88 -1.85,-0.95 0.5,-0.52 1.03,-1.01 1.53,-1.54 0.22,-0.23 0.52,-0.47 0.88,-0.65l0.76 -0.4c0.15,-0.07 0.22,-0.09 0.27,-0.14 0.06,0 0.83,-0.26 0.98,-0.31 0.3,-0.1 0.71,-0.19 1.04,-0.25 0.39,-0.07 0.81,-0.05 1.17,-0.12 0.33,-0.07 0.92,-0.04 1.28,-0.03 0.5,0.01 1.01,0.06 1.5,0.1 0.25,0.01 0.52,0.12 0.72,0 0.29,-0.15 0.26,-0.29 0.34,-0.46l0 -0.17c-0.06,-0.11 -0.06,-0.16 -0.14,-0.26 -0.08,-0.12 -0.49,-0.48 -0.62,-0.61 -0.28,-0.28 -0.54,-0.55 -0.82,-0.83 -0.13,-0.14 -0.27,-0.26 -0.41,-0.39 -0.21,-0.22 -1.11,-1.16 -1.25,-1.24 -0.06,-0.1 -0.25,-0.27 -0.35,-0.37l-0.73 -0.74c-0.13,-0.13 -0.25,-0.24 -0.37,-0.37 -0.25,-0.25 -0.49,-0.49 -0.74,-0.73 -0.1,-0.11 -0.7,-0.7 -0.76,-0.72zm-16.98 20.59l-0.63 -0.65c-0.08,-0.07 -0.16,-0.1 -0.16,-0.27 0.08,-0.11 0.18,-0.22 0.38,-0.18 0.15,0.02 0.25,0.15 0.4,0.2 0.3,0.23 0.63,-0.1 0.75,-0.22 0.19,-0.19 0.37,-0.36 0.56,-0.55 0.09,-0.1 0.18,-0.18 0.28,-0.27 0.27,-0.25 0.51,-0.57 0.83,-0.83 0.1,-0.07 0.19,-0.18 0.28,-0.27l1.1 -1.11c0.16,-0.16 0.78,-0.75 0.82,-0.83l0.04 -0.04c0.07,0.03 0.51,0.45 0.56,0.53l-0.76 0.81c-0.13,0.12 -0.57,0.53 -0.62,0.63 -0.1,0.05 -0.5,0.47 -0.6,0.59 -0.18,0.2 -0.41,0.38 -0.6,0.57 -0.1,0.11 -0.17,0.2 -0.29,0.31 -0.1,0.1 -0.19,0.17 -0.29,0.28 -0.19,0.2 -0.4,0.38 -0.59,0.58 -0.17,0.18 -0.46,0.37 -0.4,0.75 0.05,0.3 0.37,0.56 0.18,0.86 -0.17,0.29 -0.41,-0.07 -0.65,-0.31 -0.19,-0.2 -0.37,-0.4 -0.59,-0.58zm12.56 -9.23c0.47,0.09 0.68,0.15 0.96,0.4 0.09,0.08 0.27,0.26 0.34,0.35 0.07,0.11 0.18,0.31 0.23,0.46 0.11,0.36 0.12,0.56 0.08,0.92l-0.17 0.53c-0.04,0.08 -0.08,0.17 -0.13,0.23l-0.33 0.39 -0.38 -0.38c-0.07,-0.11 -0.44,-0.44 -0.55,-0.56 -0.19,-0.2 -0.37,-0.37 -0.56,-0.57 -0.05,-0.05 -0.09,-0.1 -0.13,-0.14 -0.06,-0.05 -0.1,-0.08 -0.15,-0.13 -0.11,-0.11 -0.17,-0.2 -0.28,-0.29 -0.12,-0.1 -0.49,-0.45 -0.56,-0.58 0.32,-0.25 0.18,-0.25 0.66,-0.49 0.27,-0.13 0.63,-0.18 0.97,-0.14zm-2.27 1.6l0.75 0.78c0.08,0.09 0.26,0.18 0.5,0.46 0.2,0.23 0.24,0.26 0.45,0.45 0.08,0.07 0.09,0.09 0.16,0.17 0.03,0.03 0.04,0.03 0.08,0.06 0.08,0.08 0.22,0.28 0.38,0.41 0.06,0.04 0.13,0.09 0.18,0.14 -0.06,0.06 -0.09,0.07 -0.16,0.14 -0.06,0.06 -0.1,0.09 -0.16,0.15 -0.14,0.15 -0.28,0.25 -0.33,0.31 -0.19,0.22 -0.42,0.48 -0.63,0.66 -0.22,-0.19 -0.39,-0.4 -0.6,-0.59 -0.16,-0.15 -0.52,-0.55 -0.61,-0.61l-1.43 -1.43 0.93 -0.94c0.09,-0.09 0.22,-0.23 0.32,-0.31l0.17 0.15zm0.01 4.07c0.08,0.12 0.37,0.32 0.42,0.46 -0.44,0.36 -0.63,0.65 -0.95,0.94 -0.08,0.07 -0.26,0.26 -0.33,0.31l-0.1 -0.08c-0.06,-0.11 -0.5,-0.53 -0.62,-0.65l-1.26 -1.25c-0.17,-0.17 -0.46,-0.51 -0.64,-0.63 0.03,-0.08 0.55,-0.57 0.62,-0.65l0.64 -0.63 0.54 0.54c0.19,0.19 0.37,0.36 0.55,0.55 0.16,0.16 1.01,1.02 1.13,1.09zm-3.54 0.58c0.02,0.04 0.18,0.21 0.22,0.25 0.08,0.09 0.15,0.15 0.24,0.23 0.12,0.12 1.4,1.33 1.45,1.43l-0.34 0.31c-0.36,0.26 -1.14,0.48 -1.56,0.31 -0.66,-0.16 -1.16,-0.68 -1.36,-1.32 -0.25,-0.8 0.22,-1.6 0.61,-1.93 0.04,0.03 0.16,0.15 0.18,0.17l0.37 0.36c0.07,0.09 0.11,0.14 0.19,0.19z"/>
 </g>
</svg>
