<?xml version="1.0" encoding="UTF-8"?>
<!DOCTYPE svg PUBLIC "-//W3C//DTD SVG 1.1//EN" "http://www.w3.org/Graphics/SVG/1.1/DTD/svg11.dtd">
<!-- Creator: CorelDRAW 2020 (64 Bit) -->
<svg xmlns="http://www.w3.org/2000/svg" xml:space="preserve" width="200px" height="200px" version="1.1" style="shape-rendering:geometricPrecision; text-rendering:geometricPrecision; image-rendering:optimizeQuality; fill-rule:evenodd; clip-rule:evenodd"
viewBox="0 0 29.72 29.72"
 xmlns:xlink="http://www.w3.org/1999/xlink"
 xmlns:xodm="http://www.corel.com/coreldraw/odm/2003">
 <defs>
  <style type="text/css">
   <![CDATA[
    .fil0 {fill:none}
    .fil1 {fill:url(#id0)}
   ]]>
  </style>
  <linearGradient id="id0" gradientUnits="userSpaceOnUse" x1="6.12" y1="14.86" x2="23.61" y2="14.86">
   <stop offset="0" style="stop-opacity:1; stop-color:#FF5C77"/>
   <stop offset="1" style="stop-opacity:1; stop-color:#0097A7"/>
  </linearGradient>
 </defs>
 <g id="Camada_x0020_1">
  <metadata id="CorelCorpID_0Corel-Layer"/>
  <rect class="fil0" width="29.72" height="29.72"/>
  <path class="fil1" d="M14.35 7.06c0.44,0 0.63,-0.09 1.33,0.02l1.21 0.2 0.1 0.05c0.06,0.02 0.07,0.02 0.14,0.04l0.82 0.29c0.31,0.14 0.69,0.34 0.97,0.51 0.48,0.29 0.83,0.58 1.25,0.93 0.14,0.12 0.23,0.27 0.38,0.36 0.06,0.1 0.14,0.2 0.23,0.29 0.56,0.58 1.13,1.64 1.42,2.39 0.96,2.5 0.45,5.46 -1.18,7.55 -0.45,0.58 -0.58,0.66 -1.07,1.12 -0.15,0.14 -0.54,0.39 -0.6,0.49 -0.14,0.06 -0.17,0.09 -0.29,0.17 -0.35,0.24 -1.08,0.59 -1.48,0.74l-0.67 0.22c-0.01,0.01 -0.02,0.01 -0.02,0.02 -0.17,0 -1.25,0.26 -2.04,0.26 -0.77,0 -1.84,-0.26 -2.02,-0.26 -0.14,-0.08 -0.3,-0.1 -0.45,-0.15 -0.15,-0.05 -0.27,-0.1 -0.43,-0.16 -0.31,-0.13 -0.56,-0.25 -0.83,-0.39 -0.85,-0.44 -0.94,-0.66 -1.45,-1l-0.51 -0.49c-0.4,-0.41 -1,-1.27 -1.24,-1.76 -0.45,-0.91 -0.87,-2.02 -0.87,-3.12 -0.01,-0.49 -0.07,-0.14 -0.01,-0.93 0.08,-0.98 0.11,-1.42 0.53,-2.47 0.45,-1.13 0.77,-1.5 1.44,-2.33 0.04,-0.05 0.07,-0.09 0.12,-0.15 0.09,-0.08 0.16,-0.16 0.26,-0.25 0.11,-0.12 0.18,-0.16 0.29,-0.26 0.41,-0.36 1.58,-1.21 1.99,-1.27 0.22,-0.15 0.95,-0.38 1.25,-0.45 0.37,-0.09 0.96,-0.21 1.43,-0.21zm5 15.31c0.03,-0.03 0.95,-0.6 1.47,-1.13 0.18,-0.19 0.46,-0.42 0.66,-0.68 0.43,-0.57 0.41,-0.49 0.84,-1.15 0.63,-0.98 1.03,-2.27 1.21,-3.46 0.34,-2.28 -0.46,-4.9 -1.92,-6.63 -0.11,-0.13 -0.19,-0.23 -0.31,-0.35 -0.06,-0.06 -0.11,-0.1 -0.16,-0.17l-0.52 -0.49c-0.34,-0.42 -1.58,-1.13 -2.14,-1.4 -0.15,-0.08 -0.32,-0.14 -0.5,-0.21 -0.18,-0.07 -0.31,-0.13 -0.52,-0.18 -0.16,-0.05 -0.45,-0.11 -0.57,-0.17l-0.56 -0.1c-0.69,-0.12 -1.24,-0.12 -1.99,-0.12 -0.64,0 -1.93,0.29 -2.57,0.55 -0.15,0.06 -0.08,0.03 -0.1,0.08 -0.49,0.03 -2,1.01 -2.47,1.45l-0.06 0.05c0,0 -0.01,0.01 -0.01,0.02 -0.26,0.15 -1.06,1.07 -1.22,1.27 -0.38,0.49 -0.66,0.99 -0.95,1.56 -0.81,1.6 -1.01,3.48 -0.71,5.32 0.16,0.97 0.54,1.94 1.02,2.76 0.26,0.47 0.68,1.09 1.04,1.47l0.97 0.93c0.11,0.1 0.23,0.2 0.35,0.27 0.06,0.07 0.22,0.17 0.32,0.24 0.12,0.09 0.23,0.15 0.36,0.23 0.23,0.15 0.48,0.27 0.74,0.4 0.41,0.21 1.29,0.55 1.73,0.62 0.6,0.25 2.41,0.29 3.13,0.19 0.18,-0.02 0.31,-0.04 0.48,-0.07 0.18,-0.03 0.35,-0.08 0.5,-0.1 0.29,-0.13 1.1,-0.24 2.16,-0.84 0.13,-0.07 0.15,-0.1 0.3,-0.16zm-1.19 -9.84c0.31,0.15 0.4,0.16 0.63,0.4 0.17,0.18 0.26,0.38 0.32,0.67 0.05,0.21 -0.01,0.55 0.35,0.65 0.91,0.26 0.74,-1.6 -0.48,-2.33 -0.26,-0.16 -0.42,-0.21 -0.76,-0.3 -1.37,-0.26 -2.64,0.85 -2.63,2.13 0,0.52 0.42,0.59 0.65,0.47 0.47,-0.24 0,-1.02 0.91,-1.54 0.48,-0.28 0.74,-0.15 1.01,-0.15zm-6.49 -0.92c-1.51,0.02 -2.41,2.06 -1.85,2.55 0.22,0.19 0.55,0.13 0.69,-0.12 0.07,-0.13 0.04,-1.34 1.12,-1.51 0.91,-0.13 1.51,0.42 1.59,1.26 0.07,0.71 0.87,0.56 0.9,0.04 0.04,-0.97 -0.64,-1.79 -1.45,-2.11l-0.75 -0.14c-0.18,-0.01 -0.09,0.02 -0.25,0.03zm4.22 -1.37c0,0.75 0.82,0.38 1.03,0.32 0.54,-0.13 1.24,-0.15 1.79,0 0.14,0.03 0.48,0.16 0.58,0.16 0.23,0 0.45,-0.18 0.45,-0.44 0,-0.42 -0.35,-0.47 -0.69,-0.57 -0.9,-0.27 -2.04,-0.23 -2.89,0.13 -0.14,0.06 -0.27,0.22 -0.27,0.4zm-5.92 0c0,0.75 0.82,0.38 1.03,0.32 0.54,-0.13 1.24,-0.15 1.79,0 0.14,0.03 0.48,0.16 0.58,0.16 0.23,0 0.45,-0.18 0.45,-0.44 0,-0.42 -0.35,-0.47 -0.69,-0.57 -0.9,-0.27 -2.04,-0.23 -2.89,0.13 -0.14,0.06 -0.27,0.22 -0.27,0.4zm2.96 7.62c0,0.71 0.13,1.16 0.55,1.67 0.7,0.87 2.02,0.87 2.73,0.02 1.23,-1.45 0.33,-3.83 -1.36,-3.83 -1.05,0 -1.92,1.05 -1.92,2.14z"/>
 </g>
</svg>
