<?xml version="1.0" encoding="UTF-8"?>
<!DOCTYPE svg PUBLIC "-//W3C//DTD SVG 1.1//EN" "http://www.w3.org/Graphics/SVG/1.1/DTD/svg11.dtd">
<!-- Creator: CorelDRAW 2020 (64 Bit) -->
<svg xmlns="http://www.w3.org/2000/svg" xml:space="preserve" width="200px" height="200px" version="1.1" style="shape-rendering:geometricPrecision; text-rendering:geometricPrecision; image-rendering:optimizeQuality; fill-rule:evenodd; clip-rule:evenodd"
viewBox="0 0 42.61 42.61"
 xmlns:xlink="http://www.w3.org/1999/xlink"
 xmlns:xodm="http://www.corel.com/coreldraw/odm/2003">
 <defs>
  <style type="text/css">
   <![CDATA[
    .fil0 {fill:none}
    .fil1 {fill:url(#id0)}
   ]]>
  </style>
  <linearGradient id="id0" gradientUnits="userSpaceOnUse" x1="8.77" y1="21.31" x2="33.84" y2="21.31">
   <stop offset="0" style="stop-opacity:1; stop-color:#FF5C77"/>
   <stop offset="1" style="stop-opacity:1; stop-color:#0097A7"/>
  </linearGradient>
 </defs>
 <g id="Camada_x0020_1">
  <metadata id="CorelCorpID_0Corel-Layer"/>
  <rect class="fil0" width="42.61" height="42.61"/>
  <path class="fil1" d="M8.77 10.32l0 -0.48 0.06 -0.01c0.01,-0.07 0.04,-0.14 0.07,-0.19 0.05,-0.08 0.11,-0.15 0.17,-0.21 0.07,-0.06 0.14,-0.1 0.21,-0.14 0.07,-0.04 0.13,-0.07 0.21,-0.09 0.02,-0.03 0.05,-0.04 0.14,-0.05 0.08,-0.01 0.15,-0.01 0.22,0 0.06,0.01 0.13,0.02 0.2,0.04 0.05,0.02 0.11,0.05 0.17,0.08 0.06,0.03 0.11,0.07 0.15,0.1 0.01,0 0.02,0.02 0.04,0.03 0.04,0.03 0.08,0.07 0.12,0.12 0.02,0.03 0.04,0.06 0.06,0.09 0.02,0.04 0.04,0.07 0.05,0.1 0.04,0.08 0.06,0.17 0.07,0.26 0.02,0.1 0.02,0.2 0.01,0.29 0,0.07 -0.02,0.11 -0.03,0.15 -0.01,0.01 -0.01,0.02 0.02,0.07l0 0.01 0.21 0.41 0.03 -0.03c0.08,-0.05 0.17,-0.12 0.21,-0.15l0 0c0.06,-0.06 0.12,-0.09 0.18,-0.12 0.04,-0.02 0.07,-0.04 0.09,-0.06l0 0 0.3 -0.19 0 0c0.02,-0.02 0.05,-0.03 0.08,-0.05l0 0c0.04,-0.02 0.04,-0.02 0.07,-0.04l0.01 -0.02c0.21,-0.11 0.41,-0.22 0.62,-0.34 0.17,-0.09 0.39,-0.17 0.58,-0.25 0.03,-0.01 0.07,-0.02 0.13,-0.05 0.3,-0.12 0.51,-0.18 0.77,-0.26 0.08,-0.02 0.18,-0.05 0.26,-0.07 0.08,-0.03 0.15,-0.04 0.23,-0.06 0.05,0 0.1,-0.01 0.14,-0.02 0.01,-0.01 0.01,-0.01 0.02,-0.01 0.02,-0.01 0.04,-0.02 0.09,-0.03l0 0 0.26 -0.05 0.01 -0.01c0.04,0 0.07,0 0.1,0 0.04,0 0.08,-0.01 0.14,-0.02 0.05,-0.02 0.1,-0.03 0.15,-0.03 0.04,0 0.08,0 0.11,-0.02 0.1,-0.03 0.21,-0.03 0.33,-0.03 0.08,0 0.17,0 0.24,-0.02 0.08,-0.01 0.29,-0.03 0.51,-0.03 0.27,0 0.56,0 0.68,0.02 0.09,0 0.18,0.01 0.27,0.02 0.1,0.01 0.19,0.01 0.28,0.02 0.13,0 0.27,0.03 0.41,0.06 0.04,0.01 0.08,0.01 0.13,0.02l0 0 0.37 0.07c0.03,0.01 0.05,0.01 0.07,0.02 0.01,0.01 0.02,0.01 0.04,0.02 0.36,0.08 0.38,0.08 0.56,0.14 0.03,0.01 0.07,0.02 0.16,0.05l0.1 0.03c0.23,0.07 0.48,0.15 0.69,0.26 0.1,0.05 0.21,0.09 0.31,0.13 0.14,0.06 0.27,0.12 0.41,0.2 0.02,0.01 0.03,0.01 0.05,0.02 0.01,0.01 0.02,0.01 0.05,0.03 0.01,0 0.03,0.01 0.04,0.02 0.01,0.01 0.03,0.02 0.05,0.03 0.02,0.01 0.04,0.02 0.05,0.02 0.02,0.01 0.03,0.02 0.05,0.03l0.7 0.34c0.01,0 0.02,0.01 0.03,0.01l0 0c0.03,0.01 0.05,0.01 0.09,0.03l0.96 0.36c0.07,0.02 0.12,0.03 0.17,0.04l0.07 0.02 0.74 0.14c0.28,0.04 0.61,0.06 0.93,0.07 0.26,0 0.52,-0.02 0.75,-0.06l0.53 -0.06c0.02,0 0.03,0 0.04,0 0.01,-0.01 0.03,-0.02 0.06,-0.03l0 0c0.02,-0.01 0.04,-0.01 0.06,-0.02 0.07,-0.01 0.11,-0.03 0.15,-0.04 0.04,-0.02 0.07,-0.03 0.13,-0.05 0.02,0 0.04,-0.01 0.06,-0.01 0.02,0 0.03,-0.01 0.05,-0.01 0.08,-0.03 0.15,-0.06 0.23,-0.08l0.04 -0.01c0.02,0 0.02,0 0.03,-0.01l0 0c0.01,0 0.01,0 0.03,-0.01 0.14,-0.05 0.32,-0.11 0.47,-0.16 0.09,-0.03 0.2,-0.05 0.31,-0.06 0.09,0 0.18,0 0.26,0.03 0.22,0.08 0.36,0.15 0.47,0.26 0.12,0.1 0.19,0.22 0.3,0.42 0.18,0.37 0.36,0.75 0.55,1.12l0 0c0,0.02 0,0.01 0.01,0.03 0,0.02 0.01,0.04 0.02,0.05 0.01,0.02 0.02,0.03 0.03,0.05 0.01,0.02 0.02,0.04 0.03,0.06 0.04,0.1 0.08,0.19 0.12,0.28 0.05,0.09 0.09,0.18 0.15,0.27l0 0c0.35,0.75 0.69,1.51 1.06,2.25 0,0.01 0.01,0.03 0.02,0.04 0.01,0.02 0.02,0.04 0.02,0.05 0.02,0.03 0.03,0.05 0.04,0.07 0.01,0.02 0.01,0.03 0.02,0.04l0 0c0.02,0.04 0.03,0.07 0.04,0.09 0.02,0.03 0.04,0.05 0.06,0.09 0.05,0.08 0.09,0.16 0.13,0.25 0.05,0.13 0.11,0.25 0.16,0.38 0.06,0.11 0.11,0.21 0.17,0.33l0.03 0.07c0,0.01 0.01,0.03 0.03,0.05 0,0.01 0.01,0.02 0.02,0.04l0.44 0.94c0,0.01 0,0.01 0.01,0.01 0.1,0.19 0.19,0.38 0.28,0.57 0.06,0.13 0.12,0.26 0.2,0.4 0.02,0.05 0.05,0.11 0.07,0.17l0.02 0.04c0.02,0.05 0.04,0.08 0.06,0.12 0.01,0.03 0.02,0.06 0.04,0.09l0.63 1.3 0.01 0.01c0.03,0.08 0.07,0.17 0.1,0.25 0.04,0.08 0.09,0.16 0.13,0.24 0.03,0.03 0.04,0.08 0.05,0.11l0 0 0 0.01 0 0c0.01,0.01 0.01,0.02 0.02,0.03 0,0.01 -0.01,0.01 -0.01,0.02l0.07 0.02 0 0.63 -0.05 0.01 0 0.01c-0.02,0.07 -0.04,0.1 -0.07,0.13 0,0.01 -0.01,0.03 -0.03,0.05 0,0.02 -0.01,0.03 -0.01,0.04 -0.01,0.03 -0.02,0.04 -0.07,0.1 -0.08,0.09 -0.16,0.17 -0.26,0.23 -0.09,0.07 -0.2,0.12 -0.33,0.15 -0.05,0.01 -0.09,0.03 -0.13,0.04 -0.04,0.02 -0.08,0.04 -0.13,0.05 -0.05,0.02 -0.09,0.03 -0.13,0.05 -0.04,0.01 -0.07,0.03 -0.11,0.04 -0.06,0.02 -0.11,0.03 -0.16,0.04 -0.05,0.01 -0.09,0.02 -0.13,0.04l-0.01 0 -0.27 0.06c-0.05,0.02 -0.08,0.02 -0.12,0.02 -0.01,0 -0.03,0 -0.05,0 -0.01,0 -0.01,0.01 -0.01,0.01 -0.02,0.01 -0.04,0.03 -0.12,0.04 -0.04,0.01 -0.12,0.02 -0.19,0.04 -0.24,0.04 -0.48,0.08 -0.74,0.1 -0.17,0.02 -0.49,0.03 -0.8,0.03 -0.24,0 -0.47,-0.01 -0.61,-0.03 -0.03,0 -0.06,-0.01 -0.09,-0.01 -0.07,-0.01 -0.12,-0.02 -0.21,-0.03 -0.09,0 -0.14,-0.01 -0.2,-0.02 -0.03,-0.01 -0.07,-0.02 -0.12,-0.02 -0.15,-0.02 -0.33,-0.05 -0.52,-0.09 -0.23,-0.05 -0.46,-0.12 -0.65,-0.17 -0.25,-0.08 -0.72,-0.28 -0.99,-0.39l-0.03 -0.01 0 0 -0.7 -0.37c-0.03,-0.01 -0.07,-0.03 -0.1,-0.04 -0.04,-0.03 -0.09,-0.05 -0.13,-0.07 -0.24,-0.11 -0.6,-0.3 -0.83,-0.38l-0.14 -0.05c-0.04,-0.01 -0.05,-0.02 -0.06,-0.03 -0.01,0 -0.01,0 -0.02,0 -0.06,-0.03 -0.15,-0.07 -0.23,-0.1 -0.07,-0.02 -0.14,-0.04 -0.19,-0.06l0 0 -0.29 -0.07c-0.04,-0.01 -0.09,-0.02 -0.13,-0.03 -0.14,-0.04 -0.27,-0.07 -0.43,-0.1 -0.07,0 -0.12,-0.01 -0.17,-0.03 -0.04,0 -0.08,-0.01 -0.12,-0.02 -0.32,-0.04 -0.65,-0.07 -1,-0.08 -0.33,-0.01 -0.66,0 -0.98,0.03l-0.63 0.06c-0.03,0.01 -0.03,0.01 -0.04,0.01 -0.02,0.01 -0.04,0.02 -0.11,0.03 -0.07,0.01 -0.15,0.03 -0.22,0.05 -0.06,0.02 -0.12,0.04 -0.19,0.05l-0.22 0.06c-0.06,0.03 -0.11,0.04 -0.17,0.05 -0.05,0.02 -0.1,0.03 -0.15,0.04l0 0c-0.01,0.01 -0.02,0.01 -0.02,0.02l-0.01 0 -0.24 0.08 -0.07 0.02c-0.33,0.13 -0.82,0.32 -1.09,0.51 -0.03,0.02 -0.06,0.04 -0.1,0.05l-0.52 0.33 0 0c-0.1,0.05 -0.19,0.12 -0.29,0.19 -0.05,0.04 -0.1,0.09 -0.16,0.13 -0.03,0.01 -0.05,0.03 -0.07,0.05 0,0 0,0 -0.02,0.02 -0.03,0.03 -0.05,0.04 -0.06,0.05l0.17 0.37c0.09,0.15 0.17,0.3 0.24,0.46 0.05,0.11 0.1,0.21 0.15,0.31 0.03,0.05 0.05,0.11 0.07,0.17 0.03,0.06 0.05,0.12 0.08,0.16l0.01 0.01 0.1 0.19 0 0.02c0.02,0.04 0.03,0.07 0.05,0.12 0.02,0.02 0.02,0.04 0.03,0.05 0.02,0.02 0.03,0.05 0.04,0.07l0.27 0.55c0.02,0.04 0.03,0.08 0.05,0.12 0.02,0.06 0.04,0.11 0.07,0.15l0 0.01 0.21 0.42c0.02,0.05 0.04,0.08 0.06,0.13 0.01,0.03 0.02,0.05 0.03,0.07 0.01,0.02 0.02,0.03 0.03,0.05 0.02,0.03 0.02,0.05 0.03,0.06 0.01,0.02 0.02,0.04 0.03,0.07 0.07,0.11 0.12,0.23 0.17,0.36 0.05,0.11 0.1,0.22 0.15,0.32 0.03,0.06 0.07,0.14 0.1,0.21 0.08,0.16 0.16,0.32 0.23,0.49 0.04,0.08 0.05,0.11 0.06,0.14 0,0 0,0 0.01,0.02 0.04,0.05 0.07,0.1 0.1,0.16 0.03,0.05 0.05,0.11 0.07,0.16 0.01,0.03 0.01,0.04 0.01,0.05 0,0 0,0 0.01,0.01 0,0.01 0.01,0.01 0.02,0.02 0.02,0.03 0.04,0.05 0.06,0.1l0.78 1.63c0.04,0.06 0.08,0.16 0.12,0.25 0.02,0.06 0.05,0.13 0.07,0.17 0,0.01 0.31,0.6 0.34,0.67 0.01,0.03 0.02,0.04 0.03,0.07l0 0c0,0.01 0.01,0.03 0.03,0.05l0.01 0.03c0.02,0.04 0.04,0.07 0.05,0.12 0.03,0.08 0.1,0.24 0.17,0.39 0.06,0.12 0.12,0.23 0.16,0.28 0.03,0.04 0.04,0.07 0.05,0.1l0 0c0,0.01 0.01,0.02 0.02,0.04 0.03,0.07 0.05,0.12 0.07,0.17 0.02,0.04 0.03,0.07 0.05,0.11 0.01,0.03 0.03,0.06 0.05,0.09 0.03,0.06 0.07,0.13 0.09,0.19l0 0c0.02,0.06 0.04,0.13 0.05,0.21 0.01,0.07 0.01,0.14 -0.01,0.2 -0.02,0.12 -0.07,0.23 -0.14,0.32l0 0c-0.07,0.08 -0.17,0.15 -0.29,0.19 -0.02,0.01 -0.03,0.02 -0.04,0.02 -0.04,0.02 -0.06,0.03 -0.16,0.03 -0.37,0.01 -0.46,-0.1 -0.65,-0.34l-0.02 -0.02 0 0c-0.03,-0.04 -0.06,-0.13 -0.1,-0.21 -0.02,-0.06 -0.04,-0.11 -0.06,-0.15 -0.04,-0.07 -0.08,-0.15 -0.11,-0.23 -0.06,-0.12 -0.11,-0.24 -0.17,-0.34l0 -0.01 -0.5 -1.05c-0.08,-0.14 -0.14,-0.29 -0.2,-0.43 -0.07,-0.13 -0.13,-0.26 -0.19,-0.37l-0.01 -0.01 -0.12 -0.29c-0.02,-0.04 -0.04,-0.07 -0.06,-0.11 -0.03,-0.05 -0.06,-0.1 -0.08,-0.16l-0.12 -0.26c-0.03,-0.05 -0.08,-0.15 -0.14,-0.26 -0.08,-0.16 -0.18,-0.36 -0.21,-0.43l0 0 -0.47 -1.02c-0.05,-0.08 -0.08,-0.15 -0.12,-0.23 -0.03,-0.08 -0.07,-0.15 -0.11,-0.22 -0.07,-0.11 -0.16,-0.32 -0.24,-0.5 -0.06,-0.15 -0.12,-0.28 -0.15,-0.32 -0.04,-0.06 -0.07,-0.13 -0.1,-0.2 -0.01,-0.03 -0.03,-0.06 -0.04,-0.08 -0.01,-0.03 -0.04,-0.09 -0.07,-0.15 -0.06,-0.13 -0.13,-0.25 -0.19,-0.4l-0.79 -1.62c-0.01,-0.03 -0.02,-0.05 -0.03,-0.06 -0.01,-0.03 -0.02,-0.05 -0.03,-0.08l-0.01 -0.02c-0.03,-0.05 -0.03,-0.06 -0.06,-0.13 0,-0.01 -0.01,-0.02 -0.01,-0.03 -0.01,-0.01 -0.01,-0.01 -0.01,-0.02l-0.01 -0.01 -0.88 -1.82c-0.06,-0.12 -0.12,-0.24 -0.17,-0.36 -0.03,-0.07 -0.06,-0.14 -0.09,-0.2 -0.02,-0.04 -0.04,-0.07 -0.06,-0.11 -0.02,-0.05 -0.05,-0.1 -0.08,-0.16 -0.01,-0.04 -0.03,-0.08 -0.05,-0.13 -0.02,-0.05 -0.04,-0.1 -0.06,-0.14l-0.15 -0.26c-0.05,-0.1 -0.09,-0.2 -0.14,-0.3 -0.05,-0.13 -0.11,-0.26 -0.18,-0.37l0 0c-0.03,-0.05 -0.04,-0.08 -0.05,-0.11 0,-0.01 0,-0.02 -0.01,-0.05l-0.14 -0.27c-0.01,-0.02 -0.02,-0.04 -0.03,-0.06 -0.01,-0.03 -0.02,-0.05 -0.03,-0.07 -0.05,-0.09 -0.12,-0.24 -0.18,-0.37 -0.07,-0.15 -0.14,-0.3 -0.18,-0.37l0 0 0 0 -0.01 -0.01 -0.09 -0.2 0 -0.01c-0.04,-0.1 -0.09,-0.19 -0.14,-0.29 -0.04,-0.08 -0.08,-0.17 -0.12,-0.26 -0.02,-0.05 -0.04,-0.09 -0.06,-0.13 -0.02,-0.04 -0.04,-0.08 -0.06,-0.12l-0.01 -0.01 -0.19 -0.43 0 -0.01c-0.03,-0.07 -0.07,-0.14 -0.1,-0.21 -0.04,-0.06 -0.07,-0.12 -0.1,-0.18l-0.01 -0.03c-0.05,-0.12 -0.13,-0.26 -0.19,-0.38 -0.01,-0.04 -0.04,-0.08 -0.06,-0.12 -0.09,-0.16 -0.18,-0.38 -0.26,-0.55l-0.02 -0.04c-0.02,-0.03 -0.03,-0.05 -0.05,-0.09 -0.03,-0.07 -0.06,-0.12 -0.09,-0.17 -0.08,-0.17 -0.17,-0.34 -0.24,-0.51 -0.03,-0.09 -0.08,-0.17 -0.12,-0.25 -0.03,-0.05 -0.06,-0.1 -0.08,-0.15l-0.19 -0.41c-0.02,-0.03 -0.03,-0.07 -0.04,-0.1 -0.03,-0.06 -0.06,-0.13 -0.08,-0.17l-0.02 -0.04c-0.07,-0.11 -0.14,-0.24 -0.19,-0.37l-0.19 -0.4 -0.01 -0.01 0 -0.01c-0.01,-0.01 -0.02,-0.02 -0.03,-0.04l-0.28 -0.63 -0.01 -0.01 0 0 0 -0.01 -0.32 -0.66 0 0c-0.01,-0.02 -0.02,-0.05 -0.04,-0.08 -0.03,-0.07 -0.07,-0.13 -0.09,-0.2 -0.02,-0.03 -0.03,-0.06 -0.05,-0.1 0,-0.01 -0.01,-0.01 -0.01,-0.02l0 -0.01c-0.01,-0.02 -0.03,-0.04 -0.04,-0.07 -0.01,-0.01 -0.02,-0.03 -0.03,-0.05l0 0 -0.07 -0.14 0 0c-0.01,-0.02 -0.03,-0.03 -0.06,-0.04 -0.02,-0.01 -0.05,-0.02 -0.08,-0.03l-0.03 -0.02c-0.06,-0.03 -0.13,-0.06 -0.18,-0.13 -0.04,-0.05 -0.05,-0.07 -0.07,-0.08 -0.03,-0.03 -0.06,-0.05 -0.13,-0.19l-0.01 -0.02c-0.04,-0.08 -0.06,-0.12 -0.07,-0.15 0,0 0.01,0 0.01,0l0 0 -0.07 -0.03 0 -0.07zm0.07 0.1c0,0 0,0 0,0l0 0zm10.62 2.41c0.06,0.01 0.11,0.01 0.15,0.02 0.09,0.01 0.14,0.02 0.33,0.03 0.06,0 0.11,0.02 0.16,0.03 0.03,0.01 0.06,0.01 0.09,0.02 0.09,0.01 0.27,0.05 0.44,0.08 0.12,0.03 0.24,0.06 0.31,0.07l0 0c0.01,0 0.03,0.01 0.05,0.01 0.05,0.02 0.16,0.05 0.31,0.08l0.01 0c0.32,0.13 0.65,0.26 0.98,0.38l0.07 0.04c0.07,0.04 0.09,0.05 0.1,0.06l0 0c0.01,0 0.01,0 0.03,0.01 0.02,0.01 0.07,0.03 0.2,0.08 0.04,0.02 0.09,0.05 0.14,0.08l0.02 0.02 -0.52 -1.12c-0.03,-0.04 -0.05,-0.08 -0.07,-0.13 -0.03,-0.06 -0.05,-0.1 -0.06,-0.13 -0.01,-0.04 -0.03,-0.07 -0.08,-0.17 -0.03,-0.04 -0.03,-0.06 -0.04,-0.08l0 0c0,-0.01 0,-0.02 -0.01,-0.03 0,-0.01 -0.01,-0.03 -0.02,-0.05l0 0 -0.02 -0.04c-0.06,-0.14 -0.11,-0.15 -0.3,-0.23 -0.04,-0.01 -0.08,-0.03 -0.13,-0.04 -0.06,-0.03 -0.13,-0.06 -0.19,-0.09 -0.06,-0.03 -0.12,-0.06 -0.18,-0.09 -0.06,-0.03 -0.12,-0.06 -0.19,-0.09 -0.05,-0.03 -0.1,-0.05 -0.16,-0.08l-1.25 -0.6c-0.17,-0.07 -0.18,-0.08 -0.23,-0.09 -0.03,-0.01 -0.07,-0.02 -0.14,-0.04l-0.91 -0.23c0.03,0.06 0.07,0.13 0.09,0.16 0.05,0.08 0.07,0.15 0.09,0.21 0.01,0.03 0.03,0.07 0.04,0.1l0.46 0.93c0.05,0.09 0.12,0.26 0.2,0.43 0.09,0.19 0.18,0.4 0.23,0.49zm7.8 -0.62l-0.02 0.04 -0.06 0c-0.08,0.01 -0.08,0.01 -0.08,0.01 -0.02,0.01 -0.04,0.03 -0.1,0.05 -0.07,0.01 -0.15,0.03 -0.23,0.04l0 0c-0.07,0.01 -0.09,0.01 -0.1,0.02l0 0c-0.03,0.01 -0.05,0.02 -0.09,0.03 -0.05,0.01 -0.08,0.01 -0.12,0.01 -0.04,0 -0.08,0 -0.11,0.01 -0.14,0.04 -0.44,0.06 -0.67,0.08 -0.05,0 -0.11,0 -0.15,0.01 0.02,0.04 0.04,0.08 0.06,0.12 0.02,0.03 0.03,0.05 0.04,0.07 0.2,0.39 0.37,0.78 0.57,1.17 0.01,0.02 0.02,0.05 0.04,0.09 0.03,0.08 0.07,0.18 0.11,0.22 0.02,0.03 0.08,0.17 0.14,0.32 0.07,0.16 0.15,0.34 0.17,0.36 0.01,0.02 0.02,0.03 0.03,0.04 0.02,0.02 0.02,0.03 0.03,0.05l0 0c0.01,0.01 0.02,0.03 0.02,0.05 0.19,0 0.44,0 0.68,-0.02 0.25,-0.01 0.49,-0.04 0.65,-0.07 0.04,-0.01 0.08,-0.01 0.13,-0.02 0.06,-0.01 0.11,-0.02 0.15,-0.03l0.71 -0.18 0 0c0.02,0 0.03,0 0.04,0 0.01,0 0.01,-0.01 0.02,-0.01 -0.01,-0.01 -0.01,-0.02 -0.01,-0.03 -0.01,-0.02 -0.02,-0.04 -0.03,-0.06 -0.02,-0.05 -0.03,-0.06 -0.04,-0.07 -0.02,-0.02 -0.04,-0.04 -0.06,-0.1 -0.01,-0.03 -0.02,-0.06 -0.03,-0.08 -0.02,-0.04 -0.03,-0.06 -0.04,-0.09l-0.2 -0.39 0 0c0,-0.01 -0.01,-0.02 -0.02,-0.04l-0.17 -0.36 0 0c0,-0.02 -0.01,-0.03 -0.02,-0.05 0,-0.01 -0.01,-0.03 -0.02,-0.04l-0.38 -0.79 0 -0.01c-0.01,-0.02 -0.01,-0.03 -0.02,-0.05 -0.01,0 -0.01,-0.01 -0.02,-0.03l-0.17 -0.34 -0.01 0c-0.01,-0.03 -0.01,-0.05 -0.02,-0.07 -0.01,-0.02 -0.01,-0.03 -0.02,-0.04 -0.06,0.01 -0.13,0.04 -0.2,0.07 -0.06,0.01 -0.11,0.03 -0.15,0.05 -0.02,0 -0.04,0.01 -0.06,0.01 -0.01,0 -0.03,0 -0.03,0.01 -0.02,0 -0.01,-0.01 -0.01,0 -0.02,0.01 -0.04,0.03 -0.13,0.04zm1.33 6.55l-0.06 0c0,0.02 0.01,0.03 0.02,0.05 0,0 0.01,0.02 0.01,0.02l0.2 0.39c0.02,0.05 0.03,0.09 0.05,0.14 0.01,0.03 0.02,0.06 0.03,0.08 0.04,0.09 0.08,0.16 0.11,0.24 0.06,0.1 0.11,0.21 0.17,0.35l0.08 0.16c0.01,0.01 0.01,0.02 0.01,0.02 0,0.01 0.17,0.37 0.19,0.41l0.01 0.01c0.02,0.09 0.06,0.15 0.1,0.21 0.03,0.05 0.07,0.09 0.09,0.16l0.02 0.03c0,0.02 0,0.02 0.02,0.05l0 0 0.05 0.09 0 0.01c0.02,0.04 0.03,0.07 0.05,0.11 0.01,0.03 0.02,0.07 0.04,0.1l0.04 0.1c0.05,0.07 0.09,0.15 0.13,0.23 0.15,0 0.37,0 0.58,-0.02 0.2,-0.01 0.39,-0.03 0.52,-0.07 0.05,-0.01 0.09,-0.01 0.13,-0.01 0.02,0 0.05,0 0.07,0 0.02,-0.01 0.04,-0.01 0.05,-0.02 0.02,0 0.05,-0.01 0.08,-0.02 0.05,-0.01 0.1,-0.02 0.14,-0.02 0.08,-0.02 0.15,-0.03 0.3,-0.07l0.06 -0.03c0.02,-0.01 0.1,-0.03 0.2,-0.06 0.08,-0.02 0.18,-0.04 0.24,-0.06 -0.01,-0.03 -0.02,-0.05 -0.03,-0.07 0,-0.01 -0.01,-0.02 -0.02,-0.04l0 0 -0.18 -0.39c-0.08,-0.14 -0.17,-0.34 -0.25,-0.53 -0.08,-0.18 -0.15,-0.34 -0.21,-0.44 0,-0.01 -0.01,-0.02 -0.02,-0.04 -0.01,-0.01 -0.02,-0.03 -0.03,-0.04l0 0 -0.1 -0.22c0,-0.01 -0.01,-0.03 -0.01,-0.03l-0.07 -0.15c-0.01,-0.01 -0.02,-0.02 -0.03,-0.04 0,-0.02 -0.01,-0.03 -0.02,-0.05 -0.04,-0.08 -0.07,-0.15 -0.11,-0.23 -0.01,-0.02 -0.01,-0.03 -0.03,-0.07l-0.3 -0.61 -0.05 0.01c-0.05,0.01 -0.11,0.03 -0.13,0.04l0 0c-0.05,0.02 -0.08,0.03 -0.12,0.04 -0.03,0.01 -0.05,0.02 -0.08,0.03 -0.01,0 -0.04,0.01 -0.07,0.02 -0.1,0.03 -0.23,0.05 -0.35,0.07 -0.08,0.01 -0.17,0.03 -0.24,0.04 -0.09,0.02 -0.32,0.05 -0.57,0.07 -0.29,0.03 -0.6,0.05 -0.71,0.05zm-0.51 -0.31c-0.05,-0.12 -0.14,-0.29 -0.18,-0.38 -0.03,-0.07 -0.07,-0.15 -0.1,-0.22 -0.01,-0.01 -0.01,-0.02 -0.02,-0.03 -0.01,-0.03 -0.03,-0.05 -0.04,-0.08l0 0 -0.15 -0.3c-0.01,-0.02 -0.02,-0.04 -0.03,-0.06 -0.01,-0.02 -0.02,-0.04 -0.03,-0.06 -0.04,-0.1 -0.06,-0.15 -0.09,-0.2 -0.02,-0.03 -0.04,-0.07 -0.06,-0.12l-0.24 -0.52c-0.01,-0.04 -0.03,-0.06 -0.04,-0.09 -0.02,-0.03 -0.04,-0.06 -0.07,-0.12l-0.2 -0.42c-0.01,-0.04 -0.04,-0.09 -0.06,-0.14 -0.01,-0.02 -0.02,-0.04 -0.03,-0.07 -0.01,-0.01 -0.01,-0.03 -0.02,-0.05 -0.01,-0.01 -0.02,-0.03 -0.03,-0.04l-0.14 -0.29c-0.01,-0.01 -0.03,-0.01 -0.05,-0.01 -0.03,0 -0.07,0 -0.11,-0.01 -0.08,-0.02 -0.12,-0.02 -0.21,-0.02l-0.01 0c-0.07,0 -0.12,-0.01 -0.16,-0.02 -0.03,-0.01 -0.05,-0.01 -0.08,-0.01l-0.12 -0.02c-0.22,-0.02 -0.23,-0.02 -0.57,-0.09 -0.03,-0.01 -0.06,-0.02 -0.08,-0.03 -0.04,-0.01 -0.08,-0.02 -0.12,-0.02 -0.04,0 -0.05,0 -0.06,0 -0.05,0 -0.05,0 -0.13,-0.04 -0.03,-0.01 -0.14,-0.05 -0.26,-0.09 -0.16,-0.05 -0.33,-0.1 -0.39,-0.13l-0.72 -0.32 0 0c0.03,0.07 0.05,0.15 0.08,0.22 0.02,0.05 0.05,0.09 0.07,0.14 0.04,0.07 0.08,0.15 0.12,0.24 0.01,0.03 0.02,0.05 0.04,0.08 0.02,0.03 0.03,0.06 0.05,0.1 0.02,0.03 0.03,0.07 0.05,0.1 0.05,0.1 0.1,0.21 0.15,0.3l0.01 0.01 0.45 1c0.05,0.09 0.1,0.19 0.14,0.28 0.06,0.14 0.12,0.27 0.17,0.33 0.03,0.05 0.03,0.06 0.04,0.09 0,0.01 0.01,0.02 0.01,0.03 0.05,0.13 0.06,0.13 0.1,0.15 0.02,0.01 0.04,0.03 0.06,0.04 0.01,0.01 0.03,0.02 0.04,0.03 0.01,0.01 0.02,0.01 0.04,0.02l0.38 0.19c0.13,0.06 0.26,0.11 0.39,0.17 0.01,0 0.02,0.01 0.04,0.01l0 0c0.01,0 0.03,0 0.06,0.01 0.03,0.01 0.04,0.01 0.06,0.02 0.01,0.01 0.02,0.01 0.05,0.02l0.43 0.14 0.01 0c0.02,0.01 0.06,0.02 0.09,0.03 0.05,0.01 0.09,0.02 0.13,0.02 0.05,0.01 0.06,0.02 0.09,0.03 0.02,0.01 0.04,0.01 0.12,0.03l0.01 0 0.24 0.05 0 0c0.12,0.03 0.33,0.07 0.54,0.1 0.12,0.01 0.24,0.02 0.34,0.02zm-1.99 2.11l-0.01 -0.01c-0.07,-0.17 -0.18,-0.39 -0.22,-0.46l-0.1 -0.19 0 -0.01c-0.01,-0.02 -0.02,-0.04 -0.02,-0.06 -0.01,-0.02 -0.01,-0.03 -0.02,-0.04l-0.15 -0.29c-0.02,-0.04 -0.04,-0.08 -0.05,-0.09l-0.31 -0.63 0 0c-0.02,-0.04 -0.04,-0.08 -0.06,-0.13 -0.05,-0.12 -0.12,-0.28 -0.16,-0.33l0 -0.01 -0.09 -0.2c0,-0.01 -0.01,-0.02 -0.01,-0.02 -0.01,-0.02 -0.02,-0.03 -0.04,-0.08 -0.02,-0.06 -0.06,-0.15 -0.1,-0.23 -0.03,-0.04 -0.05,-0.08 -0.07,-0.09l0 0 -0.79 -0.39c-0.03,-0.02 -0.11,-0.05 -0.19,-0.08 -0.08,-0.03 -0.15,-0.06 -0.21,-0.09l-0.65 -0.22c-0.04,-0.01 -0.06,-0.02 -0.08,-0.03 0,0 -0.01,-0.01 -0.01,-0.01 -0.01,0 -0.01,0 -0.02,0 -0.01,0 -0.02,0 -0.03,-0.01 -0.09,-0.02 -0.14,-0.03 -0.18,-0.04 -0.06,-0.02 -0.11,-0.03 -0.25,-0.05 -0.09,-0.01 -0.13,-0.02 -0.15,-0.04 -0.01,0 -0.02,0 -0.03,0 -0.02,-0.01 -0.04,-0.01 -0.07,-0.01 -0.04,-0.01 -0.06,-0.02 -0.08,-0.03 -0.01,0 -0.02,0 -0.03,-0.01 -0.04,-0.01 -0.09,-0.01 -0.14,-0.02 -0.03,0 -0.07,-0.01 -0.11,-0.02 -0.08,-0.01 -0.17,-0.02 -0.27,-0.03 -0.05,-0.01 -0.09,-0.01 -0.14,-0.02 0.02,0.05 0.04,0.09 0.06,0.12 0.01,0.03 0.02,0.06 0.03,0.08l0.53 1.07c0.01,0.03 0.02,0.05 0.03,0.07 0,0.02 0.01,0.03 0.01,0.04l0.12 0.25c0.03,0.06 0.04,0.09 0.05,0.12l0 0c0.01,0.02 0.01,0.04 0.02,0.06 0.05,0.09 0.1,0.17 0.14,0.26 0.03,0.06 0.05,0.1 0.07,0.14 0.02,0.05 0.04,0.09 0.08,0.14 0.02,0.03 0.03,0.07 0.05,0.1l0 0 0 0.02 0.09 0.2c0.01,0.03 0.03,0.06 0.04,0.09l0 0c0.02,0.04 0.04,0.07 0.06,0.11 0,0.02 0.01,0.03 0.02,0.05 0.01,0.03 0.02,0.05 0.03,0.06l0.52 0.06c0.07,0 0.12,0.02 0.17,0.03 0.02,0.01 0.05,0.01 0.08,0.02l0.25 0.04c0.13,0.02 0.29,0.07 0.42,0.11 0.07,0.02 0.13,0.03 0.16,0.04l0 0c0.24,0.04 0.46,0.12 0.68,0.21l0.12 0.05 0.08 0.03c0.12,0.04 0.23,0.08 0.34,0.14l0.4 0.17c0.12,0.04 0.16,0.06 0.19,0.09zm-13.24 -5.63c0.01,0 0.02,-0.01 0.03,-0.02 0.01,-0.01 0.03,-0.02 0.04,-0.03l0 -0.01c0.45,-0.31 0.91,-0.62 1.36,-0.93l0.36 -0.19c0.03,-0.02 0.04,-0.03 0.08,-0.04l0.02 -0.01 0.02 -0.01 0.02 -0.01 0.03 -0.03 0.01 0c0.03,-0.02 0.06,-0.03 0.09,-0.03 0.03,-0.01 0.06,-0.02 0.14,-0.05 0.02,-0.01 0.04,-0.02 0.07,-0.04 0.04,-0.02 0.08,-0.04 0.14,-0.06 0.04,-0.01 0.12,-0.03 0.2,-0.06 0.03,-0.02 0.06,-0.03 0.08,-0.04l-0.24 -0.48c-0.01,-0.04 -0.04,-0.08 -0.06,-0.11 -0.03,-0.07 -0.07,-0.13 -0.1,-0.22 -0.03,-0.08 -0.14,-0.32 -0.27,-0.59 -0.15,-0.31 -0.32,-0.65 -0.41,-0.81 -0.03,-0.06 -0.05,-0.12 -0.08,-0.18 -0.01,-0.01 -0.03,-0.05 -0.04,-0.08 -0.03,-0.07 -0.06,-0.15 -0.09,-0.2 -0.12,0.02 -0.14,0.03 -0.18,0.05 -0.02,0.02 -0.06,0.04 -0.13,0.07 -0.04,0.01 -0.06,0.02 -0.08,0.02 -0.01,0.01 -0.02,0.01 -0.03,0.01l-0.85 0.38c-0.1,0.05 -0.13,0.06 -0.15,0.06 -0.01,0 0,0 -0.02,0.02 -0.02,0.01 -0.02,0.01 -0.02,0.01 -0.01,0.01 -0.02,0.02 -0.04,0.03 -0.02,0.02 -0.04,0.02 -0.06,0.03 -0.01,0.01 -0.02,0.01 -0.03,0.02l-0.74 0.47 0 0c0,0 0,0 -0.01,0l-0.03 0.03 0 0c-0.02,0.02 -0.02,0.02 -0.04,0.04l-0.01 0c-0.03,0.03 -0.05,0.05 -0.08,0.07 -0.03,0.02 -0.05,0.04 -0.07,0.06l0 0c-0.06,0.05 -0.11,0.09 -0.15,0.11 0,0 0,0 0,0 0,0 0,0 0,0.01l0 0c0.03,0.05 0.07,0.12 0.12,0.24 0.05,0.12 0.12,0.25 0.17,0.36 0.05,0.07 0.08,0.14 0.1,0.19 0.02,0.04 0.03,0.06 0.04,0.09 0.01,0.04 0.02,0.07 0.04,0.11l0.23 0.45c0,0.01 0,0.01 0.01,0.02 0.01,0.01 0.02,0.02 0.04,0.06 0.01,0.04 0.03,0.07 0.04,0.11 0.01,0.03 0.03,0.06 0.04,0.09l0.01 0.02c0.01,0.02 0.02,0.03 0.03,0.06l0.15 0.28c0.03,0.07 0.08,0.17 0.12,0.28 0.06,0.14 0.13,0.29 0.18,0.38zm-1.33 -2.75c0,-0.01 0,-0.03 -0.01,-0.01 0,0.01 0.01,0 0.01,0.01zm3.12 6.47c0.02,0.05 0.04,0.09 0.06,0.12 0.02,0.06 0.05,0.11 0.08,0.18l0.07 0.12 0 0.01c0.03,0.05 0.05,0.11 0.08,0.16 0.03,0.09 0.07,0.18 0.12,0.25l0 0.01 0.26 0.57c0.02,0.03 0.03,0.05 0.04,0.07l0.01 0.01 0 0 0.01 0.02c0,0.01 0.01,0.01 0.01,0.02 0.01,0.01 0.01,0.01 0.01,0.02l0 0c0.01,0 0.01,0.01 0.01,0.02l0.01 0 0.04 0.09 0 0.01c0.03,0.06 0.05,0.1 0.07,0.15 0.04,0.06 0.07,0.13 0.11,0.23l0.31 0.66c0.01,0.02 0.03,0.05 0.04,0.07l0 0.01c0.16,-0.11 0.33,-0.22 0.49,-0.33 0.13,-0.09 0.25,-0.17 0.37,-0.25 0.13,-0.07 0.25,-0.14 0.38,-0.21 0.03,-0.01 0.04,-0.02 0.05,-0.03 0.04,-0.02 0.07,-0.04 0.13,-0.06l0.36 -0.18c0.06,-0.03 0.14,-0.07 0.22,-0.11l0 0c0.06,-0.03 0.12,-0.05 0.17,-0.07 0.03,0 0.06,-0.02 0.09,-0.03 0.04,-0.02 0.07,-0.03 0.1,-0.04 0.02,-0.01 0.05,-0.02 0.07,-0.02 0.01,-0.01 0.02,-0.01 0.03,-0.01l0.23 -0.1c-0.01,-0.05 -0.03,-0.1 -0.06,-0.15 -0.03,-0.04 -0.05,-0.09 -0.08,-0.16 -0.04,-0.1 -0.09,-0.2 -0.14,-0.3l-0.04 -0.08 -0.46 -1 -0.01 -0.02c-0.16,-0.32 -0.34,-0.69 -0.48,-1.02l0 0 -0.04 -0.07c-0.04,-0.06 -0.06,-0.09 -0.07,-0.11 -0.03,0.01 -0.07,0.02 -0.11,0.04 -0.08,0.03 -0.16,0.06 -0.2,0.08 -0.03,0.01 -0.05,0.02 -0.06,0.02 -0.01,0.01 -0.02,0.01 -0.04,0.02l-0.73 0.36c-0.05,0.03 -0.08,0.05 -0.12,0.06 -0.04,0.02 -0.08,0.04 -0.15,0.09l-0.46 0.29 -0.01 0.02c-0.02,0.01 -0.03,0.02 -0.04,0.02l0 0c-0.02,0.01 -0.04,0.02 -0.06,0.04 -0.01,0 -0.02,0.01 -0.03,0.02 -0.09,0.05 -0.17,0.11 -0.25,0.18l0 0c-0.04,0.04 -0.09,0.08 -0.14,0.12l0 0c-0.01,0.01 -0.03,0.01 -0.04,0.02 -0.03,0.02 -0.05,0.04 -0.08,0.06 -0.02,0.01 -0.04,0.02 -0.05,0.02 0,0 0.01,0 0,0.01l0 0c0,0 0,0 -0.01,0.01l0 0c-0.03,0.02 -0.05,0.05 -0.07,0.07zm0.08 -0.08l0 0 0 0zm0 0l0 0 0 0zm1.17 -5.04l0.96 2.02c0.01,0 0.02,0.01 0.02,0.02l0 0c0.01,0.02 0.03,0.04 0.04,0.06 0.11,0.21 0.29,0.55 0.36,0.76 0.04,0.09 0.05,0.1 0.06,0.11 0.01,0.02 0.02,0.04 0.04,0.09l0.07 0.15 0.63 -0.19c0.09,-0.04 0.3,-0.07 0.47,-0.1 0.11,-0.01 0.21,-0.03 0.24,-0.04l0.01 0c0.11,-0.02 0.22,-0.04 0.34,-0.07l1.68 -0.05c-0.01,-0.03 -0.02,-0.05 -0.03,-0.09l0 0c-0.01,-0.01 -0.01,-0.02 -0.01,-0.02 0,-0.01 0,-0.01 0,-0.02 -0.01,0 -0.02,-0.03 -0.04,-0.06 -0.04,-0.07 -0.1,-0.19 -0.15,-0.3l-0.36 -0.74c-0.01,-0.01 -0.01,-0.04 -0.02,-0.06 -0.01,-0.02 -0.02,-0.04 -0.02,-0.05l-0.11 -0.22c-0.01,-0.01 -0.01,-0.03 -0.02,-0.05 -0.01,-0.02 -0.02,-0.03 -0.03,-0.05l0 0 -0.25 -0.52 -0.01 -0.01c-0.01,-0.04 -0.03,-0.07 -0.04,-0.09 -0.02,-0.05 -0.04,-0.08 -0.06,-0.15 -0.01,-0.03 -0.03,-0.05 -0.04,-0.07l0 0c-0.02,-0.03 -0.04,-0.07 -0.06,-0.12 -0.01,-0.02 -0.02,-0.03 -0.03,-0.05 0,-0.03 -0.01,-0.04 -0.02,-0.06 -0.01,-0.01 -0.01,-0.02 -0.01,-0.02l0 0c0,-0.01 -0.01,-0.02 -0.02,-0.03l-0.21 -0.43c-0.21,0 -0.51,-0.01 -0.8,0 -0.23,0 -0.44,0.01 -0.6,0.03 -0.07,0.01 -0.14,0.01 -0.2,0.02 -0.08,0 -0.16,0 -0.25,0.03l-0.01 0 -0.64 0.11 -0.01 0c-0.04,0 -0.06,0.01 -0.09,0.02 -0.02,0.01 -0.05,0.02 -0.09,0.03l-0.69 0.21zm4.97 2.85c0,0 0,0 0,0.01l0 0 0 -0.01 0 0z"/>
 </g>
</svg>
